<?xml version="1.0" encoding="utf-8"?>
<!-- Generator: Adobe Illustrator 15.1.0, SVG Export Plug-In . SVG Version: 6.00 Build 0)  -->
<!DOCTYPE svg PUBLIC "-//W3C//DTD SVG 1.1//EN" "http://www.w3.org/Graphics/SVG/1.1/DTD/svg11.dtd">
<svg version="1.1" id="Layer_1" xmlns="http://www.w3.org/2000/svg" xmlns:xlink="http://www.w3.org/1999/xlink" x="0px" y="0px"
	 width="73.976px" height="74px" viewBox="0 0 73.976 74" enable-background="new 0 0 73.976 74" xml:space="preserve">
<path fill="#3F8FD8" d="M25.235,52.774c-0.896,0-1.792-0.342-2.475-1.025c-1.367-1.366-1.367-3.583,0-4.949l23.9-23.9
	c1.365-1.366,3.582-1.367,4.949,0c1.367,1.367,1.367,3.583,0,4.95l-23.9,23.899C27.027,52.433,26.131,52.774,25.235,52.774z"/>
<path fill="#3F8FD8" d="M49.136,52.775c-0.896,0-1.791-0.342-2.475-1.025L22.76,27.849c-1.367-1.367-1.367-3.583,0-4.95
	c1.367-1.366,3.583-1.366,4.95,0l23.9,23.901c1.367,1.366,1.367,3.583,0,4.949C50.927,52.434,50.031,52.775,49.136,52.775z"/>
<path fill="#3F8FD8" d="M37,74C16.598,74,0,57.402,0,37C0,16.598,16.598,0,37,0c20.402,0,37,16.598,37,37C74,57.402,57.402,74,37,74
	z M37,7C20.458,7,7,20.458,7,37s13.458,30,30,30s30-13.458,30-30S53.542,7,37,7z"/>
</svg>
