<?xml version="1.0" encoding="utf-8"?>
<!-- Generator: Adobe Illustrator 15.1.0, SVG Export Plug-In . SVG Version: 6.00 Build 0)  -->
<!DOCTYPE svg PUBLIC "-//W3C//DTD SVG 1.1//EN" "http://www.w3.org/Graphics/SVG/1.1/DTD/svg11.dtd">
<svg version="1.1" id="Layer_1" xmlns="http://www.w3.org/2000/svg" xmlns:xlink="http://www.w3.org/1999/xlink" x="0px" y="0px"
	 width="178.023px" height="86px" viewBox="0 0 178.023 86" enable-background="new 0 0 178.023 86" xml:space="preserve">
<g>
	<rect x="0.024" y="5.5" opacity="0.1" fill="#666666" enable-background="new    " width="178" height="60"/>
	<g>
		<path fill="#666666" d="M14.256,43.748c0-0.447,0.176-0.783,0.528-1.008l11.424-7.536L14.784,27.62
			c-0.354-0.224-0.528-0.56-0.528-1.009c0-0.383,0.16-0.727,0.479-1.031c0.32-0.304,0.656-0.456,1.009-0.456
			c0.223,0,0.416,0.064,0.575,0.192l12.912,8.543C29.744,34.213,30,34.66,30,35.204s-0.256,0.978-0.769,1.296L16.32,45.044
			c-0.159,0.128-0.353,0.192-0.575,0.192c-0.354,0-0.688-0.152-1.009-0.457C14.416,44.477,14.256,44.132,14.256,43.748z"/>
		<path fill="#666666" d="M32.735,49.915c0-0.409,0.112-0.747,0.336-1.015c0.225-0.268,0.513-0.4,0.864-0.4h15.36
			c0.318,0,0.6,0.133,0.84,0.4s0.36,0.604,0.36,1.015c0,0.378-0.12,0.692-0.36,0.944c-0.24,0.25-0.521,0.377-0.84,0.377h-15.36
			C33.136,51.236,32.735,50.796,32.735,49.915z"/>
		<path fill="#666666" d="M54.287,39.716V34.58c0-2.688,0.783-4.872,2.352-6.553c1.567-1.68,3.872-2.52,6.912-2.52
			c1.92,0,3.528,0.344,4.824,1.032s1.943,1.384,1.943,2.088c0,0.353-0.144,0.696-0.432,1.032s-0.608,0.504-0.96,0.504
			c-0.192,0-0.488-0.14-0.888-0.42c-0.4-0.281-0.969-0.568-1.704-0.864c-0.736-0.296-1.616-0.444-2.641-0.444
			c-2.048,0-3.607,0.542-4.68,1.623c-1.073,1.082-1.607,2.595-1.607,4.535V39.7c0,1.975,0.534,3.502,1.607,4.584
			c1.072,1.082,2.647,1.623,4.729,1.623c1.087,0,2.008-0.148,2.76-0.444c0.751-0.296,1.328-0.592,1.728-0.888
			c0.4-0.296,0.712-0.444,0.937-0.444c0.416,0,0.76,0.161,1.032,0.479c0.271,0.32,0.407,0.674,0.407,1.058
			c0,0.735-0.672,1.448-2.016,2.138c-1.344,0.688-3.008,1.03-4.992,1.03c-3.072,0-5.393-0.832-6.96-2.496
			C55.071,44.676,54.287,42.469,54.287,39.716z"/>
		<path fill="#666666" d="M76.079,39.716v-5.231c0-2.432,0.896-4.536,2.688-6.313c1.792-1.775,3.92-2.664,6.384-2.664
			c2.465,0,4.608,0.881,6.433,2.641c1.824,1.76,2.735,3.871,2.735,6.336v5.231c0,2.4-0.92,4.521-2.76,6.36s-3.976,2.76-6.408,2.76
			c-2.399,0-4.512-0.92-6.336-2.76C76.991,44.236,76.079,42.116,76.079,39.716z M79.199,39.701c0,1.625,0.583,3.064,1.752,4.32
			c1.168,1.258,2.567,1.887,4.199,1.887c1.664,0,3.088-0.629,4.272-1.887c1.184-1.256,1.776-2.695,1.776-4.32v-5.202
			c0-1.56-0.601-2.96-1.801-4.2c-1.199-1.242-2.615-1.863-4.248-1.863c-1.632,0-3.031,0.621-4.199,1.863
			c-1.168,1.24-1.752,2.641-1.752,4.2V39.701z"/>
		<path fill="#666666" d="M100.991,39.716v-5.231c0-2.465,0.84-4.576,2.52-6.336c1.68-1.76,3.703-2.641,6.072-2.641
			c1.472,0,2.76,0.356,3.863,1.068c1.104,0.713,1.928,1.588,2.473,2.623V13.076c0-0.32,0.16-0.592,0.479-0.816
			c0.319-0.223,0.703-0.336,1.152-0.336c0.447,0,0.807,0.113,1.079,0.336c0.271,0.224,0.408,0.495,0.408,0.815v34.179
			c0,0.319-0.145,0.607-0.434,0.863c-0.287,0.256-0.64,0.383-1.055,0.383c-0.385,0-0.729-0.129-1.033-0.389
			s-0.455-0.551-0.455-0.877v-2.139c-0.545,1.036-1.416,1.92-2.616,2.646c-1.199,0.729-2.521,1.093-3.96,1.093
			c-2.272,0-4.256-0.92-5.951-2.76C101.838,44.234,100.991,42.116,100.991,39.716z M104.11,39.701c0,1.592,0.593,3.023,1.777,4.297
			c1.183,1.273,2.574,1.91,4.176,1.91c1.535,0,2.896-0.572,4.08-1.719c1.185-1.146,1.775-2.147,1.775-3.008v-6.684
			c0-1.813-0.584-3.277-1.752-4.392c-1.168-1.115-2.521-1.672-4.058-1.672c-1.631,0-3.04,0.621-4.223,1.863
			c-1.186,1.24-1.777,2.641-1.777,4.2L104.11,39.701L104.11,39.701z"/>
		<path fill="#666666" d="M126.622,39.716V34.34c0-2.4,0.896-4.471,2.688-6.216c1.792-1.743,3.952-2.616,6.479-2.616
			c2.432,0,4.536,0.834,6.313,2.499c1.775,1.666,2.664,3.748,2.664,6.247c0,0.895-0.104,1.611-0.313,2.154s-0.545,0.926-1.009,1.148
			c-0.465,0.225-0.888,0.367-1.271,0.432c-0.385,0.063-0.912,0.096-1.584,0.096h-10.849v1.775c0,1.889,0.68,3.4,2.04,4.537
			c1.358,1.136,3.11,1.703,5.256,1.703c1.088,0,2.041-0.16,2.855-0.479c0.815-0.319,1.44-0.64,1.872-0.96s0.775-0.48,1.031-0.48
			c0.353,0,0.664,0.168,0.937,0.504c0.271,0.336,0.408,0.666,0.408,0.984c0,0.672-0.688,1.368-2.063,2.088
			c-1.377,0.721-3.091,1.08-5.138,1.08c-3.041,0-5.52-0.84-7.438-2.52S126.622,42.436,126.622,39.716z M129.742,35.779h9.601
			c0.959,0,1.6-0.102,1.92-0.309c0.319-0.207,0.479-0.645,0.479-1.313c0-1.59-0.568-2.988-1.704-4.197
			c-1.137-1.209-2.568-1.813-4.296-1.813c-1.664,0-3.08,0.572-4.247,1.717c-1.17,1.145-1.753,2.512-1.753,4.102V35.779z"/>
		<path fill="#666666" d="M151.87,47.252V26.948c0-0.319,0.145-0.592,0.432-0.816c0.289-0.224,0.656-0.336,1.104-0.336
			c0.414,0,0.769,0.114,1.056,0.341c0.288,0.227,0.432,0.502,0.432,0.826v2.383c0.576-1.068,1.424-1.975,2.545-2.721
			c1.119-0.744,2.416-1.117,3.889-1.117h1.681c0.318,0,0.607,0.146,0.863,0.439c0.256,0.293,0.385,0.635,0.385,1.025
			c0,0.39-0.129,0.732-0.385,1.024s-0.545,0.438-0.863,0.438h-1.681c-1.664,0-3.138,0.646-4.416,1.939
			c-1.28,1.293-1.92,2.979-1.92,5.053v11.827c0,0.319-0.152,0.606-0.456,0.862c-0.306,0.256-0.681,0.383-1.128,0.383
			c-0.417,0-0.776-0.127-1.08-0.385C152.021,47.859,151.87,47.572,151.87,47.252z"/>
	</g>
</g>
</svg>
