<?xml version="1.0" encoding="utf-8"?>
<!-- Generator: Adobe Illustrator 15.1.0, SVG Export Plug-In . SVG Version: 6.00 Build 0)  -->
<!DOCTYPE svg PUBLIC "-//W3C//DTD SVG 1.1//EN" "http://www.w3.org/Graphics/SVG/1.1/DTD/svg11.dtd">
<svg version="1.1" id="Layer_1" xmlns="http://www.w3.org/2000/svg" xmlns:xlink="http://www.w3.org/1999/xlink" x="0px" y="0px"
	 width="171px" height="86.833px" viewBox="0 0 171 86.833" enable-background="new 0 0 171 86.833" xml:space="preserve">
<rect fill="#FFFFFF" width="171" height="86.833"/>
<path fill="#3F8FD8" d="M54.358,38.506c2.955,0.013,8.64,0.647,10.447-2.349c0.894-1.482-0.62-3.766-1.603-4.784
	c-1.464-1.516-3.516-2.936-5.71-2.585c-4.039,0.645-7.771,5.962-7.871,9.796c-0.11,4.27,6.221,6.18,9.464,6.396
	c5.275,0.354,9.5-0.802,13.108-4.766c2.35-2.582,5.053-7.088,4.009-10.748c-0.749-2.626-5.949-6.408-8.641-4.196
	c-2.515,2.068,8.364,6.151,9.642,6.69c1.604,0.675,3.203,1.365,4.774,2.114c0.663,0.316,1.314,0.654,1.96,1.002
	c1.536,0.828-0.276-1.396-0.304,0.042c-0.063,3.256-5.744,3.02-7.85,3.787c-0.748,0.272,0.668,1.538,0.902,1.729
	c4.649,3.794,9.684,3.109,15.125,1.373c2.89-0.922,5.532-2.082,7.959-3.924c2.901-2.202,4.955-5.531,7.927-7.536
	c-1.319-0.85-2.639-1.702-3.958-2.552c3.683,7.066,15.735,7.968,22.081,4.904c3.286-1.587,5.917-5.365,4.294-9.025
	c-1.28-2.886-5.243-4.82-8.272-4.302c-3.002,0.514-5.404,3.084-5.054,6.189c0.22,1.956,1.635,3.641,2.876,5.052
	c1.833,2.081,2.502,4.695,3.219,7.361c1.659,6.163-2.818,9.419-8.124,10.647c-2.137,0.494-4.339,0.715-6.529,0.715
	c-1.116,0-2.215-0.139-3.304-0.37c-0.436-0.091-0.886-0.222-1.289-0.416c0.995,0.479,0.274-0.021,0.108-0.891
	c-1.119-5.859,7.582-8.23,11.639-9.209c6.482-1.563,13.237-1.978,19.876-2.297c0.971-0.048,1.942-0.09,2.914-0.139
	c0.499-0.025,0.971-0.07,1.468-0.143c0.461-0.087,0.921-0.169,1.382-0.25c0.229-0.029,0.456-0.058,0.685-0.086
	c-1.009-1.543-1.503-1.55-1.482-0.021c-0.207,0.788-0.629,1.502-1.26,2.009c-0.346,0.266-0.729,0.423-1.151,0.472
	c3.151-0.632,2.914,3.611,2.721,1.204c-0.117-1.437,0.329-2.992,0.843-4.321c0.773-2.001,2.842-3.778,4.521-5.01
	c1.428-1.049,5.111-2.695,6.802-1.233c3.042,2.631,4.55,4.809,3.878,9.086c-0.18,1.143,3.957,3.544,4.1,2.637
	c0.858-5.454-2.066-8.423-5.869-11.729c-4.535-3.944-9.297-4.857-14.166-0.836c-2.604,2.151-6.252,7.974-3.151,11.184
	c1.203,1.243,3.017,2.719,4.809,1.972c2.052-0.854,2.884-3.914,1.537-5.645c-3.104-3.988-7.131-2.603-11.42-2.404
	c-4.375,0.203-8.745,0.482-13.095,1.017c-5.884,0.722-19.292,2.108-19.729,10.183c-0.186,3.42,3.411,6.171,6.232,7.334
	c3.642,1.5,7.751,1.289,11.555,0.616c3.886-0.688,7.264-1.915,9.306-5.511c2.016-3.547-0.377-10.215-2.487-13.363
	c-1.172-1.75-2.878-2.76-3.313-4.976c-0.286-1.459,0.364-2.809,1.329-3.856c0.944-1.028,2.288-1.583,3.638-1.815
	c0.339-0.058,0.683-0.059,1.024-0.057c1.283,0.005,0.311,0.816-0.654-0.867c0.401,0.7,0.314,1.669,0.241,2.433
	c-0.405,4.256-5.328,6.265-8.905,6.848c-2.072,0.337-4.206,0.268-6.275-0.038c-1.008-0.148-2.009-0.393-2.97-0.728
	c-0.383-0.134-0.747-0.297-1.106-0.483c0.271,0.141,0.758,0.877,0.421,0.231c-0.422-0.809-2.926-3.25-3.958-2.552
	c-1.989,1.342-3.447,3.479-5.182,5.141c-2.235,2.143-4.582,3.92-7.464,5.089c-2.068,0.84-4.203,1.51-6.376,2.022
	c-1.19,0.28-2.402,0.437-3.62,0.523c-0.576,0.033-1.15,0.022-1.725-0.033c-0.667-0.059-2.048-0.918-0.757,0.136
	c0.301,0.577,0.602,1.152,0.902,1.728c2.453-0.893,5.375-0.589,7.445-2.392c2.268-1.976-0.13-4.315-1.726-5.52
	c-2.35-1.771-5.167-2.95-7.841-4.133c-2.58-1.143-6.006-2.045-8.217-3.539c0.729,0.749,1.459,1.498,2.189,2.247
	c-0.077-0.674,1.422-0.756,1.794-0.787c1.639-0.135,0.156,1.004-1.002-1.182c0.421,0.795,0.229,2.05,0.074,2.878
	c-0.451,2.413-1.798,4.666-3.258,6.597c-3.707,4.903-9.07,6.167-14.974,5.315c-1.562-0.226-0.896-0.853-0.008,0.633
	c-0.256-0.43-0.202-1.066-0.189-1.539c0.037-1.44,0.832-2.958,1.654-4.104c1.445-2.012,3.7-4.265,6.228-4.668
	c-0.365-0.316-0.729-0.631-1.095-0.947c0.211,0.392,0.344,0.807,0.397,1.245c0.109,0.584-0.204,1.063-0.563,1.478
	c-0.727,0.843-2.114,1.065-3.144,1.264c-2.136,0.414-4.355,0.333-6.521,0.324c-0.803-0.003,0.826,1.661,0.902,1.728
	C52.306,37.643,53.354,38.502,54.358,38.506L54.358,38.506z"/>
<path fill="#3F8FD8" d="M104.487,15.943c-1.568,0.407-3.485,1.045-4.581,2.303c-1.803,2.07,2.998,4.883,4.391,5.484
	c1.784,0.771,3.286,0.314,4.063-1.5c0.665-1.554,0.733-3.632-0.095-5.133c-0.539-0.978-1.646-1.759-2.606-2.271
	c-0.31-0.164-1.818-0.771-1.284,0.2c0.873,1.582,0.423,5.37-1.649,5.872c-0.138,0.034-0.339,0.06-0.476,0.013
	c0.633,0.216,1.42,1.996,1.394,0.927c-0.012-0.498,0.72-0.997,1.062-1.241c1-0.714,2.267-1.134,3.448-1.44
	c0.782-0.203-0.726-1.572-0.902-1.728C106.704,16.951,105.33,15.725,104.487,15.943L104.487,15.943z"/>
<path fill="#3F8FD8" d="M16.156,15.94c4.169,4.791,6.489,11.02,7.925,17.127c1.392,5.927,1.924,12.637-0.292,18.426
	c-0.468,1.22,3.807,3.604,4.026,3.033c2.384-6.228,1.676-13.247,0.182-19.598c-1.477-6.288-4.143-12.703-8.416-17.613
	c-0.774-0.891-1.739-1.701-2.847-2.146C15.93,14.847,15.537,15.227,16.156,15.94L16.156,15.94z"/>
<path fill="#3F8FD8" d="M16.94,22.84c0.033-7.213,8.438-7.193,13.706-6.524c5.642,0.717,14.329,2.034,17.385,7.422
	c2.34,4.126,2.023,9.305-0.24,13.358c-1.888,3.38-5.511,4.666-9.05,5.637c-4.234,1.163-8.673,1.638-13.044,1.901
	c-3.341,0.202-7.559,0.675-10.827-0.248c0.647,0.347,1.294,0.694,1.941,1.04c-0.017-0.014-0.035-0.026-0.052-0.04
	c0.547,0.62,1.094,1.241,1.641,1.861c-0.184-0.502,2.567-2.087,2.959-2.332c2.678-1.671,5.579-2.98,8.51-4.138
	c7.706-3.042,16.282-4.638,24.507-3.145c1.07,0.195,0.11-1.005-0.162-1.287c-0.73-0.755-1.829-1.685-2.901-1.881
	c-11.681-2.121-24.396,1.433-34.357,7.652c-0.873,0.545-2.018,1.182-2.592,2.072c-0.731,1.131,2.432,2.94,3.172,3.238
	c1.555,0.625,3.696,0.471,5.344,0.526c2.859,0.095,5.726-0.029,8.576-0.249c5.359-0.412,11.038-1.202,15.924-3.556
	c4.623-2.225,6.558-7.283,6.33-12.205c-0.461-10.015-10.25-14.841-18.628-17.219c-6.32-1.793-22.194-5.251-22.243,5.479
	C12.834,21.476,16.937,23.573,16.94,22.84L16.94,22.84z"/>
</svg>
