<?xml version="1.0" encoding="utf-8"?>
<!-- Generator: Adobe Illustrator 15.1.0, SVG Export Plug-In . SVG Version: 6.00 Build 0)  -->
<!DOCTYPE svg PUBLIC "-//W3C//DTD SVG 1.1//EN" "http://www.w3.org/Graphics/SVG/1.1/DTD/svg11.dtd">
<svg version="1.1" id="Layer_1" xmlns="http://www.w3.org/2000/svg" xmlns:xlink="http://www.w3.org/1999/xlink" x="0px" y="0px"
	 width="260px" height="86.833px" viewBox="0 0 260 86.833" enable-background="new 0 0 260 86.833" xml:space="preserve">
<g>
	<g>
		<g>
			<g enable-background="new    ">
				<path fill="#3F8FD8" d="M7.034,22.137h5.498v25.004H7.034V22.137z"/>
				<path fill="#3F8FD8" d="M17.364,22.137H28.15c1.611,0,3.111,0.258,4.5,0.771c1.389,0.515,2.592,1.284,3.607,2.312
					s1.809,2.312,2.381,3.853c0.572,1.54,0.858,3.35,0.858,5.427c0,1.82-0.233,3.502-0.7,5.043
					c-0.468,1.541-1.174,2.871-2.119,3.992s-2.124,2.002-3.537,2.645c-1.412,0.643-3.076,0.963-4.99,0.963H17.364V22.137z
					 M22.862,42.518h4.903c0.793,0,1.564-0.129,2.311-0.385c0.748-0.258,1.413-0.684,1.997-1.279c0.583-0.594,1.05-1.371,1.4-2.328
					s0.525-2.123,0.525-3.502c0-1.26-0.123-2.399-0.368-3.415c-0.245-1.015-0.647-1.885-1.208-2.608
					c-0.56-0.724-1.302-1.278-2.224-1.663c-0.922-0.386-2.061-0.578-3.414-0.578h-3.922V42.518z"/>
				<path fill="#3F8FD8" d="M43.313,22.137h18.7v4.623H48.811v5.357h12.116v4.272H48.811v6.129h13.482v4.623h-18.98V22.137z"/>
				<path fill="#3F8FD8" d="M72.834,22.137h5.638l9.351,25.004h-5.708l-1.892-5.568h-9.35l-1.961,5.568h-5.568L72.834,22.137z
					 M72.309,37.475h6.479l-3.151-9.174h-0.07L72.309,37.475z"/>
				<path fill="#3F8FD8" d="M89.992,22.137h5.498v9.596h10.121v-9.596h5.497v25.004h-5.497V36.354H95.49v10.787h-5.498V22.137z"/>
				<path fill="#3F8FD8" d="M122.771,22.137h5.638l9.351,25.004h-5.708l-1.892-5.568h-9.35l-1.961,5.568h-5.568L122.771,22.137z
					 M122.245,37.475h6.479l-3.151-9.174h-0.07L122.245,37.475z"/>
				<path fill="#3F8FD8" d="M156.598,30.542c-0.094-0.631-0.304-1.208-0.63-1.733c-0.327-0.525-0.735-0.986-1.226-1.384
					c-0.49-0.396-1.045-0.706-1.664-0.928c-0.618-0.222-1.267-0.333-1.943-0.333c-1.237,0-2.288,0.24-3.151,0.718
					c-0.864,0.479-1.564,1.121-2.102,1.927c-0.537,0.805-0.928,1.722-1.173,2.749s-0.367,2.089-0.367,3.187
					c0,1.051,0.122,2.072,0.367,3.064s0.636,1.885,1.173,2.678c0.537,0.795,1.237,1.43,2.102,1.908
					c0.863,0.479,1.914,0.719,3.151,0.719c1.681,0,2.994-0.52,3.939-1.559c0.946-1.039,1.523-2.387,1.733-4.045h5.323
					c-0.14,1.564-0.502,2.977-1.086,4.238c-0.583,1.26-1.354,2.334-2.311,3.221c-0.958,0.889-2.078,1.57-3.362,2.049
					s-2.696,0.719-4.237,0.719c-1.938,0-3.665-0.34-5.183-1.016c-1.518-0.678-2.802-1.6-3.852-2.768
					c-1.051-1.166-1.856-2.545-2.417-4.133c-0.56-1.586-0.84-3.279-0.84-5.076c0-1.844,0.28-3.573,0.84-5.183
					c0.561-1.611,1.366-3.012,2.417-4.202c1.05-1.191,2.334-2.125,3.852-2.802s3.245-1.016,5.183-1.016
					c1.378,0,2.679,0.198,3.905,0.595c1.226,0.397,2.322,0.976,3.291,1.734s1.769,1.698,2.399,2.818
					c0.63,1.121,1.026,2.405,1.19,3.853H156.598z"/>
				<path fill="#3F8FD8" d="M165.878,22.137h5.498v10.366l9.771-10.366h6.863l-9.77,9.876l10.716,15.128h-6.899l-7.528-11.242
					l-3.152,3.188v8.055h-5.498V22.137z"/>
			</g>
		</g>
		<g opacity="0.4">
			<g>
				<path fill="#3F8FD8" d="M234.475,63.292c-12.146,0-22.027-3.303-22.027-7.365s9.881-7.367,22.027-7.367
					c12.141,0,22.021,3.305,22.021,7.367S246.615,63.292,234.475,63.292z M234.475,49.05c-11.334,0-20.555,3.082-20.555,6.875
					c0,3.791,9.221,6.873,20.555,6.873c11.332,0,20.557-3.082,20.557-6.873C255.031,52.132,245.807,49.05,234.475,49.05z"/>
				<path fill="#3F8FD8" d="M228.43,63.292c-6.9,0-12.301-3.359-12.301-7.658s5.4-7.66,12.301-7.66
					c6.896,0,12.297,3.361,12.297,7.66S235.326,63.292,228.43,63.292z M228.43,48.464c-5.975,0-10.83,3.218-10.83,7.168
					c0,3.951,4.855,7.166,10.83,7.166c5.971,0,10.834-3.215,10.834-7.166C239.264,51.682,234.4,48.464,228.43,48.464z"/>
				<path fill="#3F8FD8" d="M232.633,62.532c-11.998,0-21.762-3.266-21.762-7.279s9.764-7.279,21.762-7.279
					c12,0,21.762,3.266,21.762,7.279S244.633,62.532,232.633,62.532z M232.633,48.464c-11.189,0-20.289,3.043-20.289,6.787
					c0,3.742,9.1,6.787,20.289,6.787c11.191,0,20.293-3.045,20.293-6.787C252.926,51.507,243.824,48.464,232.633,48.464z"/>
				<path fill="#3F8FD8" d="M223.59,62.948c-2.371,0-4.402-0.223-6.027-0.654c-2.92-0.783-4.123-2.143-3.379-3.838
					c0.721-1.648,3.193-3.426,6.967-5.008c5.492-2.299,12.931-3.781,18.965-3.781c2.371,0,4.4,0.221,6.029,0.656
					c5.9,1.574,4.285,5.543-3.594,8.846C237.063,61.46,229.621,62.948,223.59,62.948z M240.115,50.159
					c-5.607,0-12.599,1.41-17.814,3.598c-3.617,1.512-5.982,3.207-6.668,4.771c-0.656,1.514,0.35,2.715,2.844,3.383
					c1.359,0.361,3.082,0.547,5.113,0.547c5.6,0,12.596-1.412,17.816-3.6c7.373-3.088,9.088-6.742,3.819-8.152
					C243.865,50.343,242.146,50.159,240.115,50.159z"/>
				<path fill="#3F8FD8" d="M236.924,63.997c-12.721,0-23.078-3.461-23.078-7.719c0-4.252,10.357-7.719,23.078-7.719
					c12.727,0,23.076,3.467,23.076,7.719C260,60.536,249.65,63.997,236.924,63.997z M236.924,49.05
					c-11.912,0-21.605,3.242-21.605,7.228c0,3.986,9.693,7.229,21.605,7.229c11.916,0,21.607-3.243,21.607-7.229
					C258.531,52.293,248.84,49.05,236.924,49.05z"/>
				<path fill="#3F8FD8" d="M236.234,63.034c-11.084,0-20.104-3.016-20.104-6.725c0-3.711,9.021-6.728,20.104-6.728
					c11.09,0,20.109,3.017,20.109,6.728C256.344,60.018,247.324,63.034,236.234,63.034z M236.234,50.073
					c-10.274,0-18.635,2.797-18.635,6.236c0,3.438,8.359,6.231,18.635,6.231c10.277,0,18.642-2.795,18.642-6.231
					C254.875,52.87,246.512,50.073,236.234,50.073z"/>
				<path fill="#3F8FD8" d="M235.844,63.827c-12.35,0-22.525-3.33-22.688-7.42c-0.166-4.146,9.883-7.564,22.403-7.619h0.313
					c12.35,0,22.529,3.328,22.693,7.416c0.084,2.01-2.203,3.908-6.439,5.348c-4.234,1.438-9.902,2.248-15.965,2.275H235.844z
					 M235.873,49.278h-0.293c-11.711,0.055-21.113,3.25-20.957,7.123c0.152,3.82,9.672,6.932,21.221,6.932h0.297
					c5.676-0.025,10.982-0.783,14.941-2.127c3.953-1.344,6.092-3.117,6.016-4.994C256.943,52.387,247.426,49.278,235.873,49.278z"/>
				<path fill="#3F8FD8" d="M232.906,62.989c-4.978,0-9.527-0.604-12.808-1.711c-3.653-1.228-5.42-2.937-4.979-4.803
					c0.439-1.857,3.005-3.65,7.229-5.054c4.599-1.526,10.679-2.405,16.675-2.405c4.977,0,9.521,0.608,12.803,1.713
					c3.649,1.227,5.418,2.934,4.979,4.803c-0.436,1.855-3.006,3.648-7.227,5.055C244.98,62.114,238.9,62.989,232.906,62.989z
					 M239.023,49.505c-5.61,0-11.311,0.828-15.639,2.267c-3.973,1.319-6.391,3.004-6.799,4.742
					c-0.408,1.723,1.209,3.291,4.557,4.418c3.004,1.01,7.182,1.565,11.764,1.565c5.609,0,11.312-0.824,15.636-2.265
					c3.973-1.319,6.389-3.004,6.801-4.742c0.408-1.725-1.211-3.293-4.558-4.418C247.779,50.063,243.605,49.505,239.023,49.505z"/>
				<path fill="#3F8FD8" d="M225.389,59.794c-7.219,0-12.15-0.731-13.191-1.965c-1.655-1.957,6.998-4.435,19.701-5.634
					c4.254-0.403,8.543-0.614,12.408-0.614c7.223,0,12.154,0.735,13.195,1.967c0.822,0.968-0.854,2.093-4.717,3.162
					c-3.707,1.03-9.027,1.908-14.986,2.472C233.547,59.584,229.258,59.794,225.389,59.794z M244.307,52.077
					c-3.727,0-7.887,0.203-12.008,0.596c-11.514,1.088-20.072,3.389-18.688,5.025c0.84,0.992,5.352,1.607,11.776,1.607
					c3.736,0,7.89-0.205,12.011-0.597c5.768-0.543,10.896-1.39,14.448-2.373c3.332-0.929,4.884-1.896,4.244-2.653
					C255.248,52.692,250.734,52.077,244.307,52.077z"/>
				<path fill="#3F8FD8" d="M249.438,60.641L249.438,60.641c-5.377,0-12.074-0.673-18.379-1.854
					c-5.711-1.063-10.496-2.425-13.479-3.824c-3.096-1.448-3.904-2.787-2.273-3.765c1.447-0.864,4.715-1.348,9.201-1.348
					c5.377,0,12.076,0.68,18.379,1.855c12.148,2.273,19.068,5.605,15.754,7.59C257.189,60.163,253.926,60.641,249.438,60.641z
					 M224.508,50.346c-3.93,0-6.74,0.387-7.922,1.092c-1.332,0.803-0.561,1.955,2.189,3.242c2.86,1.34,7.479,2.647,13,3.68
					c6.088,1.141,12.53,1.791,17.662,1.791c3.932,0,6.741-0.392,7.918-1.094c2.817-1.687-4.14-4.855-15.187-6.92
					C236.08,50.997,229.641,50.346,224.508,50.346z"/>
				<path fill="#3F8FD8" d="M226.93,59.968c-6.361,0-10.963-0.733-12.623-2.021c-1.439-1.117-0.479-2.488,2.705-3.865
					c3.092-1.33,7.936-2.52,13.645-3.342c4.826-0.697,9.761-1.064,14.271-1.064c6.357,0,10.959,0.736,12.615,2.023
					c2.906,2.25-4.428,5.484-16.348,7.205C236.371,59.602,231.436,59.968,226.93,59.968z M244.928,50.167
					c-4.314,0-9.047,0.354-13.689,1.025c-5.484,0.789-10.123,1.926-13.064,3.192c-2.842,1.228-3.74,2.418-2.518,3.365
					c1.418,1.099,5.522,1.729,11.272,1.729c4.31,0,9.039-0.355,13.683-1.027c11.184-1.613,18.17-4.555,15.584-6.561
					C254.779,50.794,250.672,50.167,244.928,50.167z"/>
				<path fill="#3F8FD8" d="M249.387,62.395c-3.895,0-12.137-2.906-18.154-5.609c-3.856-1.734-7.059-3.473-9.02-4.891
					c-2.168-1.566-2.543-2.541-1.117-2.898c0.342-0.084,0.76-0.127,1.242-0.127c3.891,0,12.137,2.91,18.148,5.611
					c3.854,1.735,7.057,3.469,9.022,4.889c2.164,1.57,2.543,2.543,1.11,2.898C250.283,62.352,249.869,62.395,249.387,62.395z
					 M222.338,49.364c-0.16,0-0.281,0.006-0.361,0.027c-0.412,0.102-0.619,0.717,1.568,2.295c1.924,1.393,5.072,3.098,8.869,4.803
					c7.539,3.389,14.551,5.416,16.973,5.416c0.154,0,0.277-0.014,0.359-0.029c0.41-0.104,0.613-0.717-1.57-2.299
					c-1.918-1.387-5.072-3.098-8.865-4.803C231.768,51.387,224.756,49.364,222.338,49.364z"/>
				<path fill="#3F8FD8" d="M235.67,63.487c-6.754,0-12.043-3.287-12.043-7.482c0-4.199,5.289-7.486,12.043-7.486
					s12.045,3.287,12.045,7.486C247.715,60.2,242.424,63.487,235.67,63.487z M235.67,49.007c-5.832,0-10.576,3.14-10.576,6.996
					s4.744,6.992,10.576,6.992c5.83,0,10.576-3.136,10.576-6.992S241.5,49.007,235.67,49.007z"/>
				<path fill="#3F8FD8" d="M235.67,60.96c-9.939,0-18.023-2.125-18.023-4.735c0-2.613,8.084-4.738,18.023-4.738
					c9.938,0,18.023,2.125,18.023,4.738C253.693,58.835,245.607,60.96,235.67,60.96z M235.67,51.981
					c-9.131,0-16.553,1.903-16.553,4.244c0,2.34,7.422,4.241,16.553,4.241c9.129,0,16.553-1.901,16.553-4.241
					C252.223,53.884,244.799,51.981,235.67,51.981z"/>
				<path fill="#3F8FD8" d="M235.365,60.96c-11.865,0-21.521-2.431-21.521-5.416c0-2.983,9.654-5.414,21.521-5.414
					c11.854,0,21.502,2.431,21.502,5.414C256.867,58.532,247.219,60.96,235.365,60.96z M235.365,50.624
					c-11.058,0-20.047,2.205-20.047,4.922c0,2.715,8.989,4.922,20.047,4.922c11.047,0,20.039-2.207,20.039-4.922
					C255.404,52.829,246.412,50.624,235.365,50.624z"/>
				<path fill="#3F8FD8" d="M230.863,63.163c-0.957,0-1.863-0.061-2.687-0.188c-2.89-0.443-4.562-1.588-4.713-3.228
					c-0.142-1.576,1.14-3.438,3.606-5.252c4.392-3.222,11.447-5.472,17.168-5.472c0.955,0,1.859,0.064,2.687,0.189
					c2.892,0.441,4.563,1.588,4.709,3.223c0.146,1.578-1.135,3.441-3.604,5.258C243.639,60.913,236.582,63.163,230.863,63.163z
					 M244.24,49.518c-5.08,0-11.736,2.178-15.834,5.182c-2.375,1.744-3.609,3.531-3.474,5.033c0.132,1.442,1.5,2.436,3.853,2.791
					c0.635,0.1,1.332,0.146,2.078,0.146c5.084,0,11.735-2.181,15.83-5.179c2.377-1.75,3.608-3.534,3.473-5.038
					c-0.129-1.438-1.5-2.433-3.854-2.789C245.684,49.567,244.986,49.518,244.24,49.518z"/>
				<path fill="#3F8FD8" d="M217.805,59.848L217.805,59.848c-2.332,0-4.033-0.232-4.91-0.668c-1.428-0.709-0.522-1.853,2.549-3.224
					c2.912-1.297,7.474-2.683,12.83-3.894c7.58-1.711,15.463-2.77,20.572-2.77c2.334,0,4.033,0.229,4.91,0.666
					c2.83,1.402-3.924,4.527-15.379,7.113C230.797,58.782,222.916,59.848,217.805,59.848z M248.846,49.786
					c-4.832,0-12.396,1.027-19.748,2.688c-5.229,1.182-9.658,2.521-12.479,3.783c-2.629,1.17-3.545,2.137-2.506,2.648
					c0.75,0.371,2.422,0.449,3.69,0.449c4.834,0,12.399-1.027,19.748-2.687c11.49-2.597,17.029-5.42,14.985-6.435
					C251.795,49.864,250.119,49.786,248.846,49.786z"/>
				<path fill="#3F8FD8" d="M231.248,61.352c-6.268,0-11.359-2.578-11.359-5.746c0-3.17,5.092-5.744,11.359-5.744
					c6.271,0,11.365,2.574,11.365,5.744C242.613,58.774,237.52,61.352,231.248,61.352z M231.248,50.354
					c-5.457,0-9.895,2.354-9.895,5.252c0,2.897,4.438,5.252,9.895,5.252c5.459,0,9.896-2.354,9.896-5.252
					C241.145,52.708,236.707,50.354,231.248,50.354z"/>
			</g>
		</g>
		<g>
			<g>
				<path fill="#3F8FD8" d="M234.475,54.118c-12.146,0-22.027-9.881-22.027-22.025c0-12.144,9.881-22.022,22.027-22.022
					c12.141,0,22.021,9.879,22.021,22.022C256.496,44.237,246.615,54.118,234.475,54.118z M234.475,11.54
					c-11.334,0-20.555,9.216-20.555,20.553c0,11.335,9.221,20.559,20.555,20.559c11.332,0,20.557-9.224,20.557-20.559
					C255.031,20.755,245.807,11.54,234.475,11.54z"/>
				<path fill="#3F8FD8" d="M228.43,54.118c-6.9,0-12.301-10.057-12.301-22.9s5.4-22.9,12.301-22.9
					c6.896,0,12.297,10.057,12.297,22.9C240.727,44.061,235.326,54.118,228.43,54.118z M228.43,9.785
					c-5.975,0-10.83,9.616-10.83,21.433c0,11.814,4.855,21.434,10.83,21.434c5.971,0,10.834-9.619,10.834-21.434
					C239.264,19.4,234.4,9.785,228.43,9.785z"/>
				<path fill="#3F8FD8" d="M232.633,51.839c-11.998,0-21.762-9.767-21.762-21.764c0-11.998,9.764-21.759,21.762-21.759
					c12,0,21.762,9.761,21.762,21.759C254.395,42.075,244.633,51.839,232.633,51.839z M232.633,9.785
					c-11.189,0-20.289,9.104-20.289,20.291c0,11.194,9.1,20.293,20.289,20.293c11.191,0,20.293-9.101,20.293-20.293
					C252.926,18.89,243.824,9.785,232.633,9.785z"/>
				<path fill="#3F8FD8" d="M223.59,53.084c-2.371,0-4.402-0.658-6.027-1.959c-2.92-2.334-4.123-6.402-3.379-11.473
					c0.721-4.924,3.193-10.242,6.967-14.968c5.492-6.867,12.931-11.304,18.965-11.304c2.371,0,4.4,0.658,6.029,1.962
					c5.9,4.711,4.285,16.573-3.594,26.436C237.063,48.649,229.621,53.084,223.59,53.084z M240.115,14.847
					c-5.607,0-12.599,4.221-17.814,10.758c-3.617,4.523-5.982,9.589-6.668,14.265c-0.656,4.529,0.35,8.121,2.844,10.111
					c1.359,1.084,3.082,1.641,5.113,1.641c5.6,0,12.596-4.225,17.816-10.762c7.373-9.231,9.088-20.167,3.819-24.375
					C243.865,15.399,242.146,14.847,240.115,14.847z"/>
				<path fill="#3F8FD8" d="M236.924,56.221c-12.721,0-23.078-10.353-23.078-23.076c0-12.722,10.357-23.076,23.078-23.076
					C249.65,10.069,260,20.423,260,33.146C260,45.87,249.65,56.221,236.924,56.221z M236.924,11.54
					c-11.912,0-21.605,9.692-21.605,21.606c0,11.914,9.693,21.608,21.605,21.608c11.916,0,21.607-9.694,21.607-21.608
					C258.531,21.231,248.84,11.54,236.924,11.54z"/>
				<path fill="#3F8FD8" d="M236.234,53.341c-11.084,0-20.104-9.021-20.104-20.114c0-11.084,9.021-20.099,20.104-20.099
					c11.09,0,20.109,9.015,20.109,20.099C256.344,44.323,247.324,53.341,236.234,53.341z M236.234,14.595
					c-10.274,0-18.635,8.364-18.635,18.634c0,10.284,8.359,18.645,18.635,18.645c10.277,0,18.642-8.361,18.642-18.645
					C254.875,22.958,246.512,14.595,236.234,14.595z"/>
				<path fill="#3F8FD8" d="M235.844,55.708c-12.35,0-22.525-9.947-22.688-22.178c-0.166-12.391,9.883-22.608,22.403-22.777h0.313
					c12.35,0,22.529,9.943,22.693,22.166c0.084,6.012-2.203,11.689-6.439,15.986c-4.234,4.307-9.902,6.719-15.965,6.803H235.844z
					 M235.873,12.22h-0.293c-11.711,0.162-21.113,9.714-20.957,21.292c0.152,11.426,9.672,20.727,21.221,20.727h0.297
					c5.676-0.08,10.982-2.338,14.941-6.363c3.953-4.02,6.092-9.32,6.016-14.93C256.943,21.516,247.426,12.22,235.873,12.22z"/>
				<path fill="#3F8FD8" d="M232.906,53.21c-4.978,0-9.527-1.813-12.808-5.117c-3.653-3.672-5.42-8.771-4.979-14.363
					c0.439-5.54,3.005-10.906,7.229-15.102c4.599-4.567,10.679-7.197,16.675-7.197c4.977,0,9.521,1.819,12.803,5.124
					c3.649,3.666,5.418,8.773,4.979,14.358c-0.436,5.545-3.006,10.903-7.227,15.108C244.98,50.591,238.9,53.21,232.906,53.21z
					 M239.023,12.902c-5.61,0-11.311,2.467-15.639,6.771c-3.973,3.947-6.391,8.982-6.799,14.18
					c-0.408,5.148,1.209,9.838,4.557,13.206c3.004,3.021,7.182,4.686,11.764,4.686c5.609,0,11.312-2.463,15.636-6.766
					c3.973-3.953,6.389-8.99,6.801-14.183c0.408-5.151-1.211-9.846-4.558-13.21C247.779,14.566,243.605,12.902,239.023,12.902z"/>
				<path fill="#3F8FD8" d="M225.389,43.665c-7.219,0-12.15-2.193-13.191-5.875c-1.655-5.857,6.998-13.253,19.701-16.842
					c4.254-1.206,8.543-1.84,12.408-1.84c7.223,0,12.154,2.2,13.195,5.88c0.822,2.893-0.854,6.253-4.717,9.462
					c-3.707,3.072-9.027,5.693-14.986,7.377C233.547,43.03,229.258,43.665,225.389,43.665z M244.307,20.579
					c-3.727,0-7.887,0.618-12.008,1.782c-11.514,3.254-20.072,10.134-18.688,15.031c0.84,2.963,5.352,4.805,11.776,4.805
					c3.736,0,7.89-0.617,12.011-1.781c5.768-1.625,10.896-4.15,14.448-7.097c3.332-2.771,4.884-5.662,4.244-7.937
					C255.248,22.423,250.734,20.579,244.307,20.579z"/>
				<path fill="#3F8FD8" d="M249.438,46.194L249.438,46.194c-5.377,0-12.074-2.017-18.379-5.541
					c-5.711-3.189-10.496-7.251-13.479-11.436c-3.096-4.339-3.904-8.337-2.273-11.252c1.447-2.596,4.715-4.021,9.201-4.021
					c5.377,0,12.076,2.021,18.379,5.54c12.148,6.789,19.068,16.75,15.754,22.69C257.189,44.762,253.926,46.194,249.438,46.194z
					 M224.508,15.412c-3.93,0-6.74,1.16-7.922,3.265c-1.332,2.396-0.561,5.841,2.189,9.688c2.86,4.009,7.479,7.917,13,11.001
					c6.088,3.406,12.53,5.361,17.662,5.361c3.932,0,6.741-1.164,7.918-3.272c2.817-5.041-4.14-14.512-15.187-20.69
					C236.08,17.363,229.641,15.412,224.508,15.412z"/>
				<path fill="#3F8FD8" d="M226.93,44.182c-6.361,0-10.963-2.205-12.623-6.052c-1.439-3.338-0.479-7.436,2.705-11.542
					c3.092-3.98,7.936-7.537,13.645-9.999c4.826-2.09,9.761-3.187,14.271-3.187c6.357,0,10.959,2.204,12.615,6.055
					c2.906,6.725-4.428,16.385-16.348,21.538C236.371,43.079,231.436,44.182,226.93,44.182z M244.928,14.873
					c-4.314,0-9.047,1.06-13.689,3.068c-5.483,2.362-10.123,5.759-13.063,9.547c-2.842,3.663-3.739,7.236-2.519,10.059
					c1.418,3.283,5.523,5.166,11.273,5.166c4.309,0,9.039-1.063,13.682-3.067c11.185-4.826,18.17-13.619,15.584-19.61
					C254.779,16.757,250.672,14.873,244.928,14.873z"/>
				<path fill="#3F8FD8" d="M249.387,51.438c-3.895,0-12.137-8.693-18.154-16.779c-3.856-5.181-7.059-10.372-9.02-14.616
					c-2.168-4.685-2.543-7.599-1.117-8.662c0.342-0.251,0.76-0.38,1.242-0.38c3.891,0,12.137,8.697,18.148,16.771
					c3.854,5.182,7.057,10.372,9.022,14.624c2.164,4.682,2.543,7.596,1.11,8.66C250.283,51.307,249.869,51.438,249.387,51.438z
					 M222.338,12.473c-0.16,0-0.281,0.026-0.361,0.093c-0.412,0.301-0.619,2.132,1.568,6.856c1.924,4.162,5.072,9.259,8.869,14.358
					c7.539,10.131,14.551,16.189,16.973,16.189c0.154,0,0.277-0.034,0.359-0.09c0.41-0.313,0.613-2.142-1.57-6.866
					c-1.918-4.16-5.072-9.261-8.865-14.362C231.768,18.527,224.756,12.473,222.338,12.473z"/>
				<path fill="#3F8FD8" d="M235.67,54.7c-6.754,0-12.043-9.832-12.043-22.377c0-12.546,5.289-22.373,12.043-22.373
					s12.045,9.827,12.045,22.373C247.715,44.868,242.424,54.7,235.67,54.7z M235.67,11.414c-5.832,0-10.576,9.385-10.576,20.908
					c0,11.527,4.744,20.906,10.576,20.906c5.83,0,10.576-9.379,10.576-20.906C246.246,20.798,241.5,11.414,235.67,11.414z"/>
				<path fill="#3F8FD8" d="M235.67,47.141c-9.939,0-18.023-6.349-18.023-14.157c0-7.805,8.084-14.155,18.023-14.155
					c9.938,0,18.023,6.351,18.023,14.155C253.693,40.793,245.607,47.141,235.67,47.141z M235.67,20.3
					c-9.131,0-16.553,5.691-16.553,12.685c0,6.998,7.422,12.691,16.553,12.691c9.129,0,16.553-5.693,16.553-12.691
					C252.223,25.991,244.799,20.3,235.67,20.3z"/>
				<path fill="#3F8FD8" d="M235.365,47.141c-11.865,0-21.521-7.261-21.521-16.188c0-8.922,9.654-16.186,21.521-16.186
					c11.854,0,21.502,7.264,21.502,16.186C256.867,39.88,247.219,47.141,235.365,47.141z M235.365,16.234
					c-11.058,0-20.047,6.6-20.047,14.719c0,8.113,8.989,14.722,20.047,14.722c11.047,0,20.039-6.608,20.039-14.722
					C255.404,22.834,246.412,16.234,235.365,16.234z"/>
				<path fill="#3F8FD8" d="M230.863,53.729c-0.957,0-1.863-0.188-2.687-0.564c-2.89-1.32-4.562-4.742-4.713-9.637
					c-0.142-4.715,1.14-10.292,3.606-15.705c4.392-9.63,11.447-16.359,17.168-16.359c0.955,0,1.859,0.192,2.687,0.565
					c2.892,1.322,4.563,4.742,4.709,9.637c0.146,4.715-1.135,10.288-3.604,15.708C243.639,47.003,236.582,53.729,230.863,53.729z
					 M244.24,12.938c-5.08,0-11.736,6.514-15.834,15.488c-2.375,5.217-3.609,10.56-3.474,15.052c0.132,4.313,1.5,7.274,3.853,8.346
					c0.635,0.289,1.332,0.438,2.078,0.438c5.084,0,11.735-6.518,15.83-15.494c2.377-5.218,3.608-10.56,3.473-15.054
					c-0.129-4.302-1.5-7.27-3.854-8.343C245.684,13.083,244.986,12.938,244.24,12.938z"/>
				<path fill="#3F8FD8" d="M217.805,43.813L217.805,43.813c-2.332,0-4.033-0.689-4.91-1.996c-1.428-2.111-0.522-5.533,2.549-9.63
					c2.912-3.882,7.474-8.014,12.83-11.628c7.58-5.118,15.463-8.291,20.572-8.291c2.334,0,4.033,0.69,4.91,1.995
					c2.83,4.194-3.924,13.536-15.379,21.261C230.797,40.639,222.916,43.813,217.805,43.813z M248.846,13.739
					c-4.832,0-12.396,3.071-19.748,8.033c-5.229,3.524-9.658,7.54-12.479,11.299c-2.629,3.504-3.545,6.391-2.506,7.924
					c0.75,1.112,2.422,1.346,3.69,1.346c4.834,0,12.399-3.077,19.748-8.032c11.49-7.753,17.029-16.202,14.985-19.229
					C251.795,13.968,250.119,13.739,248.846,13.739z"/>
				<path fill="#3F8FD8" d="M231.248,48.311c-6.268,0-11.359-7.707-11.359-17.176c0-9.471,5.092-17.171,11.359-17.171
					c6.271,0,11.365,7.7,11.365,17.171C242.613,40.604,237.52,48.311,231.248,48.311z M231.248,15.434
					c-5.457,0-9.895,7.045-9.895,15.702c0,8.662,4.438,15.707,9.895,15.707c5.459,0,9.896-7.045,9.896-15.707
					C241.145,22.479,236.707,15.434,231.248,15.434z"/>
			</g>
		</g>
	</g>
</g>
</svg>
