<?xml version="1.0" encoding="utf-8"?>
<!-- Generator: Adobe Illustrator 15.1.0, SVG Export Plug-In . SVG Version: 6.00 Build 0)  -->
<!DOCTYPE svg PUBLIC "-//W3C//DTD SVG 1.1//EN" "http://www.w3.org/Graphics/SVG/1.1/DTD/svg11.dtd">
<svg version="1.1" id="Layer_1" xmlns="http://www.w3.org/2000/svg" xmlns:xlink="http://www.w3.org/1999/xlink" x="0px" y="0px"
	 width="58.701px" height="35.74px" viewBox="0 0 58.701 35.74" enable-background="new 0 0 58.701 35.74" xml:space="preserve">
<g>
	<path fill="#3F8FD8" d="M1.095,34.709c-0.602-0.641-0.901-1.408-0.901-2.305c0-0.896,0.3-1.664,0.901-2.304
		c0.601-0.64,1.348-0.96,2.242-0.96c0.832,0,1.556,0.32,2.172,0.96c0.617,0.64,0.925,1.408,0.925,2.304
		c0,0.864-0.308,1.625-0.925,2.28c-0.616,0.656-1.34,0.983-2.172,0.983C2.442,35.668,1.695,35.349,1.095,34.709z"/>
	<path fill="#3F8FD8" d="M6.289,2.885c0-0.736,0.424-1.352,1.272-1.848c0.847-0.496,1.735-0.744,2.664-0.744
		c1.183,0,1.888,0.416,2.112,1.248l7.344,26.016l7.296-26.016c0.223-0.832,0.928-1.248,2.112-1.248c0.896,0,1.776,0.256,2.64,0.768
		c0.864,0.512,1.296,1.12,1.296,1.824c0,0.064-0.032,0.224-0.096,0.48l-9.216,30.192c-0.192,0.672-0.672,1.192-1.44,1.56
		c-0.768,0.368-1.632,0.552-2.592,0.552c-2.208,0-3.552-0.703-4.032-2.111L6.385,3.365C6.32,3.109,6.289,2.949,6.289,2.885z"/>
	<path fill="#3F8FD8" d="M36.001,24.676V11.285c0-3.775,1.024-6.552,3.072-8.328c2.047-1.776,4.72-2.664,8.015-2.664
		c3.361,0,6.104,0.833,8.232,2.496c2.128,1.664,3.192,3.872,3.192,6.624c0,1.184-0.24,1.992-0.72,2.424
		c-0.48,0.432-1.281,0.648-2.4,0.648c-2.049,0-3.088-0.655-3.12-1.968c-0.032-0.416-0.071-0.776-0.12-1.08
		c-0.048-0.304-0.176-0.704-0.384-1.2c-0.208-0.496-0.473-0.912-0.792-1.248c-0.32-0.336-0.801-0.624-1.439-0.864
		c-0.641-0.24-1.393-0.36-2.256-0.36c-3.361,0-5.041,1.841-5.041,5.52v13.392c0,3.681,1.712,5.521,5.137,5.521
		c1.023,0,1.879-0.159,2.567-0.479s1.184-0.775,1.488-1.369c0.304-0.591,0.511-1.119,0.624-1.584
		c0.111-0.463,0.184-1.031,0.216-1.703c0.097-1.313,1.12-1.969,3.072-1.969c1.12,0,1.927,0.217,2.424,0.648
		c0.495,0.432,0.744,1.24,0.744,2.424c0,2.881-1.064,5.184-3.192,6.912c-2.129,1.729-4.889,2.592-8.279,2.592
		c-3.297,0-5.961-0.888-7.993-2.664C37.017,31.229,36.001,28.454,36.001,24.676z"/>
</g>
</svg>
