<?xml version="1.0" encoding="utf-8"?>
<!-- Generator: Adobe Illustrator 15.1.0, SVG Export Plug-In . SVG Version: 6.00 Build 0)  -->
<!DOCTYPE svg PUBLIC "-//W3C//DTD SVG 1.1//EN" "http://www.w3.org/Graphics/SVG/1.1/DTD/svg11.dtd">
<svg version="1.1" id="Layer_1" xmlns="http://www.w3.org/2000/svg" xmlns:xlink="http://www.w3.org/1999/xlink" x="0px" y="0px"
	 width="144.667px" height="86.833px" viewBox="0 0 144.667 86.833" enable-background="new 0 0 144.667 86.833"
	 xml:space="preserve">
<rect x="0.006" fill="#FFFFFF" width="144.661" height="86.833"/>
<g>
	<path fill="#303030" d="M1.673,45.868L3.73,22.353h4.354c0.438,0,0.795,0.098,1.073,0.295c0.278,0.197,0.459,0.491,0.546,0.883
		l0.274,1.271c0.429-0.408,0.87-0.783,1.322-1.123c0.454-0.34,0.938-0.635,1.45-0.883c0.512-0.25,1.059-0.446,1.64-0.59
		c0.578-0.145,1.209-0.217,1.889-0.217c1.421,0,2.564,0.367,3.431,1.1c0.863,0.734,1.485,1.713,1.862,2.938
		c0.455-0.727,0.991-1.346,1.602-1.859c0.611-0.515,1.262-0.93,1.946-1.247s1.4-0.552,2.147-0.703
		c0.746-0.151,1.482-0.228,2.208-0.228c1.345,0,2.522,0.202,3.529,0.602c1.009,0.4,1.831,0.982,2.467,1.746
		c0.637,0.764,1.087,1.7,1.353,2.812c0.266,1.11,0.337,2.368,0.213,3.775L35.73,45.868h-7.029l1.309-14.944
		c0.212-2.435-0.724-3.651-2.812-3.651c-0.951,0-1.769,0.314-2.451,0.941s-1.075,1.531-1.178,2.71l-1.308,14.944h-7.028
		l1.308-14.944c0.117-1.346-0.064-2.29-0.546-2.834s-1.236-0.817-2.265-0.817c-0.634,0-1.248,0.145-1.841,0.432
		c-0.591,0.287-1.158,0.672-1.697,1.156L8.703,45.868H1.673z"/>
	<path fill="#303030" d="M51.015,21.989c1.784,0,3.385,0.28,4.803,0.84c1.417,0.56,2.604,1.359,3.564,2.403
		c0.959,1.044,1.665,2.31,2.116,3.798c0.451,1.489,0.596,3.164,0.434,5.021c-0.165,1.875-0.603,3.564-1.316,5.068
		c-0.713,1.504-1.642,2.781-2.784,3.832c-1.144,1.051-2.473,1.86-3.988,2.426c-1.515,0.567-3.165,0.853-4.948,0.853
		c-1.799,0-3.411-0.283-4.834-0.853c-1.426-0.564-2.624-1.375-3.598-2.426c-0.974-1.051-1.686-2.328-2.137-3.832
		c-0.451-1.504-0.594-3.193-0.429-5.068c0.163-1.856,0.6-3.531,1.312-5.021c0.714-1.488,1.646-2.754,2.804-3.798
		c1.158-1.044,2.497-1.844,4.02-2.403S49.216,21.989,51.015,21.989z M49.351,41.015c1.617,0,2.857-0.571,3.722-1.713
		c0.863-1.141,1.396-2.877,1.6-5.203c0.203-2.328-0.027-4.059-0.691-5.192c-0.664-1.135-1.805-1.701-3.422-1.701
		c-1.662,0-2.929,0.566-3.801,1.701c-0.869,1.134-1.405,2.864-1.609,5.192c-0.203,2.326,0.029,4.063,0.701,5.203
		C46.522,40.443,47.688,41.015,49.351,41.015z"/>
	<path fill="#303030" d="M78.72,45.868c-0.667,0-1.16-0.093-1.485-0.271c-0.323-0.184-0.573-0.561-0.75-1.135l-0.387-1.293
		c-0.632,0.5-1.238,0.938-1.813,1.315c-0.578,0.379-1.171,0.698-1.775,0.963c-0.604,0.268-1.241,0.461-1.909,0.592
		c-0.67,0.129-1.405,0.191-2.205,0.191c-1.073,0-2.037-0.143-2.889-0.422c-0.853-0.28-1.562-0.693-2.126-1.24
		c-0.564-0.545-0.977-1.224-1.237-2.035c-0.263-0.812-0.349-1.747-0.254-2.809c0.073-0.834,0.358-1.691,0.859-2.57
		c0.5-0.88,1.304-1.68,2.408-2.399c1.107-0.722,2.565-1.323,4.377-1.81c1.811-0.484,4.062-0.729,6.752-0.729l0.088-1.007
		c0.121-1.388-0.074-2.39-0.586-3.009c-0.516-0.619-1.291-0.928-2.336-0.928c-0.832,0-1.521,0.092-2.063,0.273
		c-0.545,0.181-1.036,0.385-1.471,0.612c-0.436,0.226-0.858,0.431-1.267,0.611c-0.408,0.182-0.886,0.272-1.43,0.272
		c-0.484,0-0.885-0.117-1.204-0.352c-0.32-0.234-0.563-0.525-0.729-0.873l-1.077-2.199c1.529-1.254,3.188-2.188,4.972-2.801
		c1.784-0.611,3.667-0.918,5.646-0.918c1.42,0,2.683,0.23,3.782,0.691c1.101,0.462,2.013,1.104,2.733,1.928
		c0.721,0.824,1.244,1.803,1.566,2.936c0.325,1.135,0.428,2.374,0.311,3.72l-1.286,14.692H78.72V45.868z M71.022,41.58
		c0.908,0,1.715-0.158,2.424-0.476c0.707-0.317,1.44-0.832,2.197-1.541l0.282-3.222c-1.405,0-2.571,0.093-3.494,0.275
		c-0.923,0.182-1.661,0.411-2.212,0.686c-0.555,0.275-0.949,0.589-1.183,0.939c-0.235,0.352-0.37,0.731-0.406,1.143
		c-0.071,0.811,0.099,1.377,0.508,1.705C69.548,41.417,70.176,41.58,71.022,41.58z"/>
	<path fill="#303030" d="M84.005,53.327l2.709-30.975h4.354c0.438,0,0.799,0.098,1.075,0.295c0.274,0.197,0.459,0.491,0.544,0.883
		l0.371,1.725c0.497-0.498,1.023-0.952,1.582-1.359c0.559-0.408,1.146-0.76,1.771-1.056c0.623-0.294,1.284-0.524,1.985-0.691
		c0.703-0.166,1.463-0.249,2.278-0.249c1.226,0,2.336,0.272,3.328,0.816c0.996,0.544,1.826,1.33,2.494,2.357
		c0.664,1.029,1.147,2.287,1.449,3.775c0.299,1.489,0.367,3.18,0.202,5.067c-0.155,1.77-0.545,3.4-1.166,4.897
		c-0.622,1.497-1.423,2.797-2.405,3.899c-0.979,1.104-2.113,1.965-3.397,2.584c-1.287,0.621-2.679,0.932-4.175,0.932
		c-1.225,0-2.237-0.176-3.039-0.521c-0.803-0.348-1.516-0.814-2.145-1.406l-0.789,9.023h-7.029v0.004H84.005z M97.759,27.273
		c-0.516,0-0.983,0.051-1.407,0.148c-0.427,0.098-0.821,0.237-1.192,0.419c-0.373,0.182-0.722,0.411-1.048,0.692
		c-0.325,0.279-0.657,0.6-0.991,0.963l-0.873,9.975c0.479,0.592,1.018,1.004,1.615,1.238c0.6,0.233,1.239,0.352,1.92,0.352
		c0.648,0,1.26-0.129,1.823-0.385c0.567-0.258,1.075-0.67,1.524-1.236c0.451-0.566,0.83-1.305,1.136-2.211
		c0.308-0.907,0.517-2.01,0.631-3.311c0.106-1.241,0.108-2.283,0.001-3.13c-0.105-0.847-0.301-1.529-0.581-2.052
		c-0.278-0.521-0.635-0.896-1.067-1.121C98.815,27.388,98.318,27.273,97.759,27.273z"/>
	<path fill="#303030" d="M107.951,53.327l2.709-30.975h4.354c0.438,0,0.796,0.098,1.073,0.295c0.275,0.197,0.459,0.491,0.545,0.883
		l0.371,1.725c0.498-0.498,1.024-0.952,1.582-1.359c0.559-0.408,1.146-0.76,1.771-1.056c0.622-0.294,1.284-0.524,1.985-0.691
		c0.703-0.166,1.463-0.249,2.279-0.249c1.225,0,2.336,0.272,3.33,0.816s1.824,1.33,2.49,2.357c0.665,1.029,1.146,2.287,1.449,3.775
		c0.3,1.489,0.365,3.18,0.201,5.067c-0.153,1.77-0.543,3.4-1.163,4.897c-0.623,1.497-1.425,2.797-2.406,3.899
		c-0.979,1.104-2.112,1.965-3.397,2.584c-1.287,0.621-2.679,0.932-4.174,0.932c-1.227,0-2.238-0.176-3.039-0.521
		c-0.803-0.348-1.518-0.814-2.145-1.406l-0.79,9.023h-7.026V53.327L107.951,53.327z M121.703,27.273
		c-0.515,0-0.981,0.051-1.406,0.148c-0.426,0.098-0.821,0.237-1.192,0.419c-0.371,0.182-0.722,0.411-1.047,0.692
		c-0.327,0.279-0.656,0.6-0.99,0.963l-0.874,9.975c0.479,0.592,1.016,1.004,1.615,1.238c0.6,0.233,1.238,0.352,1.919,0.352
		c0.649,0,1.26-0.129,1.823-0.385c0.566-0.258,1.074-0.67,1.525-1.236c0.45-0.566,0.829-1.305,1.135-2.211
		c0.308-0.907,0.518-2.01,0.631-3.311c0.107-1.241,0.109-2.283,0.002-3.13c-0.105-0.847-0.303-1.529-0.58-2.052
		c-0.279-0.521-0.637-0.896-1.069-1.121C122.759,27.388,122.262,27.273,121.703,27.273z"/>
	<path fill="#3F8FD8" d="M143.239,15.913c-0.049,0.56-0.208,1.085-0.477,1.576c-0.271,0.491-0.618,0.922-1.044,1.293
		c-0.426,0.37-0.909,0.664-1.449,0.883c-0.54,0.221-1.104,0.33-1.695,0.33c-0.574,0-1.101-0.109-1.58-0.33
		c-0.479-0.219-0.896-0.513-1.25-0.883c-0.353-0.371-0.617-0.802-0.793-1.293c-0.179-0.491-0.238-1.017-0.191-1.576
		c0.052-0.574,0.207-1.109,0.472-1.609c0.265-0.498,0.604-0.938,1.021-1.314c0.418-0.378,0.888-0.674,1.403-0.886
		c0.519-0.21,1.063-0.317,1.638-0.317c0.59,0,1.138,0.107,1.641,0.317c0.503,0.212,0.936,0.508,1.295,0.886
		c0.357,0.377,0.631,0.816,0.814,1.314C143.223,14.804,143.291,15.339,143.239,15.913z"/>
	<path fill="#303030" d="M141.339,22.853c-0.996,0.404-2.036,0.605-3.125,0.605c-1.061,0-2.028-0.201-2.916-0.605
		c-0.174-0.08-0.322-0.205-0.486-0.296l-2.039,23.277h7.027l2.035-23.249C141.669,22.667,141.516,22.782,141.339,22.853z"/>
</g>
</svg>
