<?xml version="1.0" encoding="utf-8"?>
<!-- Generator: Adobe Illustrator 15.1.0, SVG Export Plug-In . SVG Version: 6.00 Build 0)  -->
<!DOCTYPE svg PUBLIC "-//W3C//DTD SVG 1.1//EN" "http://www.w3.org/Graphics/SVG/1.1/DTD/svg11.dtd">
<svg version="1.1" id="Layer_1" xmlns="http://www.w3.org/2000/svg" xmlns:xlink="http://www.w3.org/1999/xlink" x="0px" y="0px"
	 width="276px" height="324px" viewBox="0 0 276 324" enable-background="new 0 0 276 324" xml:space="preserve">
<g>
	<path fill="#666666" d="M151.068,17.576v-1.855c0-0.81,0.283-1.501,0.849-2.071c0.564-0.571,1.242-0.856,2.031-0.856
		c0.49,0,0.92,0.115,1.288,0.344c0.367,0.229,0.646,0.52,0.84,0.871V8.522c0-0.096,0.036-0.176,0.111-0.24
		c0.075-0.064,0.171-0.096,0.288-0.096c0.107,0,0.198,0.032,0.271,0.096c0.075,0.063,0.112,0.144,0.112,0.24v11.565
		c0,0.097-0.037,0.179-0.112,0.248c-0.073,0.07-0.164,0.104-0.271,0.104c-0.106,0-0.198-0.038-0.272-0.112
		c-0.074-0.075-0.111-0.155-0.111-0.241V19.32c-0.181,0.341-0.472,0.629-0.871,0.864c-0.401,0.235-0.835,0.352-1.305,0.352
		c-0.757,0-1.421-0.299-1.992-0.896C151.354,19.042,151.068,18.354,151.068,17.576z M151.854,17.576c0,0.576,0.213,1.09,0.639,1.543
		c0.427,0.454,0.924,0.681,1.488,0.681c0.544,0,1.028-0.203,1.455-0.608s0.641-0.762,0.641-1.072v-2.399
		c0-0.65-0.212-1.178-0.632-1.583c-0.422-0.406-0.904-0.608-1.448-0.608c-0.576,0-1.077,0.224-1.504,0.672
		c-0.426,0.448-0.639,0.954-0.639,1.52V17.576z"/>
	<path fill="#666666" d="M158.684,17.576v-1.904c0-0.789,0.288-1.466,0.863-2.032c0.575-0.565,1.269-0.847,2.079-0.847
		c0.785,0,1.464,0.277,2.037,0.832c0.572,0.554,0.858,1.243,0.858,2.064c0,0.287-0.034,0.52-0.104,0.695
		c-0.069,0.176-0.178,0.302-0.327,0.377c-0.148,0.074-0.283,0.119-0.407,0.135c-0.121,0.017-0.294,0.025-0.517,0.025h-3.7v0.671
		c0,0.672,0.24,1.211,0.72,1.616c0.48,0.405,1.098,0.607,1.855,0.607c0.384,0,0.708-0.053,0.974-0.16
		c0.267-0.107,0.469-0.213,0.607-0.32c0.138-0.106,0.245-0.16,0.319-0.16c0.094,0,0.177,0.042,0.249,0.127
		c0.073,0.086,0.111,0.171,0.111,0.256c0,0.203-0.221,0.416-0.66,0.641c-0.441,0.224-0.985,0.335-1.632,0.335
		c-0.982,0-1.781-0.272-2.399-0.815C158.992,19.176,158.684,18.461,158.684,17.576z M159.467,16.264h3.407
		c0.361,0,0.603-0.038,0.719-0.112c0.119-0.075,0.177-0.229,0.177-0.463c0-0.565-0.202-1.072-0.608-1.52
		c-0.404-0.448-0.917-0.671-1.535-0.671c-0.598,0-1.106,0.207-1.527,0.623c-0.421,0.417-0.632,0.912-0.632,1.488V16.264z"/>
	<path fill="#666666" d="M165.705,19.448c0-0.085,0.028-0.168,0.087-0.248c0.06-0.081,0.126-0.121,0.201-0.121
		c0.063-0.011,0.148,0.027,0.256,0.112l0.368,0.256c0.128,0.085,0.324,0.17,0.592,0.256c0.266,0.085,0.564,0.128,0.896,0.128
		c0.597,0,1.04-0.115,1.328-0.345c0.288-0.229,0.432-0.525,0.432-0.888c0-0.429-0.137-0.766-0.407-1.013
		c-0.271-0.246-0.601-0.428-0.987-0.546c-0.388-0.117-0.78-0.236-1.178-0.355c-0.397-0.121-0.731-0.325-1.003-0.613
		c-0.273-0.288-0.407-0.677-0.407-1.167c0-0.555,0.204-1.046,0.615-1.472c0.41-0.427,1.016-0.64,1.816-0.64
		c0.5,0,0.966,0.077,1.398,0.232c0.432,0.154,0.648,0.318,0.648,0.488c0,0.085-0.037,0.176-0.112,0.271
		c-0.075,0.096-0.154,0.144-0.239,0.144c-0.012,0-0.198-0.072-0.561-0.216c-0.363-0.144-0.736-0.215-1.12-0.215
		c-0.576,0-1.004,0.143-1.288,0.431c-0.282,0.287-0.423,0.607-0.423,0.959c0,0.362,0.135,0.644,0.408,0.847
		c0.271,0.202,0.604,0.362,0.996,0.481c0.392,0.118,0.787,0.238,1.185,0.358c0.396,0.12,0.731,0.344,1.002,0.669
		c0.273,0.326,0.408,0.763,0.408,1.308c0,0.619-0.219,1.104-0.656,1.456c-0.438,0.353-1.05,0.528-1.84,0.528
		c-0.682,0-1.255-0.121-1.72-0.36C165.937,19.935,165.705,19.693,165.705,19.448z"/>
	<path fill="#666666" d="M172.023,9.914c0-0.149,0.06-0.28,0.176-0.392c0.117-0.112,0.262-0.168,0.432-0.168
		c0.159,0,0.299,0.056,0.417,0.168c0.116,0.112,0.176,0.243,0.176,0.392c0,0.16-0.06,0.299-0.176,0.416
		c-0.118,0.117-0.258,0.176-0.417,0.176c-0.17,0-0.314-0.059-0.432-0.176C172.083,10.213,172.023,10.074,172.023,9.914z
		 M172.247,20.087v-6.877c0-0.214,0.129-0.32,0.384-0.32c0.268,0,0.4,0.106,0.4,0.32v6.877c0,0.086-0.04,0.166-0.119,0.241
		c-0.081,0.074-0.174,0.112-0.281,0.112c-0.105,0-0.196-0.035-0.271-0.104C172.285,20.266,172.247,20.184,172.247,20.087z"/>
	<path fill="#666666" d="M174.551,22.103c0-0.832,0.464-1.418,1.393-1.76c-0.619-0.203-0.929-0.576-0.929-1.12
		c0-0.491,0.262-0.869,0.784-1.136c-0.565-0.501-0.848-1.172-0.848-2.015v-0.656c0-0.767,0.245-1.396,0.735-1.887
		c0.491-0.49,1.131-0.735,1.919-0.735c0.779,0,1.408,0.24,1.889,0.72c0.146-0.298,0.328-0.538,0.545-0.72
		c0.215-0.182,0.417-0.272,0.606-0.272c0.138,0,0.242,0.038,0.312,0.112c0.07,0.075,0.104,0.161,0.104,0.256
		c0,0.191-0.095,0.298-0.288,0.32c-0.374,0.021-0.681,0.261-0.923,0.719c0.273,0.374,0.411,0.87,0.411,1.487v0.656
		c0,0.768-0.249,1.402-0.748,1.903c-0.497,0.501-1.139,0.752-1.924,0.752c-0.479,0-0.9-0.102-1.263-0.304
		c-0.384,0.192-0.577,0.426-0.577,0.704c0,0.277,0.174,0.478,0.521,0.6c0.345,0.123,0.765,0.203,1.254,0.24
		c0.492,0.037,0.98,0.099,1.467,0.184c0.488,0.085,0.904,0.277,1.248,0.576c0.345,0.298,0.518,0.714,0.518,1.247
		c0,0.704-0.275,1.25-0.824,1.64c-0.549,0.389-1.294,0.584-2.231,0.584c-0.938,0-1.698-0.193-2.28-0.576
		C174.841,23.239,174.551,22.732,174.551,22.103z M175.303,22.023c0,0.458,0.213,0.829,0.641,1.111
		c0.426,0.282,1.012,0.424,1.759,0.424c0.72,0,1.278-0.139,1.676-0.416c0.397-0.278,0.596-0.656,0.596-1.136
		c0-0.234-0.056-0.434-0.167-0.6c-0.111-0.166-0.246-0.295-0.404-0.391c-0.158-0.096-0.363-0.176-0.611-0.24s-0.466-0.104-0.65-0.12
		c-0.186-0.017-0.417-0.035-0.694-0.056l-0.576-0.063C175.825,20.844,175.303,21.34,175.303,22.023z M175.719,16.057
		c0,0.586,0.171,1.069,0.513,1.447c0.34,0.379,0.805,0.568,1.391,0.568c0.575,0,1.034-0.187,1.375-0.56
		c0.342-0.374,0.513-0.854,0.513-1.44v-0.656c0-0.575-0.171-1.047-0.513-1.415c-0.341-0.368-0.805-0.552-1.392-0.552
		s-1.047,0.184-1.383,0.552c-0.336,0.368-0.504,0.84-0.504,1.415V16.057z"/>
	<path fill="#666666" d="M182.31,20.087v-6.877c0-0.214,0.128-0.32,0.384-0.32c0.105,0,0.197,0.029,0.271,0.088
		s0.112,0.136,0.112,0.232v0.799c0.181-0.341,0.457-0.629,0.831-0.864c0.373-0.234,0.811-0.352,1.313-0.352
		c0.777,0,1.449,0.287,2.015,0.864c0.566,0.575,0.849,1.264,0.849,2.063v4.366c0,0.235-0.134,0.353-0.4,0.353
		c-0.255,0-0.384-0.117-0.384-0.353v-4.366c0-0.566-0.214-1.072-0.64-1.52c-0.426-0.449-0.928-0.672-1.504-0.672
		c-0.543,0-1.023,0.201-1.438,0.6c-0.417,0.399-0.626,0.931-0.626,1.592v4.366c0,0.086-0.04,0.166-0.119,0.241
		c-0.08,0.074-0.174,0.112-0.279,0.112c-0.107,0-0.198-0.035-0.273-0.104C182.347,20.266,182.31,20.184,182.31,20.087z"/>
</g>
<g>
	<path fill="#666666" d="M16.066,31.269v-6.878c0-0.213,0.128-0.32,0.384-0.32c0.106,0,0.197,0.03,0.271,0.088
		c0.074,0.059,0.112,0.136,0.112,0.232v0.799c0.458-0.81,1.174-1.215,2.144-1.215c0.522,0,0.989,0.143,1.4,0.431
		c0.411,0.289,0.723,0.678,0.936,1.168c0.267-0.522,0.618-0.92,1.056-1.191c0.438-0.272,0.896-0.408,1.376-0.408
		c0.725,0,1.348,0.264,1.871,0.792c0.522,0.527,0.784,1.239,0.784,2.135v4.366c0,0.086-0.04,0.166-0.12,0.241
		c-0.081,0.074-0.174,0.112-0.28,0.112s-0.197-0.038-0.272-0.112c-0.075-0.075-0.112-0.154-0.112-0.241v-4.366
		c0-0.683-0.2-1.218-0.6-1.608c-0.4-0.389-0.855-0.584-1.367-0.584c-0.534,0-1.006,0.198-1.416,0.592
		c-0.411,0.395-0.616,0.902-0.616,1.52v4.463c0,0.224-0.134,0.336-0.4,0.336c-0.256,0-0.384-0.112-0.384-0.336v-4.447
		c0-0.597-0.189-1.102-0.568-1.512c-0.378-0.41-0.84-0.616-1.383-0.616c-0.534,0-1.005,0.201-1.416,0.601
		c-0.411,0.399-0.616,0.931-0.616,1.591v4.366c0,0.086-0.04,0.166-0.12,0.241c-0.08,0.074-0.173,0.112-0.279,0.112
		c-0.107,0-0.198-0.035-0.272-0.104C16.104,31.448,16.066,31.366,16.066,31.269z"/>
	<path fill="#666666" d="M27.919,29.606c0-0.8,0.317-1.357,0.952-1.672c0.634-0.314,1.56-0.471,2.775-0.471h0.863v-0.417
		c0-0.64-0.167-1.191-0.503-1.655c-0.336-0.464-0.84-0.696-1.512-0.696c-0.405,0-0.784,0.075-1.136,0.224
		c-0.352,0.149-0.533,0.224-0.544,0.224c-0.106,0-0.192-0.048-0.256-0.144c-0.064-0.096-0.096-0.192-0.096-0.288
		c0-0.18,0.222-0.349,0.665-0.503c0.442-0.154,0.909-0.232,1.399-0.232c0.949,0,1.647,0.29,2.096,0.872
		c0.448,0.582,0.671,1.315,0.671,2.199v4.223c0,0.097-0.038,0.179-0.112,0.249c-0.075,0.069-0.166,0.104-0.272,0.104
		c-0.107,0-0.198-0.035-0.272-0.104c-0.074-0.069-0.112-0.152-0.112-0.249v-0.767c-0.704,0.811-1.503,1.216-2.399,1.216
		c-0.651,0-1.181-0.179-1.592-0.536C28.125,30.825,27.919,30.299,27.919,29.606z M28.703,29.574c0,0.48,0.141,0.839,0.424,1.08
		c0.282,0.239,0.653,0.36,1.111,0.36c0.543,0,1.059-0.194,1.543-0.584s0.728-0.771,0.728-1.144v-1.184h-0.784
		c-0.458,0-0.842,0.016-1.151,0.047c-0.309,0.032-0.619,0.094-0.928,0.185s-0.544,0.24-0.704,0.448
		C28.783,28.99,28.703,29.254,28.703,29.574z"/>
	<path fill="#666666" d="M35.342,31.269v-6.878c0-0.213,0.128-0.32,0.384-0.32c0.106,0,0.197,0.03,0.271,0.088
		c0.074,0.059,0.112,0.136,0.112,0.232v0.816c0.192-0.352,0.478-0.646,0.856-0.88c0.379-0.234,0.818-0.352,1.32-0.352h0.576
		c0.096,0,0.179,0.035,0.248,0.104c0.07,0.07,0.104,0.158,0.104,0.264c0,0.107-0.035,0.195-0.104,0.265
		c-0.069,0.069-0.151,0.103-0.248,0.103h-0.576c-0.576,0-1.08,0.216-1.512,0.648c-0.432,0.432-0.647,0.995-0.647,1.687v4.223
		c0,0.086-0.04,0.166-0.12,0.241c-0.08,0.074-0.173,0.112-0.279,0.112c-0.107,0-0.198-0.035-0.272-0.104
		C35.379,31.448,35.342,31.366,35.342,31.269z"/>
	<path fill="#666666" d="M40.444,31.269V19.705c0-0.096,0.037-0.176,0.112-0.24c0.075-0.064,0.165-0.096,0.272-0.096
		c0.117,0,0.212,0.032,0.288,0.096c0.074,0.063,0.112,0.144,0.112,0.24v8.045l4.127-3.615c0.053-0.053,0.117-0.08,0.192-0.08
		c0.107,0,0.203,0.032,0.288,0.095c0.085,0.064,0.128,0.156,0.128,0.272c0,0.107-0.037,0.192-0.112,0.256l-2.479,2.159l2.879,4.223
		c0.032,0.054,0.048,0.112,0.048,0.176c0,0.096-0.04,0.187-0.12,0.272c-0.081,0.085-0.174,0.127-0.28,0.127s-0.197-0.053-0.272-0.16
		l-2.815-4.127l-1.584,1.376v2.542c0,0.086-0.04,0.166-0.12,0.241c-0.08,0.074-0.173,0.112-0.279,0.112
		c-0.107,0-0.198-0.035-0.272-0.104S40.444,31.366,40.444,31.269z"/>
	<path fill="#666666" d="M47.05,28.758v-1.904c0-0.789,0.288-1.466,0.864-2.032c0.576-0.565,1.269-0.847,2.08-0.847
		c0.785,0,1.464,0.277,2.037,0.832s0.859,1.243,0.859,2.064c0,0.287-0.035,0.52-0.104,0.695c-0.069,0.176-0.178,0.302-0.327,0.376
		c-0.149,0.075-0.284,0.12-0.407,0.135c-0.122,0.017-0.294,0.024-0.518,0.024h-3.699v0.671c0,0.672,0.24,1.211,0.72,1.616
		s1.099,0.607,1.855,0.607c0.383,0,0.708-0.053,0.974-0.16c0.267-0.106,0.468-0.214,0.607-0.32c0.139-0.105,0.245-0.16,0.319-0.16
		c0.094,0,0.177,0.042,0.251,0.127c0.073,0.086,0.11,0.171,0.11,0.256c0,0.203-0.221,0.416-0.661,0.64
		c-0.44,0.224-0.984,0.336-1.632,0.336c-0.98,0-1.78-0.272-2.399-0.815C47.36,30.358,47.05,29.644,47.05,28.758z M47.834,27.446
		h3.407c0.362,0,0.602-0.037,0.72-0.112c0.117-0.075,0.176-0.229,0.176-0.463c0-0.565-0.203-1.072-0.608-1.52
		s-0.917-0.671-1.536-0.671c-0.597,0-1.107,0.207-1.527,0.623c-0.421,0.417-0.632,0.912-0.632,1.488V27.446z"/>
	<path fill="#666666" d="M54.521,29.334v-8.59c0-0.095,0.04-0.176,0.12-0.24c0.08-0.064,0.168-0.096,0.264-0.096
		c0.106,0,0.2,0.032,0.28,0.096c0.08,0.063,0.121,0.145,0.121,0.24v3.327h2.127c0.084,0,0.157,0.035,0.215,0.104
		c0.059,0.07,0.088,0.152,0.088,0.248c0,0.085-0.032,0.163-0.096,0.232c-0.064,0.07-0.134,0.104-0.208,0.104h-2.127v4.575
		c0,0.566,0.122,0.965,0.368,1.2c0.246,0.234,0.672,0.352,1.28,0.352h0.4c0.106,0,0.194,0.035,0.263,0.104
		c0.07,0.069,0.104,0.157,0.104,0.263c0,0.097-0.035,0.182-0.104,0.256c-0.069,0.074-0.157,0.112-0.263,0.112h-0.4
		C55.331,31.622,54.521,30.86,54.521,29.334z"/>
	<path fill="#666666" d="M58.872,21.097c0-0.149,0.058-0.281,0.176-0.393c0.117-0.112,0.261-0.167,0.432-0.167
		c0.16,0,0.298,0.055,0.416,0.167c0.117,0.112,0.176,0.243,0.176,0.393c0,0.16-0.06,0.298-0.176,0.416
		c-0.117,0.117-0.256,0.176-0.416,0.176c-0.171,0-0.315-0.06-0.432-0.176C58.93,21.395,58.872,21.256,58.872,21.097z M59.096,31.269
		v-6.878c0-0.213,0.128-0.32,0.384-0.32c0.266,0,0.399,0.107,0.399,0.32v6.878c0,0.086-0.04,0.166-0.12,0.241
		c-0.08,0.074-0.173,0.112-0.279,0.112c-0.107,0-0.198-0.035-0.272-0.104C59.133,31.448,59.096,31.366,59.096,31.269z"/>
	<path fill="#666666" d="M61.991,31.269v-6.878c0-0.213,0.128-0.32,0.384-0.32c0.106,0,0.197,0.03,0.271,0.088
		c0.075,0.059,0.112,0.136,0.112,0.232v0.799c0.181-0.34,0.458-0.629,0.831-0.863c0.374-0.234,0.811-0.352,1.312-0.352
		c0.779,0,1.451,0.287,2.016,0.864c0.565,0.575,0.848,1.263,0.848,2.063v4.366c0,0.235-0.134,0.353-0.4,0.353
		c-0.255,0-0.383-0.117-0.383-0.353v-4.366c0-0.565-0.213-1.072-0.64-1.52c-0.427-0.449-0.928-0.672-1.504-0.672
		c-0.544,0-1.023,0.201-1.439,0.601c-0.416,0.399-0.624,0.931-0.624,1.591v4.366c0,0.086-0.041,0.166-0.12,0.241
		c-0.08,0.074-0.173,0.112-0.28,0.112c-0.107,0-0.198-0.035-0.272-0.104C62.028,31.448,61.991,31.366,61.991,31.269z"/>
	<path fill="#666666" d="M69.205,33.285c0-0.832,0.464-1.418,1.392-1.76c-0.618-0.202-0.928-0.576-0.928-1.12
		c0-0.49,0.262-0.869,0.784-1.136c-0.565-0.501-0.847-1.172-0.847-2.015v-0.656c0-0.767,0.245-1.396,0.735-1.887
		c0.491-0.49,1.13-0.735,1.92-0.735c0.778,0,1.408,0.24,1.888,0.72c0.147-0.299,0.328-0.538,0.544-0.72
		c0.215-0.181,0.418-0.272,0.607-0.272c0.138,0,0.243,0.038,0.312,0.112c0.069,0.075,0.104,0.161,0.104,0.256
		c0,0.191-0.096,0.299-0.288,0.32c-0.373,0.022-0.681,0.262-0.923,0.72c0.274,0.374,0.412,0.87,0.412,1.487v0.656
		c0,0.768-0.25,1.403-0.748,1.903c-0.499,0.502-1.14,0.752-1.924,0.752c-0.48,0-0.901-0.102-1.264-0.304
		c-0.384,0.192-0.576,0.426-0.576,0.704c0,0.277,0.173,0.478,0.52,0.6c0.346,0.122,0.765,0.202,1.255,0.24
		c0.49,0.037,0.979,0.098,1.467,0.184c0.488,0.086,0.903,0.278,1.248,0.576c0.344,0.298,0.516,0.714,0.516,1.247
		c0,0.704-0.274,1.251-0.824,1.64c-0.549,0.389-1.293,0.584-2.231,0.584s-1.698-0.193-2.279-0.576
		C69.495,34.421,69.205,33.915,69.205,33.285z M69.957,33.206c0,0.458,0.213,0.829,0.64,1.111c0.427,0.282,1.014,0.424,1.76,0.424
		c0.72,0,1.279-0.139,1.676-0.416c0.397-0.278,0.596-0.656,0.596-1.136c0-0.234-0.056-0.434-0.167-0.6
		c-0.112-0.166-0.246-0.295-0.405-0.391c-0.159-0.096-0.363-0.176-0.611-0.24c-0.249-0.064-0.466-0.104-0.651-0.12
		c-0.186-0.016-0.417-0.034-0.694-0.056l-0.576-0.063C70.479,32.027,69.957,32.522,69.957,33.206z M70.373,27.239
		c0,0.587,0.17,1.069,0.512,1.448s0.805,0.567,1.392,0.567c0.576,0,1.034-0.187,1.375-0.56c0.341-0.373,0.512-0.853,0.512-1.44
		v-0.656c0-0.575-0.17-1.047-0.512-1.415c-0.342-0.368-0.806-0.552-1.392-0.552c-0.587,0-1.048,0.184-1.384,0.552
		s-0.504,0.84-0.504,1.415V27.239z"/>
</g>
<line fill="none" stroke="#666666" stroke-miterlimit="10" x1="57.667" y1="40.879" x2="77.218" y2="82.646"/>
<line fill="none" stroke="#666666" stroke-miterlimit="10" x1="143.869" y1="24.438" x2="125.193" y2="37.963"/>
<g>
	<path fill="#666666" d="M194.842,280.526v-1.855c0-0.811,0.281-1.501,0.847-2.071c0.565-0.572,1.242-0.856,2.033-0.856
		c0.488,0,0.919,0.115,1.287,0.345c0.367,0.228,0.647,0.519,0.839,0.87v-5.486c0-0.096,0.038-0.177,0.112-0.24
		s0.17-0.096,0.288-0.096c0.105,0,0.196,0.032,0.271,0.096s0.111,0.145,0.111,0.24v11.564c0,0.097-0.036,0.18-0.111,0.248
		c-0.075,0.07-0.166,0.104-0.271,0.104c-0.106,0-0.197-0.037-0.272-0.111c-0.075-0.075-0.111-0.155-0.111-0.241v-0.767
		c-0.183,0.341-0.473,0.629-0.872,0.863c-0.4,0.235-0.835,0.353-1.304,0.353c-0.758,0-1.421-0.299-1.991-0.896
		C195.126,281.992,194.842,281.305,194.842,280.526z M195.625,280.526c0,0.575,0.212,1.09,0.64,1.542
		c0.427,0.454,0.922,0.681,1.487,0.681c0.545,0,1.029-0.203,1.456-0.608c0.427-0.404,0.64-0.762,0.64-1.071v-2.398
		c0-0.651-0.21-1.179-0.632-1.584c-0.421-0.405-0.903-0.608-1.447-0.608c-0.576,0-1.077,0.224-1.504,0.672
		c-0.428,0.448-0.64,0.954-0.64,1.521V280.526z"/>
	<path fill="#666666" d="M202.454,280.526v-1.904c0-0.789,0.288-1.466,0.864-2.031s1.27-0.848,2.079-0.848
		c0.786,0,1.465,0.277,2.037,0.831c0.573,0.555,0.859,1.243,0.859,2.064c0,0.287-0.035,0.52-0.104,0.695
		c-0.069,0.176-0.179,0.302-0.328,0.376c-0.148,0.075-0.284,0.12-0.406,0.136c-0.121,0.016-0.295,0.024-0.518,0.024h-3.7v0.671
		c0,0.672,0.24,1.211,0.72,1.617c0.48,0.404,1.1,0.607,1.856,0.607c0.382,0,0.708-0.054,0.974-0.16s0.469-0.214,0.606-0.32
		c0.139-0.105,0.245-0.159,0.319-0.159c0.095,0,0.178,0.042,0.251,0.127c0.073,0.086,0.109,0.171,0.109,0.257
		c0,0.202-0.22,0.415-0.661,0.641c-0.439,0.224-0.983,0.335-1.631,0.335c-0.981,0-1.781-0.272-2.4-0.815
		C202.765,282.126,202.454,281.411,202.454,280.526z M203.238,279.214h3.407c0.363,0,0.603-0.037,0.721-0.112
		c0.117-0.074,0.175-0.229,0.175-0.463c0-0.565-0.201-1.072-0.607-1.521c-0.405-0.447-0.917-0.671-1.536-0.671
		c-0.597,0-1.105,0.207-1.527,0.623c-0.421,0.417-0.632,0.912-0.632,1.488V279.214z"/>
	<path fill="#666666" d="M209.189,276.19c0-0.105,0.044-0.194,0.133-0.264c0.089-0.068,0.191-0.104,0.306-0.104
		c0.167,0,0.271,0.063,0.313,0.192l2.2,6.046l2.2-5.951c0.073-0.191,0.18-0.287,0.319-0.287c0.105,0,0.21,0.035,0.312,0.104
		c0.102,0.069,0.152,0.152,0.152,0.248l-0.064,0.256l-2.533,6.847c-0.075,0.149-0.204,0.224-0.386,0.224s-0.305-0.074-0.369-0.224
		l-2.519-6.847C209.211,276.304,209.189,276.222,209.189,276.19z"/>
</g>
<line fill="none" stroke="#666666" stroke-miterlimit="10" x1="200.859" y1="288.537" x2="181.954" y2="301.739"/>
<g>
	<path fill="#666666" d="M158.039,193.325v-1.904c0-0.788,0.288-1.466,0.864-2.031c0.576-0.564,1.269-0.848,2.08-0.848
		c0.784,0,1.463,0.278,2.035,0.832c0.573,0.555,0.859,1.242,0.859,2.064c0,0.287-0.035,0.519-0.103,0.694
		c-0.068,0.176-0.179,0.303-0.327,0.377c-0.15,0.074-0.285,0.119-0.407,0.135c-0.122,0.017-0.294,0.024-0.519,0.024h-3.699v0.672
		c0,0.672,0.24,1.211,0.721,1.616c0.479,0.405,1.099,0.607,1.855,0.607c0.382,0,0.708-0.054,0.974-0.159
		c0.266-0.107,0.468-0.214,0.605-0.32c0.14-0.106,0.245-0.16,0.319-0.16c0.095,0,0.179,0.042,0.253,0.128
		c0.072,0.086,0.108,0.17,0.108,0.256c0,0.202-0.221,0.416-0.661,0.641c-0.439,0.224-0.983,0.335-1.632,0.335
		c-0.979,0-1.78-0.271-2.398-0.814C158.349,194.925,158.039,194.211,158.039,193.325z M158.823,192.014h3.408
		c0.362,0,0.602-0.038,0.72-0.112c0.116-0.074,0.176-0.229,0.176-0.463c0-0.566-0.204-1.072-0.607-1.521
		c-0.406-0.448-0.918-0.672-1.536-0.672c-0.597,0-1.107,0.208-1.527,0.624c-0.422,0.416-0.633,0.911-0.633,1.487V192.014z"/>
	<path fill="#666666" d="M165.542,195.836v-6.878c0-0.213,0.127-0.32,0.384-0.32c0.106,0,0.196,0.029,0.271,0.089
		c0.074,0.059,0.112,0.135,0.112,0.231v0.8c0.182-0.341,0.459-0.629,0.831-0.864c0.374-0.233,0.812-0.352,1.313-0.352
		c0.778,0,1.45,0.288,2.016,0.864c0.564,0.575,0.848,1.264,0.848,2.063v4.366c0,0.235-0.134,0.353-0.4,0.353
		c-0.255,0-0.384-0.117-0.384-0.353v-4.366c0-0.566-0.213-1.072-0.64-1.52c-0.427-0.449-0.928-0.673-1.504-0.673
		c-0.544,0-1.023,0.201-1.439,0.602c-0.416,0.398-0.623,0.93-0.623,1.591v4.366c0,0.086-0.041,0.166-0.121,0.241
		c-0.079,0.073-0.173,0.111-0.279,0.111s-0.198-0.035-0.271-0.104C165.579,196.016,165.542,195.933,165.542,195.836z"/>
	<path fill="#666666" d="M173.316,193.901v-8.591c0-0.096,0.04-0.176,0.12-0.239c0.08-0.064,0.168-0.097,0.264-0.097
		c0.106,0,0.2,0.032,0.279,0.097c0.08,0.063,0.121,0.144,0.121,0.239v3.327h2.127c0.085,0,0.157,0.035,0.215,0.104
		c0.06,0.069,0.089,0.151,0.089,0.248c0,0.086-0.032,0.162-0.096,0.231c-0.064,0.07-0.133,0.104-0.208,0.104h-2.127v4.575
		c0,0.565,0.123,0.965,0.367,1.199c0.245,0.235,0.672,0.352,1.28,0.352h0.399c0.106,0,0.194,0.035,0.264,0.104
		c0.07,0.069,0.104,0.157,0.104,0.265c0,0.096-0.034,0.181-0.104,0.256c-0.069,0.073-0.157,0.111-0.264,0.111h-0.399
		C174.127,196.188,173.316,195.427,173.316,193.901z"/>
	<path fill="#666666" d="M177.891,195.836v-6.878c0-0.213,0.128-0.32,0.385-0.32c0.106,0,0.196,0.029,0.271,0.089
		c0.075,0.059,0.112,0.135,0.112,0.231v0.816c0.192-0.353,0.478-0.646,0.856-0.881c0.379-0.233,0.818-0.352,1.319-0.352h0.576
		c0.096,0,0.178,0.035,0.247,0.104c0.07,0.07,0.104,0.158,0.104,0.265s-0.034,0.195-0.104,0.265
		c-0.069,0.068-0.151,0.103-0.247,0.103h-0.576c-0.576,0-1.079,0.217-1.512,0.648c-0.432,0.433-0.647,0.995-0.647,1.688v4.223
		c0,0.086-0.039,0.166-0.12,0.241c-0.079,0.073-0.173,0.111-0.279,0.111c-0.107,0-0.197-0.035-0.272-0.104
		C177.929,196.016,177.891,195.933,177.891,195.836z"/>
	<path fill="#666666" d="M182.353,193.325v-1.904c0-0.788,0.288-1.466,0.864-2.031c0.576-0.564,1.27-0.848,2.08-0.848
		c0.784,0,1.463,0.278,2.036,0.832c0.573,0.555,0.859,1.242,0.859,2.064c0,0.287-0.035,0.519-0.104,0.694
		c-0.069,0.176-0.179,0.303-0.328,0.377c-0.148,0.074-0.284,0.119-0.405,0.135c-0.122,0.017-0.296,0.024-0.52,0.024h-3.698v0.672
		c0,0.672,0.239,1.211,0.72,1.616c0.479,0.405,1.099,0.607,1.855,0.607c0.382,0,0.708-0.054,0.975-0.159
		c0.265-0.107,0.467-0.214,0.605-0.32c0.138-0.106,0.244-0.16,0.319-0.16c0.095,0,0.178,0.042,0.252,0.128
		c0.072,0.086,0.109,0.17,0.109,0.256c0,0.202-0.222,0.416-0.662,0.641c-0.439,0.224-0.983,0.335-1.632,0.335
		c-0.98,0-1.78-0.271-2.398-0.814C182.663,194.925,182.353,194.211,182.353,193.325z M183.138,192.014h3.406
		c0.363,0,0.603-0.038,0.722-0.112c0.115-0.074,0.175-0.229,0.175-0.463c0-0.566-0.203-1.072-0.607-1.521
		c-0.406-0.448-0.918-0.672-1.536-0.672c-0.598,0-1.106,0.208-1.527,0.624c-0.422,0.416-0.632,0.911-0.632,1.487V192.014z"/>
	<path fill="#666666" d="M189.856,199.596v-10.638c0-0.213,0.128-0.32,0.384-0.32c0.105,0,0.196,0.029,0.271,0.089
		c0.074,0.059,0.112,0.135,0.112,0.231v0.8c0.457-0.81,1.173-1.216,2.144-1.216c0.789,0,1.467,0.285,2.031,0.856
		c0.564,0.57,0.848,1.261,0.848,2.071v1.855c0,0.778-0.286,1.466-0.855,2.063c-0.571,0.598-1.234,0.896-1.991,0.896
		c-0.471,0-0.902-0.116-1.296-0.352c-0.395-0.235-0.683-0.522-0.865-0.864v4.527c0,0.085-0.04,0.164-0.119,0.239
		c-0.08,0.075-0.174,0.113-0.279,0.113c-0.107,0-0.198-0.035-0.272-0.104C189.893,199.774,189.856,199.692,189.856,199.596z
		 M190.639,193.869c0,0.31,0.214,0.666,0.641,1.071c0.428,0.405,0.912,0.608,1.457,0.608c0.563,0,1.06-0.227,1.487-0.681
		c0.426-0.452,0.639-0.967,0.639-1.543v-1.855c0-0.566-0.215-1.072-0.647-1.52c-0.433-0.449-0.936-0.673-1.512-0.673
		c-0.543,0-1.023,0.201-1.438,0.602c-0.417,0.398-0.626,0.93-0.626,1.591V193.869z"/>
	<path fill="#666666" d="M197.453,195.836v-6.878c0-0.213,0.129-0.32,0.385-0.32c0.107,0,0.197,0.029,0.271,0.089
		c0.075,0.059,0.112,0.135,0.112,0.231v0.816c0.191-0.353,0.478-0.646,0.856-0.881c0.378-0.233,0.818-0.352,1.319-0.352h0.576
		c0.096,0,0.178,0.035,0.247,0.104c0.069,0.07,0.104,0.158,0.104,0.265s-0.035,0.195-0.104,0.265
		c-0.069,0.068-0.151,0.103-0.247,0.103h-0.576c-0.576,0-1.079,0.217-1.512,0.648c-0.433,0.433-0.648,0.995-0.648,1.688v4.223
		c0,0.086-0.039,0.166-0.119,0.241c-0.079,0.073-0.173,0.111-0.28,0.111c-0.106,0-0.197-0.035-0.272-0.104
		C197.492,196.016,197.453,195.933,197.453,195.836z"/>
	<path fill="#666666" d="M201.916,193.325v-1.904c0-0.788,0.288-1.466,0.864-2.031c0.576-0.564,1.27-0.848,2.079-0.848
		c0.785,0,1.463,0.278,2.037,0.832c0.572,0.555,0.858,1.242,0.858,2.064c0,0.287-0.034,0.519-0.104,0.694
		c-0.068,0.176-0.178,0.303-0.327,0.377c-0.148,0.074-0.284,0.119-0.406,0.135c-0.122,0.017-0.295,0.024-0.519,0.024h-3.698v0.672
		c0,0.672,0.238,1.211,0.72,1.616c0.479,0.405,1.098,0.607,1.855,0.607c0.382,0,0.707-0.054,0.974-0.159
		c0.266-0.107,0.468-0.214,0.606-0.32c0.138-0.106,0.244-0.16,0.319-0.16c0.094,0,0.177,0.042,0.251,0.128
		c0.073,0.086,0.109,0.17,0.109,0.256c0,0.202-0.221,0.416-0.661,0.641c-0.44,0.224-0.984,0.335-1.632,0.335
		c-0.98,0-1.78-0.271-2.398-0.814C202.227,194.925,201.916,194.211,201.916,193.325z M202.701,192.014h3.406
		c0.363,0,0.603-0.038,0.721-0.112c0.116-0.074,0.175-0.229,0.175-0.463c0-0.566-0.202-1.072-0.607-1.521s-0.918-0.672-1.536-0.672
		c-0.597,0-1.106,0.208-1.527,0.624c-0.422,0.416-0.631,0.911-0.631,1.487V192.014z"/>
	<path fill="#666666" d="M209.419,195.836v-6.878c0-0.213,0.128-0.32,0.385-0.32c0.104,0,0.195,0.029,0.27,0.089
		c0.075,0.059,0.113,0.135,0.113,0.231v0.8c0.181-0.341,0.458-0.629,0.832-0.864c0.373-0.233,0.81-0.352,1.312-0.352
		c0.777,0,1.449,0.288,2.015,0.864c0.565,0.575,0.849,1.264,0.849,2.063v4.366c0,0.235-0.134,0.353-0.4,0.353
		c-0.256,0-0.384-0.117-0.384-0.353v-4.366c0-0.566-0.213-1.072-0.64-1.52c-0.427-0.449-0.928-0.673-1.503-0.673
		c-0.544,0-1.024,0.201-1.44,0.602c-0.415,0.398-0.624,0.93-0.624,1.591v4.366c0,0.086-0.04,0.166-0.119,0.241
		c-0.081,0.073-0.175,0.111-0.279,0.111c-0.108,0-0.198-0.035-0.273-0.104C209.455,196.016,209.419,195.933,209.419,195.836z"/>
	<path fill="#666666" d="M216.937,193.325v-1.904c0-0.788,0.288-1.466,0.864-2.031c0.575-0.564,1.27-0.848,2.079-0.848
		c0.785,0,1.464,0.278,2.037,0.832c0.572,0.555,0.858,1.242,0.858,2.064c0,0.287-0.034,0.519-0.104,0.694s-0.177,0.303-0.327,0.377
		c-0.148,0.074-0.284,0.119-0.406,0.135c-0.122,0.017-0.295,0.024-0.519,0.024h-3.698v0.672c0,0.672,0.238,1.211,0.719,1.616
		c0.479,0.405,1.098,0.607,1.855,0.607c0.383,0,0.707-0.054,0.975-0.159c0.266-0.107,0.467-0.214,0.606-0.32
		c0.139-0.106,0.244-0.16,0.319-0.16c0.094,0,0.177,0.042,0.25,0.128s0.111,0.17,0.111,0.256c0,0.202-0.222,0.416-0.662,0.641
		c-0.44,0.224-0.984,0.335-1.632,0.335c-0.98,0-1.78-0.271-2.398-0.814C217.246,194.925,216.937,194.211,216.937,193.325z
		 M217.722,192.014h3.406c0.362,0,0.603-0.038,0.72-0.112s0.176-0.229,0.176-0.463c0-0.566-0.202-1.072-0.608-1.521
		c-0.404-0.448-0.917-0.672-1.535-0.672c-0.597,0-1.106,0.208-1.527,0.624c-0.422,0.416-0.631,0.911-0.631,1.487V192.014z"/>
	<path fill="#666666" d="M224.358,193.357v-4.383c0-0.086,0.04-0.163,0.119-0.232c0.082-0.069,0.174-0.104,0.281-0.104
		c0.097,0,0.184,0.035,0.264,0.104c0.081,0.069,0.121,0.146,0.121,0.232v4.383c0,0.576,0.209,1.085,0.632,1.527
		c0.421,0.442,0.925,0.664,1.512,0.664c0.585,0,1.09-0.222,1.51-0.664c0.422-0.442,0.634-0.951,0.634-1.527v-4.399
		c0-0.085,0.039-0.16,0.119-0.224c0.08-0.064,0.173-0.097,0.279-0.097c0.107,0,0.198,0.032,0.273,0.097
		c0.074,0.063,0.11,0.139,0.11,0.224v4.399c0,0.789-0.288,1.474-0.863,2.055c-0.575,0.582-1.264,0.872-2.063,0.872
		c-0.8,0-1.489-0.293-2.064-0.879C224.646,194.818,224.358,194.136,224.358,193.357z"/>
	<path fill="#666666" d="M232.244,195.836v-6.878c0-0.213,0.129-0.32,0.385-0.32c0.106,0,0.196,0.029,0.271,0.089
		c0.074,0.059,0.112,0.135,0.112,0.231v0.816c0.191-0.353,0.478-0.646,0.856-0.881c0.378-0.233,0.817-0.352,1.318-0.352h0.576
		c0.095,0,0.179,0.035,0.249,0.104c0.068,0.07,0.104,0.158,0.104,0.265s-0.035,0.195-0.104,0.265
		c-0.07,0.068-0.154,0.103-0.249,0.103h-0.576c-0.576,0-1.08,0.217-1.512,0.648c-0.432,0.433-0.647,0.995-0.647,1.688v4.223
		c0,0.086-0.04,0.166-0.119,0.241c-0.081,0.073-0.174,0.111-0.28,0.111c-0.107,0-0.197-0.035-0.272-0.104
		C232.281,196.016,232.244,195.933,232.244,195.836z"/>
	<path fill="#666666" d="M237.123,185.663c0-0.149,0.059-0.28,0.176-0.392c0.117-0.112,0.262-0.168,0.433-0.168
		c0.159,0,0.299,0.056,0.416,0.168c0.116,0.111,0.176,0.242,0.176,0.392c0,0.159-0.06,0.299-0.176,0.415
		c-0.117,0.118-0.257,0.177-0.416,0.177c-0.171,0-0.315-0.059-0.433-0.177C237.182,185.962,237.123,185.822,237.123,185.663z
		 M237.347,195.836v-6.878c0-0.213,0.129-0.32,0.385-0.32c0.267,0,0.399,0.107,0.399,0.32v6.878c0,0.086-0.039,0.166-0.119,0.241
		c-0.079,0.073-0.174,0.111-0.28,0.111c-0.107,0-0.197-0.035-0.272-0.104C237.386,196.016,237.347,195.933,237.347,195.836z"/>
	<path fill="#666666" d="M239.716,194.173c0-0.8,0.316-1.356,0.951-1.672c0.634-0.314,1.559-0.472,2.775-0.472h0.862v-0.416
		c0-0.64-0.167-1.191-0.503-1.655s-0.84-0.695-1.512-0.695c-0.405,0-0.783,0.073-1.135,0.224c-0.353,0.148-0.534,0.224-0.544,0.224
		c-0.107,0-0.192-0.048-0.257-0.145c-0.063-0.096-0.095-0.191-0.095-0.288c0-0.18,0.22-0.349,0.662-0.503
		c0.443-0.154,0.91-0.232,1.4-0.232c0.949,0,1.648,0.29,2.096,0.872c0.448,0.581,0.672,1.314,0.672,2.199v4.223
		c0,0.097-0.038,0.18-0.112,0.248c-0.075,0.069-0.166,0.104-0.271,0.104c-0.107,0-0.197-0.035-0.272-0.104
		c-0.074-0.068-0.111-0.151-0.111-0.248v-0.768c-0.704,0.812-1.504,1.216-2.4,1.216c-0.65,0-1.18-0.178-1.591-0.536
		C239.92,195.392,239.716,194.866,239.716,194.173z M240.499,194.141c0,0.48,0.141,0.84,0.423,1.08
		c0.283,0.239,0.654,0.36,1.113,0.36c0.543,0,1.058-0.194,1.543-0.585c0.485-0.389,0.727-0.77,0.727-1.144v-1.184h-0.782
		c-0.459,0-0.844,0.017-1.152,0.049c-0.31,0.031-0.618,0.093-0.927,0.184c-0.311,0.091-0.545,0.239-0.705,0.447
		C240.579,193.557,240.499,193.82,240.499,194.141z"/>
	<path fill="#666666" d="M247.265,195.836v-11.564c0-0.096,0.038-0.177,0.112-0.24c0.075-0.064,0.165-0.097,0.272-0.097
		c0.117,0,0.212,0.032,0.287,0.097c0.074,0.063,0.112,0.145,0.112,0.24v11.564c0,0.086-0.04,0.166-0.119,0.241
		c-0.081,0.073-0.174,0.111-0.28,0.111c-0.107,0-0.197-0.035-0.272-0.104C247.303,196.016,247.265,195.933,247.265,195.836z"/>
	<path fill="#666666" d="M250.064,185.663c0-0.149,0.059-0.28,0.176-0.392c0.117-0.112,0.261-0.168,0.432-0.168
		c0.159,0,0.299,0.056,0.416,0.168c0.116,0.111,0.176,0.242,0.176,0.392c0,0.159-0.06,0.299-0.176,0.415
		c-0.117,0.118-0.257,0.177-0.416,0.177c-0.171,0-0.314-0.059-0.432-0.177C250.123,185.962,250.064,185.822,250.064,185.663z
		 M250.288,195.836v-6.878c0-0.213,0.129-0.32,0.384-0.32c0.268,0,0.4,0.107,0.4,0.32v6.878c0,0.086-0.04,0.166-0.12,0.241
		c-0.08,0.073-0.174,0.111-0.28,0.111s-0.197-0.035-0.271-0.104C250.325,196.016,250.288,195.933,250.288,195.836z"/>
	<path fill="#666666" d="M252.703,195.196c0-0.085,0.029-0.168,0.088-0.247c0.06-0.081,0.125-0.12,0.2-0.12
		c0.063-0.011,0.149,0.026,0.256,0.111l0.368,0.256c0.128,0.086,0.325,0.171,0.592,0.256c0.266,0.086,0.565,0.129,0.896,0.129
		c0.598,0,1.04-0.114,1.328-0.345c0.288-0.229,0.432-0.525,0.432-0.888c0-0.429-0.135-0.766-0.407-1.014
		c-0.271-0.246-0.601-0.428-0.987-0.546c-0.388-0.116-0.78-0.235-1.177-0.354c-0.398-0.121-0.731-0.325-1.004-0.613
		c-0.271-0.288-0.407-0.677-0.407-1.167c0-0.555,0.205-1.046,0.616-1.473c0.409-0.426,1.015-0.64,1.815-0.64
		c0.5,0,0.967,0.078,1.398,0.232c0.433,0.154,0.648,0.317,0.648,0.488c0,0.084-0.037,0.176-0.112,0.271
		c-0.074,0.097-0.154,0.145-0.239,0.145c-0.011,0-0.197-0.072-0.561-0.216c-0.362-0.145-0.736-0.216-1.12-0.216
		c-0.576,0-1.004,0.144-1.287,0.432c-0.282,0.287-0.424,0.607-0.424,0.959c0,0.361,0.136,0.645,0.408,0.847s0.604,0.363,0.996,0.481
		c0.393,0.119,0.787,0.238,1.185,0.359c0.397,0.119,0.731,0.343,1.003,0.669c0.272,0.326,0.407,0.763,0.407,1.308
		c0,0.619-0.218,1.104-0.656,1.456c-0.437,0.353-1.05,0.527-1.839,0.527c-0.683,0-1.256-0.12-1.72-0.36
		C252.935,195.685,252.703,195.441,252.703,195.196z"/>
	<path fill="#666666" d="M259.246,195.836v-6.878c0-0.213,0.129-0.32,0.384-0.32c0.106,0,0.198,0.029,0.272,0.089
		c0.074,0.059,0.111,0.135,0.111,0.231v0.8c0.458-0.81,1.173-1.216,2.144-1.216c0.521,0,0.989,0.144,1.4,0.433
		c0.409,0.288,0.722,0.678,0.936,1.167c0.266-0.521,0.617-0.92,1.056-1.19c0.438-0.273,0.896-0.409,1.376-0.409
		c0.725,0,1.349,0.265,1.871,0.793c0.522,0.526,0.784,1.238,0.784,2.135v4.366c0,0.086-0.04,0.166-0.12,0.241
		c-0.081,0.073-0.174,0.111-0.28,0.111s-0.197-0.038-0.271-0.111c-0.075-0.075-0.112-0.155-0.112-0.241v-4.366
		c0-0.683-0.2-1.218-0.601-1.608c-0.399-0.389-0.855-0.584-1.366-0.584c-0.534,0-1.007,0.198-1.416,0.593
		c-0.411,0.394-0.616,0.901-0.616,1.519v4.464c0,0.225-0.134,0.336-0.399,0.336c-0.256,0-0.385-0.111-0.385-0.336v-4.446
		c0-0.598-0.189-1.102-0.568-1.513c-0.378-0.41-0.84-0.616-1.383-0.616c-0.533,0-1.005,0.201-1.416,0.602
		c-0.41,0.398-0.616,0.93-0.616,1.591v4.366c0,0.086-0.039,0.166-0.119,0.241c-0.08,0.073-0.174,0.111-0.28,0.111
		s-0.197-0.035-0.272-0.104C259.284,196.016,259.246,195.933,259.246,195.836z"/>
</g>
<line fill="none" stroke="#666666" stroke-miterlimit="10" x1="184.748" y1="182.057" x2="103.498" y2="156.69"/>
<g>
	<path fill-rule="evenodd" clip-rule="evenodd" fill="#666666" d="M156.613,163.688c-0.325,1.278,2.186,5.217,2.776,3.804
		c0.594-1.413-1.17-3.882-1.17-3.882S156.937,162.412,156.613,163.688z"/>
	<path fill-rule="evenodd" clip-rule="evenodd" fill="#666666" d="M159.291,129.72c-2.151-0.99-0.462,0.81,0.632,3.349
		c1.09,2.542-0.271,7.989-2.511,12.902c-2.238,4.914-1.749,7.529-1.731,9.876c0.019,2.348-1.805,0.552-2.872,1.03
		c-1.07,0.478,1.691,2.199,3.366,2.185c1.676-0.011,2.534-1.292,2.795-2.368c0.262-1.075-0.941-0.461-1.041-4.352
		c-0.097-3.893,2.252-3.506,3.592-12.107C162.859,131.638,159.291,129.72,159.291,129.72z"/>
	<path fill-rule="evenodd" clip-rule="evenodd" fill="#666666" d="M147.108,165.175c-0.743-0.935-3.425-1.183-1.057,1.886
		c2.37,3.066,3.084,8.429,3.037,11.181c-0.046,2.752,1.874-0.351,1.574-4.642C150.358,169.309,147.108,165.175,147.108,165.175z"/>
	<path fill-rule="evenodd" clip-rule="evenodd" fill="#666666" d="M151.52,163.597c-1.146-1.064-2.352-0.854-0.529,0.743
		c1.819,1.595,2.121,5.752,2.813,8.563c0.693,2.813,2.338-0.688,1.104-4.503C153.673,164.587,151.52,163.597,151.52,163.597z"/>
	<path fill-rule="evenodd" clip-rule="evenodd" fill="#666666" d="M169.83,139.564c-1.35-0.794-2.757-0.917-0.931,1.082
		c1.826,1.997,2.85,4.407,3.4,6.347c0.552,1.942,3.021,0.58,1.453-2.628C172.188,141.157,169.83,139.564,169.83,139.564z"/>
	<path fill-rule="evenodd" clip-rule="evenodd" fill="#666666" d="M177.607,98.041c-1.094-2.811-4.907-2.11-4.907-2.11
		s-1.407,0.213-1.602,0.954c-0.194,0.738,1.276,0.325,3.426,1.046C176.676,98.65,178.702,100.85,177.607,98.041z"/>
	<path fill-rule="evenodd" clip-rule="evenodd" fill="#666666" d="M171.339,118.486c2.321-2.636,4.328-3.321,3.451-3.986
		c-0.878-0.665-7.384-1.484-7.201-4.034c0.183-2.551,3.731-2.379,2.518-3.444c-1.214-1.064-2.17-3.137-2.17-3.137
		c0-0.131-0.073-1.005-1.005-0.459c-0.936,0.542,0.82,2.61-0.319,2.149c-1.143-0.462-2.06,2.567-1.371,4.842
		c0.688,2.275,4.117,3.79,4.863,4.658c0.746,0.865-0.582,2.756-2.713,4.451c-2.13,1.694-3.143,0.896-5.15,1.246
		c-2.01,0.353,0.988,6.031,2.323,5.551c1.337-0.48-0.484-1.941,0.308-3.423C165.665,121.417,169.013,121.122,171.339,118.486z"/>
	<path fill-rule="evenodd" clip-rule="evenodd" fill="#666666" d="M167.74,146.694c-0.737-0.261-2.617-0.583-0.662,1.078
		c1.958,1.661,2.036,2.801,2.322,5.283c0.287,2.479,2.087,1.057,1.657-2.16C170.634,147.677,167.74,146.694,167.74,146.694z"/>
	<path fill-rule="evenodd" clip-rule="evenodd" fill="#666666" d="M91.162,258.138c1.688,1.397,2.927,5.614,1.53,7.033
		c-1.394,1.421-1.117,2.828,0.162,3.421c1.279,0.596,2.588-3.24,2.303-5.251c-0.286-2.01-2.723-5.481-2.723-5.481
		C91.217,256.529,89.475,256.742,91.162,258.138z"/>
	<path fill-rule="evenodd" clip-rule="evenodd" fill="#666666" d="M145.25,150.362c-0.168-4.495-2.338-7.428-2.338-7.428
		c-0.473-0.667-1.881-0.789-0.383,2.419c1.5,3.208,0.868,7.708,1.283,9.851C144.232,157.348,145.419,154.855,145.25,150.362z"/>
	<path fill-rule="evenodd" clip-rule="evenodd" fill="#666666" d="M73.688,225.938c-1.062,1.552-3.984,4.729-5.784,6.084
		c-1.798,1.358-2.041,4.312-1.233,4.977c0.81,0.665,1.881,0.656,2.493,1.926c0.614,1.269,1.958,1.594,2.146-0.019
		c0.188-1.611-2.776-3.667-1.592-6.361c1.187-2.691,6.245-6.893,6.245-6.893C77.694,224.298,74.747,224.388,73.688,225.938z"/>
	<path fill-rule="evenodd" clip-rule="evenodd" fill="#666666" d="M45.053,79.433c0,0,0.526-1.078-0.281-1.676
		c-0.808-0.598-2.514,4.178-2.366,5.855c0.148,1.676,3.388,4.87,4.521,4.192c1.135-0.682-0.074-0.939-1.496-2.94
		C44.01,82.863,45.053,79.433,45.053,79.433z"/>
	<path fill-rule="evenodd" clip-rule="evenodd" fill="#666666" d="M71.125,291.913c-0.54-0.399-0.78,2.89-3.379,4.589
		c-2.599,1.696-6.095,0.383-6.292,0.92c-0.196,0.538,2.825,1.521,6.366,0.018c3.538-1.505,3.586-3.92,3.586-3.92
		C71.273,293.386,71.666,292.311,71.125,291.913z"/>
	<path fill-rule="evenodd" clip-rule="evenodd" fill="#666666" d="M145.564,139.222c1.212,0.997,2.718,4.875,3.22,8.764
		c0.498,3.887,1.681,0.858,1.183-2.961c-0.499-3.822-3.066-6.082-3.066-6.082C146.093,138.279,144.348,138.226,145.564,139.222z"/>
	<path fill-rule="evenodd" clip-rule="evenodd" fill="#666666" d="M109.735,225.721c-2.273,0.688-12.759,5-15.092,6.56
		c-2.333,1.561-2.592,2.569,0.473,0.668c3.07-1.902,15.764-6.3,15.764-6.3C111.545,226.04,112.007,225.031,109.735,225.721z"/>
	<path fill-rule="evenodd" clip-rule="evenodd" fill="#666666" d="M152.598,138.966c0.038-3.557-2.725-5.683-2.725-5.683
		s-1.216-1.198-1.14-0.057c0.076,1.14,1.905,3.541,1.791,6.292C150.415,142.269,152.558,142.521,152.598,138.966z"/>
	<path fill-rule="evenodd" clip-rule="evenodd" fill="#666666" d="M164.338,80.77c1.938-0.418,6.364-0.118,6.364-0.118
		c1.009,0.259,1.532-1.087-2.091-1.662C164.989,78.415,162.397,81.187,164.338,80.77z"/>
	<path fill-rule="evenodd" clip-rule="evenodd" fill="#666666" d="M118.751,120.245c5.251-5.209,10.003-14.37,10.003-14.37
		c0.596-1.011,0.181-2.484-0.821-2.072c-1.001,0.41-2.044,4.175-6.943,11.459c-4.902,7.287-10.437,10.685-10.564,11.557
		C110.299,127.691,113.498,125.452,118.751,120.245z"/>
	<path fill-rule="evenodd" clip-rule="evenodd" fill="#666666" d="M118.668,177.945c-2.931-6.082-3.04-11.18-3.709-11.242
		c-0.672-0.062-0.459,1.145-1.581,3.434c-1.122,2.29-3.778,5.063-4.178,5.603c-0.397,0.54,0.676,0.731,1.938-0.485
		c1.265-1.219,2.586-3.846,3.061-2.975c0,0,1.995,6.423,8.143,13.018c6.15,6.593,6.338,4.98,5.664,4.316
		C127.33,188.948,121.595,184.027,118.668,177.945z"/>
	<path fill-rule="evenodd" clip-rule="evenodd" fill="#666666" d="M71.767,178.451c0,0-0.812-1.199-1.481-1.063
		c-0.669,0.142,0.842,4.69,6.513,10.147c5.673,5.456,10.779,7.025,13.604,8.613c2.828,1.589,5.136,5.193,4.177,2.92
		c-0.956-2.273-4.461-5.063-11.189-8.635C76.661,186.866,71.767,178.451,71.767,178.451z"/>
	<path fill-rule="evenodd" clip-rule="evenodd" fill="#666666" d="M145.485,212.891c-1.886-1.327-0.661,0.943-1.158,6.046
		c-0.496,5.104-2.993,11.297-2.688,15.991c0.305,4.692,1.781,4.951,1.477,0.123c-0.307-4.829,1.406-8.601,2.695-14.918
		C147.099,213.816,145.485,212.891,145.485,212.891z"/>
	<path fill-rule="evenodd" clip-rule="evenodd" fill="#666666" d="M64.543,162.942c-1.066,0.679-6.135,3.539-8.139,4.494
		c-2.003,0.954-1.865,1.354-3.716,4.859c-1.847,3.503-4.526,3.657-5.865,3.806c-1.337,0.143,1.484,1.059,4.683-0.845
		c3.201-1.903,2.927-2.974,4.248-5.267c1.32-2.291,8.932-5.841,8.932-5.841C65.755,163.472,65.609,162.264,64.543,162.942z"/>
	<path fill-rule="evenodd" clip-rule="evenodd" fill="#666666" d="M159.988,250.483c2.679,0.246,3.489,0.844,3.848,3.725
		c0.356,2.883-0.583,2.621-1.785,2.898c-1.205,0.278-0.051,2.351,0.898,3.55c0.948,1.201,2.541-0.422,3.196-2.172
		c0.658-1.75-0.861-7.441-2.476-8.367c-1.616-0.925-6.034-0.288-6.034-0.288C156.365,250.242,157.306,250.232,159.988,250.483z"/>
	<path fill-rule="evenodd" clip-rule="evenodd" fill="#666666" d="M171.384,132.642c-2.018-0.923-3.488-0.307-2.41,0.356
		c1.077,0.663,2.495,1.858,4.321,4.124c1.827,2.267,3.784,4.132,2.889,0.917C175.285,134.826,171.384,132.642,171.384,132.642z"/>
	<path fill-rule="evenodd" clip-rule="evenodd" fill="#666666" d="M171.584,90.373c-0.402-0.064-2.341,0.42-2.001,1.155
		c0.341,0.736,3.62,0.039,5.976,1.431c2.354,1.389,5.581,2.705,3.078-0.295C176.136,89.665,171.584,90.373,171.584,90.373z"/>
	<path fill-rule="evenodd" clip-rule="evenodd" fill="#666666" d="M170.809,85.55c3.083-0.093,3.561,1.311,5.514,2.37
		c1.95,1.057,2.06-2.163-1.234-3.479c-3.291-1.316-7.236-0.011-7.236-0.011C166.183,85.383,167.728,85.637,170.809,85.55z"/>
	<path fill-rule="evenodd" clip-rule="evenodd" fill="#666666" d="M149.608,73.84c3.03,1.787,4.346-1.041,5.633,0.492
		c1.284,1.533-0.515,2.823-2.239,4.916c-1.727,2.093-1.389,2.426,2.369,3.335c3.764,0.909,8.821,5.364,8.512,8.452
		c-0.31,3.091-1.925,2.163-2.718,3.511c-0.794,1.35,2.358,1.793,4.285-0.033c1.929-1.828,1.236-4.907,0.352-6.511
		c-0.884-1.604-2.353-0.987-2.831-2.46c-0.482-1.473-3.449-3.462-5.328-4.051c-1.881-0.591-2.558-1.32-0.691-2.945
		c1.862-1.625,1.566-5.045-0.919-5.964c-2.488-0.921-5.627,0.044-7.8-3.16c-2.17-3.203,0.797-9.398,0.797-9.398
		c0.655-1.816-0.675-0.464-2.648,4.047C144.408,68.581,146.578,72.052,149.608,73.84z"/>
	<path fill-rule="evenodd" clip-rule="evenodd" fill="#666666" d="M170.998,126.204c-1.076-0.258-1.609,0.215-0.397,1.011
		c1.214,0.794,3.438,2.657,5.403,5.188c1.965,2.535,3.155,0.78,0.784-2.354C174.419,126.916,170.998,126.204,170.998,126.204z"/>
	<path fill-rule="evenodd" clip-rule="evenodd" fill="#666666" d="M51.022,198.477c0.692,3.212-4.111,5.534-4.367,7.012
		s4.815-0.979,5.461-4.205c0.644-3.225-0.713-5.36-0.713-5.36C51.267,195.656,50.325,195.259,51.022,198.477z"/>
	<path fill-rule="evenodd" clip-rule="evenodd" fill="#666666" d="M109.311,95.899c-1.274,0.01-2.276,0.485-1.604,0.614
		c0.669,0.129,5.57,0.963,7.322,2.292c1.753,1.327,3.898,1.512,1.604-0.686C114.335,95.925,109.311,95.899,109.311,95.899z"/>
	<path fill-rule="evenodd" clip-rule="evenodd" fill="#666666" d="M197.319,243.073c0.762-5.373,0.191-9.661,0.191-9.661
		l1.872-0.555c0,0,0,0-0.829-3.213c-0.828-3.212-3.266-6.146-3.266-6.146l0.789-2.154c0,0-8.083-5.305-12.1-4.466
		c-4.013,0.836-5.073,2.453-17.178-3.352c-12.106-5.81-18.083-15.423-22.948-20.752c-4.867-5.329-9.969-6.361-17.008-15.163
		c-7.041-8.8-6.271-13.638-6.271-13.638l1.447-3.231c0,0,0.009,1.207,1.237,4.149c1.23,2.943,4.173,2.249,8.492,5.972
		s2.883,8.432,2.883,8.432l4.399-2.719c0,0,1.222,1.869,3.116,4.27c1.895,2.398,0.045,5.637,0.045,5.637s2.014,0.383,5.089-0.445
		c3.078-0.828,6.005-3.132,6.005-3.132s3.476-1.238,5.07-2.995c1.596-1.756,1.872-0.551,4.272-2.18
		c2.398-1.63,4.502-7.013,4.502-7.013s1.74-0.147,4.265-2.582c2.53-2.436,1.983-3.64,2.229-6.327
		c0.245-2.685,1.051-2.691,3.711-4.995c2.664-2.301,2.115-3.905,2.115-3.905s1.606-0.416,3.453-4.056
		c1.846-3.635,0.733-8.861,0.854-10.605s2.671-1.23,2.671-1.23s0.515-2.686-0.053-6.708c-0.568-4.023-1.918-5.62-2.47-7.628
		c-0.555-2.011,2.125-2.165,3.868-2.179c1.744-0.014,1.979-3.907,1.675-8.333c-0.302-4.427-3.249-4.537-4.747-7.343
		c-1.497-2.808,0.239-3.491,1.447-3.366c1.209,0.124,1.879,0.388,1.823-6.456c-0.054-6.844-2.365-11.386-3.582-12.717
		c-1.219-1.333-0.176-5.235-1.142-8.446c-0.964-3.213-4.55,0.439-6.979-1.421c-2.428-1.86-0.711-4.959,0.757-5.774
		c1.468-0.817,0.522-2.018-1.769-3.611c-2.293-1.592-4.05-3.591-6.36-7.598s-7.815-5.574-10.786-8.233
		c-2.971-2.661-2.592-5.481-3.79-4.669c-1.2,0.816-3.839,6.204-6.096,8.637c-2.263,2.433-6.124,5.417-6.911,7.303
		c-0.788,1.883-1.592,2.158-2.547,0.018c-0.956-2.138,0.087-6.172,0.087-6.172s-2.949-0.11-4.942,2.32
		c-1.99,2.431-3.838,6.336-3.838,6.336S88.256,9.513,85.422,6.986c-2.834-2.525-6.573-0.886-3.443,5.263
		c3.134,6.146,31.076,48.327,31.757,50.067c0.686,1.741,0.019,2.147-2.518,3.24c-2.54,1.094-4.824,0.174-4.824,0.174
		s0.005,0.535,0.42,2.145c0.413,1.606,2.968,2.524,3.518,4.13c0.547,1.607-4.676,2.05-10.438,2.23
		c-5.761,0.18-10.564,3.172-10.564,3.172s-4.697-0.635-7.213,3.007c-2.52,3.645,3.666,5.876,3.666,5.876s-7.349,2.743-10.945,5.722
		c-3.596,2.98-8.96,2.62-8.96,2.62s0,0,1.754,1.06c1.749,1.06,1.908,4.413,7.672,4.637c5.766,0.224,8.15-3.284,8.15-3.284
		s1.355,1.731,2.973,2.927c1.618,1.195,2.947-0.023,2.947-0.023s0,0.134,1.889,1.33c1.883,1.19,3.083,0.376,3.083,0.376
		s-3.441,5.394-3.809,9.691c-0.369,4.296-4.367,7.012-4.367,7.012s0.669,0.129,1.878,0.388c1.208,0.259,1.606-0.416,1.606-0.416
		s0.958,2.674,2.71,4.004c1.754,1.328,5.77,1.028,5.77,1.028s-0.404-0.399-0.547-1.473c-0.141-1.071,0.39-1.613,2.246-4.177
		c1.856-2.562,2.908-4.854,2.908-4.854s0.268-0.133,1.606-0.279c1.341-0.145,3.075-0.964,3.075-0.964s-1.759-2-2.452-4.944
		c-0.691-2.947,1.432-5.781,4.516-5.537c3.083,0.244,7.935,3.559,7.935,3.559s-1.184,2.961-6.619,10.518
		c-5.434,7.559-11.714,10.022-13.048,10.839c-1.332,0.817-3.603,1.772-5.892,0.18c-2.292-1.593-8.044-0.34-8.044-0.34
		s-4.868-5.731-6.364-8.002c-1.491-2.267-2.854-5.344-3.688-9.093c-0.835-3.749-2.585-4.677-5.955-7.064
		c-3.368-2.388-7.852-10.405-8.951-13.35c-1.094-2.94-1.776-4.68-1.941-8.302c-0.164-3.622-1.923-5.487-1.735-7.568
		c0.184-2.082,1.984-3.169,2.315-3.709c0.333-0.538-2.438-3.269-4.268-5.936c-1.831-2.67-3.158-9.503-3.368-10.644
		c-0.212-1.138,0.054-1.541-1.551-1.33c-1.606,0.216-3.473,1.506-3.473,1.506l-1.282-1.131c0,0-1.675,0.282-3.208,1.3
		c-1.533,1.018-5.189,4.47-5.702,7.425c-0.512,2.954,0.044,5.636,1.547,9.113c1.5,3.475,2.303,3.203,1.786,5.756
		c-0.517,2.555-3.458,3.248-3.458,3.248l1.769,3.342l-2.115,3.907l2.027,1.863c0,0-2.11,4.31,0.604,8.718
		c2.717,4.406,6.075,5.452,6.075,5.452s-0.164-3.62,0.355-5.639c0.521-2.017,1.746,0.122,3.776,2.791
		c2.031,2.666,5.434,9.081,5.059,12.84c-0.369,3.759,2.751,8.969,5.86,12.3c3.109,3.328,6.39,11.489,6.39,11.489
		s-2.932,2.169-5.062,4.065c-2.128,1.894-7.338,4.083-7.338,4.083s0.003,0.404,0.686,1.874c0.684,1.47,5.65,2.638,6.057,3.442
		c0.408,0.8-0.522,1.613-1.976,4.041c-1.457,2.426-1.689,6.721-1.689,6.721s-4.409,1.78-6.689,1.798
		c-2.276,0.018-3.591,3.381-5.447,5.678c-1.86,2.297-3.462,2.979-2.908,5.392c0.556,2.41,0.23,11.939,0.129,15.968
		c-0.102,4.025-1.717,3.233-3.141,9.685c-1.424,6.453,0.076,9.392-0.298,12.885c-0.374,3.491-4.035,15.328-4.035,15.328
		s1.879,0.253,5.361,0.228c3.485-0.029,12.986-1.715,14.05-2.795c1.066-1.082,0.907-4.035,0.757-5.911
		c-0.148-1.877,0.111-3.222,1.444-3.769c1.334-0.547,4.411-1.51,4.132-2.985c-0.282-1.473-2.105-3.403-2.318-4.679
		c-0.21-1.273-0.011-1.675,2.673-1.361c2.682,0.314,5.244,2.575,5.244,2.575s1.064-1.217,1.191-2.291
		c0.125-1.072,0.116-2.08,0.116-2.08s0.92-2.155,0.704-4.166c-0.215-2.011-0.893-2.877-0.893-2.877s0.785-2.355-0.642-4.761
		c-1.424-2.404-2.708-3.467-5-5.126c-2.29-1.659-2.502-2.998-2.179-4.611c0.323-1.613,1.837-4.777,1.837-4.777
		s2.308,3.872,5.216,7.202c2.909,3.334,8.909,8.317,11.61,10.78c2.7,2.46,4.487,7.746,4.487,7.746l2.32-3.038
		c0,0,0.677,0.868,0.884,1.471c0.203,0.602,0.637,4.354,0.637,4.354s1.673-0.146,3.543-1.033s1.925-2.363,1.925-2.363
		s3.636,2.118,4.451,3.652c0.814,1.537,0.362,3.354,0.362,3.354s0.674,0.327,1.807-0.149c1.136-0.479,2.059-2.232,3.063-2.574
		c1.002-0.344,5.494,0.091,5.366,0.695c-0.129,0.604-2.786,3.446-7.803,4.759c-5.015,1.316-11.896,3.785-11.896,3.785
		s-0.406-0.265-3.023-1.184c-2.622-0.919-8.911,0.069-14.647,3.469c-5.734,3.403-18.472,19.737-21.249,24.726
		c-2.774,4.987-7.469,4.219-7.469,4.219s0.014,1.744,2.575,3.736c2.56,1.992,5.909,1.565,5.909,1.565s0.009,1.07,0.022,3.22
		c0.019,2.146-1.827,5.918-1.827,5.918s0.941,0.528,2.811-0.425c1.87-0.954,3.48-0.565,3.48-0.565s0.402-0.003,0.826,3.081
		c0.429,3.081-1.708,3.904-1.708,3.904s0.54,0.802,2.552,1.053c2.013,0.255,4.425,0.234,4.425,0.234l-2.509,4.851
		c0,0,2.013-0.015,4.958-0.442c2.943-0.426,6.546-2.332,6.546-2.332l-0.775,3.361l3.749-0.434c0,0-2.35,7.801-5.549,10.109
		c-3.199,2.306-12.778,10.968-13.833,13.258c-1.054,2.292-0.099,4.432-0.099,4.432l-5.667,12.12c0,0,13.542,0.833,18.354-0.817
		c4.813-1.647,5.982-6.084,5.982-6.084s1.604-0.282,2.943-0.696c1.334-0.413,2.932-2.169,1.713-3.904
		c-1.223-1.736-2.299-2.396-0.044-5.366c2.255-2.971,5.336-2.993,8.962-2.218c3.624,0.775,3.952,8.289,3.952,8.289
		s1.736-0.82,3.324-3.517c1.585-2.695,1.172-4.034,1.172-4.034s2.682-0.023,4.146-0.975c1.467-0.948,2.666-2.032,2.666-2.032
		s0,0-0.81-0.665c-0.808-0.663-1.357-2.27-1.357-2.27s1.339-0.146,2.678-0.291c1.339-0.145,2.271-0.822,2.271-0.822l-1.228-2.808
		l4.145-0.972c0,0-0.937-0.397-1.216-1.468c-0.277-1.071-0.556-2.547-0.715-5.764c-0.159-3.22-2.567-2.53-2.859-5.747
		c-0.292-3.221,1.726-2.164,3.568-6.47c1.842-4.31-2.626-9.909-6.121-11.225c-3.495-1.313-5.92-3.173-5.147-6.937
		c0.776-3.762,3.56-7.408,10.382-9.207c6.818-1.798,14.83-5.62,14.83-5.62s0.977,4.558,0.321,6.573
		c-0.655,2.021-1.726,1.759-3.707,5.801s2.204,7.63,3.462,14.197c1.26,6.564-3.564,6.737-3.564,6.737s1.089,2.138,3.234,2.256
		c2.144,0.115,5.219-0.848,5.219-0.848s0.695,2.813,4.593,4.659c3.903,1.847,3.649,3.595,3.649,3.595l-10.952,4.919
		c0,0-4.03-1.312-8.965,1.813c-4.933,3.125-10.872,14.578-13.914,19.97c-3.037,5.393-7.436,8.512-7.436,8.512
		s2.137-0.955,8.839-0.47c6.706,0.484,13.683,1.502,18.641,1.463c4.958-0.042,6.56-1.127,5.865-4.207
		c-0.695-3.082-2.05-4.815-2.05-4.815s0.541,0.399,2.288,1.055c1.75,0.658,4.42-0.168,4.42-0.168s-2.994-5.746-0.996-7.373
		c2-1.627,4.908-6.344,5.434-7.692c0.526-1.343,9.75-4.235,11.094-4.112c1.338,0.122-2.23,6.326-4.617,9.564
		c-2.387,3.24-3.873,1.641-5.613,1.922c-1.74,0.282,2.447,4.543,2.322,5.618c-0.124,1.073-6.49,9.846-6.49,9.846l23.987-0.324
		c0,0,1.042-3.898,2.108-4.713c1.063-0.813,3.218-0.023,3.877-1.237c0.661-1.214-3.379-3.597-2.19-5.618
		c1.191-2.021,5.591-4.874,8.275-4.359c2.687,0.515,3.657,5.07,3.657,5.07s1.607-0.282,3.609-1.641
		c1.995-1.357,1.973-4.443,1.973-4.443s3.354,0.242,4.678-1.378c1.33-1.621,3.198-2.172,3.198-2.172s-0.668,0.005-1.743-0.793
		c-1.08-0.796-1.225-1.869-1.225-1.869s2.143-0.283,3.478-1.234c1.329-0.949,3.056-3.379,3.056-3.379l-2.424-1.056
		c0,0,1.07-0.273,2.398-1.896c1.326-1.621,2.522-3.106,2.522-3.106s-2.687-0.649-4.164-1.175c-1.478-0.524-4.058-4.531-4.058-4.531
		l1.592-1.891l5.628-0.043c0,0,0,0-0.016-2.146c-0.017-2.149,1.313-3.232,1.313-3.232l4.832,1.038c0,0,0-0.271,0.251-2.421
		c0.251-2.147,1.302-5.109,1.302-5.109l5.086-0.577c0,0,0,0-1.362-2.673C195.505,250.869,196.558,248.446,197.319,243.073z
		 M127.729,61.132c-0.259,1.143-2.118,3.238-3.998,3.118c-1.874-0.12-1.953-1.46-3.085-0.648c-1.134,0.814-2.269,1.294-2.269,1.294
		s-1.953-1.395-2.431-2.465c-0.478-1.068-0.15-1.743-0.15-1.743S127.988,59.99,127.729,61.132z M87.282,17.841
		c-0.813-1.234-4.881-7.24-5.064-9.151c-0.185-1.911,2.077,0.019,2.077,0.019s7.568,7.956,8.416,9.258
		c0.849,1.302,0.245,1.542-1.565,1.187C89.332,18.799,88.095,19.076,87.282,17.841z M89.048,20.713c0,0-0.272-0.4,0.164-0.539
		c0.434-0.139,3.818-0.065,4.49,0.199c0.671,0.263,2.43,2.128,2.668,2.695c0.24,0.57-3.58,0.466-4.688,0.139
		C90.571,22.882,89.048,20.713,89.048,20.713z M91.321,24.417c0.231-0.504,1.575-0.145,1.575-0.145s3.882-0.167,4.824,0.228
		c0.941,0.396,2.636,2.464,2.373,3.136c-0.264,0.672-6.334,0.284-6.906-0.482C92.609,26.388,91.091,24.924,91.321,24.417z
		 M94.174,29.16c0,0-0.27-0.233,0.464-0.44c0.736-0.208,4.99-0.307,6.1,0.151c1.108,0.462,3.036,2.694,2.84,3.334
		c-0.194,0.637-4.051,0.232-6.029,0.046C95.568,32.066,94.174,29.16,94.174,29.16z M97.055,33.329
		c0.027-0.436,1.403-0.279,1.403-0.279s5.327,0.028,6.707,0.92c1.383,0.893,2.631,2.26,2.539,2.9
		c-0.097,0.637-7.27,0.291-8.313-0.306C98.347,35.969,97.025,33.764,97.055,33.329z M100.374,37.965
		c0.667-0.374,6.063-0.182,7.607,0.309c1.546,0.492,4.247,3.22,3.347,3.73c-0.9,0.513-6.966,0.259-6.966,0.259
		s-0.974-0.328-2.02-1.159C101.297,40.273,99.707,38.34,100.374,37.965z M103.975,44.244c-0.106-0.871,4.584-0.872,4.584-0.872
		s4.353-0.506,5.706,0.992c1.35,1.5,2.705,3.435,1.433,3.58c-1.271,0.143-6.326,0.485-7.402,0.023
		C107.218,47.507,104.085,45.116,103.975,44.244z M108.277,50.081c0,0-0.676-0.731,0.061-0.805c0.738-0.074,7.57-0.261,9.114,0.263
		c1.547,0.524,3.511,3.258,3.382,3.73c-0.129,0.47-7.77,0.466-9.38,0.209C109.842,53.222,108.277,50.081,108.277,50.081z
		 M111.737,55.421c-0.344-0.937,9.715-0.346,10.518-0.286c0.803,0.063,4.048,3.458,3.384,4.067c-0.667,0.609-8.773,0.74-10.05,0.348
		C114.313,59.158,111.737,55.421,111.737,55.421z M108.619,67.59c0,0,2.419,1.121,4.551-0.439c2.133-1.56,3.741-1.303,4.75-0.708
		c1.011,0.596,3.146-0.563,3.146-0.563s1.355,1.666,3.557,0.443c2.199-1.226,3.58-4.792,6.273-3.07c0,0-0.051,2.214,0.701,4.021
		c0.75,1.805,1.914,4.615,0.045,5.5c-1.869,0.889-4.643-2.31-8.405-3.421c-3.762-1.11-8.445-0.203-10.183,0.416
		C111.319,70.385,108.619,67.59,108.619,67.59z M83.234,94.561c-3.596,2.916-5.53,3.938-8.48,3.961
		c-2.948,0.023-4.713-2.849-4.713-2.849s4.222-0.169,8.688-3.222c4.464-3.056,7.063-4.754,10.82-4.18
		c3.757,0.576,5.641,1.5,2.97,2.729C92.519,90.999,86.828,91.647,83.234,94.561z M89.634,98.872
		c-1.336,0.413-4.974-2.107-2.71-3.734c2.265-1.63,9.893-3.033,10.412-5.051c0.521-2.017-3.776-3.323-7.667-3.962
		c-3.892-0.642-6.987-2.228-6.207-5.05c0.782-2.826,4.138-2.182,3.88-0.972c0,0-0.79,1.752,4.448,3.185
		c5.237,1.436,8.473,3.961,8.768,7.446c0.296,3.485-0.92,2.02-5.197,3.264C91.082,95.237,90.97,98.459,89.634,98.872z
		 M45.993,54.399c0.327-1.076,2.195-2.232,2.144-0.287c0,0,2.073,8.304,2.488,9.912c0.416,1.606-1.858,2.026-1.941,0.147
		C48.603,62.295,45.667,55.475,45.993,54.399z M36.668,61.317c0.505-3.695,4.632-7.352,5.567-7.626
		c0.935-0.275,1.276,0.459,1.276,0.459s3.028,10.107,2.836,11.25c-0.191,1.139-3.879,0.77-6.01,2.529
		C38.208,69.69,36.16,65.009,36.668,61.317z M60.868,121.777c-2.56-1.724-5.41-6.264-6.239-9.343
		c-0.829-3.081,0.764-5.24,0.081-6.578c-0.678-1.334-8.831-14.959-10.438-14.812c-1.604,0.148-2.793,2.438-2.913,4.318
		c-0.12,1.879-0.111,2.819-0.111,2.819s-4.318-3.589-4.074-6.678c0.245-3.088,1.57-4.842,1.57-4.842l-2.962-1.856l3.722-3.787
		l-2.297-2.396c0,0,3.604-2.042,3.315-4.455c-0.286-2.415-1.24-4.016,1.166-5.377c2.4-1.36,6.158-0.45,6.158-0.45
		s2.931-2.438,4.949-1.65c2.017,0.789,0.007,0.939-0.106,3.758c-0.11,2.817-0.365,4.434,0.863,7.508
		c1.232,3.076,0.861,7.104,0.861,7.104s0.951,1.604,3.538,6.682c2.585,5.078,3.958,9.094,6.652,10.683
		c2.692,1.59,4.988,3.718,6.488,7.06c1.5,3.343,2.057,6.022,2.057,6.022l6.927,11.352c0,0-2.131,1.897-5.076,2.188
		c-2.945,0.292-8.152,3.151-8.152,3.151S63.428,123.499,60.868,121.777z M48.391,221.779c-1.027,1.246-6.583,1.962-6.583,1.962
		c-1.205,0.415-1.241-0.023-0.359-3.148c0.879-3.128,2.082-7.699,1.006-8.162c-1.076-0.459-2.068,9.544-4.004,10.3
		c-1.937,0.752-2.481,0.018-1.53-2.674c0.951-2.69,1.643-8.332,2.271-9.11c0.633-0.774,2.844-1.026,4.953-0.842
		c2.112,0.185,5.854,3.072,6.066,4.347C50.421,215.725,49.42,220.528,48.391,221.779z M64.03,309.814
		c-1.862,1.559-7.222,1.736-9.369,1.349c-2.148-0.384-1.548-0.927,0.238-3.961c1.784-3.033,2.172-4.713,0.893-5.442
		c-1.276-0.728-2.975,5.057-3.298,6.537c-0.324,1.477-3.319,4.119-4.007,1.91c-0.686-2.209,5.018-9.7,5.018-9.7
		c2.271-0.758,5.295,0.022,7.391,2.69c2.101,2.666,4.24,2.315,4.981,2.713C66.618,306.307,65.895,308.256,64.03,309.814z
		 M97.424,236.084c-4.815,1.648-9.602,6.113-10.105,10.41c-0.501,4.298,2.604,7.227,4.349,7.614c1.745,0.39,8.194,2.219,7.829,6.918
		c-0.364,4.699-3.302,5.929-3,10.086c0.3,4.157,2.581,4.274,3.402,6.953c0.826,2.677,0.577,4.96,0.577,4.96
		s-1.731,1.354-3.222-0.781s-2.175-3.604-3.248-3.866c-1.072-0.259-0.122,1.478,1.378,4.552c1.496,3.075,2.576,3.87,2.576,3.87
		s-2.94,1.231-4.565-0.769c-1.623-1.998-3.121-5.072-3.921-4.666c-0.801,0.411,2.166,2.668,2.592,5.618
		c0.424,2.946,2.585,4.943,2.585,4.943s-1.997,1.76-3.61,1.102c-1.616-0.658-3.134-6.685-4.607-6.405
		c-1.473,0.281,0.815,1.606,1.648,5.087c0.831,3.482-0.344,7.384-0.344,7.384s-1.937-7.633-6.493-7.462
		c-4.556,0.169-6.294,0.586-9.348,4.099c-3.056,3.514,0.849,5.762,0.055,6.976s-3.185,3.785-6.698,0.323
		c-3.513-3.463-6.607-5.048-10.091-5.021c-3.485,0.028,1.583-3.233,2.904-5.657c1.32-2.426,10.658-8.002,10.658-8.002
		s0.773-3.628,2.091-6.324c1.321-2.693,5.425-9.032,5.425-9.032s0.946,1.066,2.672-1.229c1.722-2.295,1.408-8.33,1.408-8.33
		s2.931-1.769,1.968-4.981c-0.962-3.213-1.502-3.745-1.502-3.745s0.499-4.569-2.197-6.558c-2.695-1.992-4.307-2.383-3.494-1.313
		c0.813,1.065,3.508,3.058,3.254,4.937c-0.251,1.882-3.067,1.902-1.989,2.701c1.08,0.798,3.222,0.51,3.915,3.055
		c0.688,2.545-0.238,4.028-0.238,4.028s-3.765-1.446-3.352-0.108c0.413,1.339,1.888,1.598,1.914,4.547
		c0.021,2.952-1.572,4.845-1.572,4.845s-3.104-2.93-3.497-1.717c-0.393,1.212,0.018,2.28-0.91,3.765
		c-0.928,1.481-3.861,2.981-3.861,2.981s1.159-5.913-0.044-5.502c-1.205,0.413-2.394,2.568-5.066,3.395
		c-2.675,0.827-4.817,0.979-4.817,0.979s0.658-1.479,1.306-4.305c0.647-2.823,3.047-4.454,1.575-4.174
		c-1.473,0.282-2.392,2.705-3.993,3.523c-1.602,0.815-3.878,0.835-3.878,0.835s1.725-2.027,1.168-4.706
		c-0.559-2.68-0.175-5.232-0.175-5.232s-0.526,1.346-2.535,1.361c-2.012,0.017-3.217,0.162-3.217,0.162s2.128-2.165,2.096-6.325
		c-0.032-4.158,0.471-8.055,2.465-10.084c1.994-2.028-1.214-1.332-2.664,2.034c-1.449,3.366-1.304,4.707-3.309,4.991
		c-2.009,0.285-5.101-0.899-5.101-0.899s4.673-2.184,7.446-7.305c2.774-5.12,12.727-17.413,19.399-21.221
		c6.671-3.81,10.698-3.038,15.13-1.598c4.436,1.442,6.324,3.171,6.045,1.698c-0.279-1.475-5.779-2.236-3.64-2.79
		c2.14-0.554,9.505-1.415,13.641-3.597c4.137-2.178,6.94-3.676,6.94-3.676s5.389,3.714,5.413,6.665
		c0.023,2.95-0.877,7.386,0.074,9.125c0.95,1.734,2.315,4.678,2.315,4.678S102.234,234.435,97.424,236.084z M129.703,284.67
		c-3.07,1.501-0.906,3.768-3.033,6.197c-2.125,2.433-4.798,3.26-5.182,5.545c-0.383,2.282,1.78,4.813,1.78,4.813
		s-4.693-0.497-5.648-2.504c-0.956-2.005,0.235-4.027-0.967-3.614c-1.202,0.411-2.781,4.316-1.149,7.121
		c1.632,2.804,3.64,2.789,3.79,4.667c0.148,1.876-1.579,3.633-3.331,2.438c-1.754-1.19-2.192-5.751-2.982-4.27
		c-0.794,1.484,1.232,3.48,0.027,3.758c-1.202,0.279-6.696,0.591-10.857-0.316c-4.161-0.907-8.313-0.607-8.313-0.607
		s5.174-6.479,7.279-11.461c2.105-4.981,8.208-12.679,12.354-14.186c4.141-1.51,6.963-0.458,9.096-1.953
		c2.133-1.491,26.599-8.934,29.02-7.878c0,0,1.511,4.416-1.024,5.911C148.027,279.83,132.775,283.171,129.703,284.67z
		 M131.069,270.84c0,0,5.371,1.432,4.845,2.509c-0.526,1.078-4.143,1.646-4.42,0.438
		C131.215,272.582,131.203,270.973,131.069,270.84z M136.824,308.199c-0.795,1.313-5.918,1.421-6.124,0.987
		c-0.206-0.436,4.733-7.385,5.567-7.826c0.833-0.445,2.111,0.082,2.145,0.115c0,0,1.113,0.999,0.521,2.177
		C138.338,304.832,137.617,306.884,136.824,308.199z M148.317,308.609c-0.798,0.744-7.907,0.028-8.946,0.072
		c-1.035,0.042,0.629-1.281,1.684-3.502c1.055-2.225-0.064-3.926-0.064-3.926s2.804-1.331,4.962,0.465
		c2.158,1.795,4.376,2.614,4.349,3.42C150.275,305.944,149.116,307.864,148.317,308.609z M194.718,244.705
		c-1.512,3.77-0.189,9.933-0.189,9.933s-3.297-1.787-3.961-0.975c-0.664,0.808,0.818,1.602,0.622,2.276
		c-0.196,0.672-1.048,2.958-1.434,5.109c-0.386,2.149-1.06,1.348-2.21,0.351c-1.146-0.996-2.354-1.188-3.283-0.041
		c-0.931,1.149-1.642,4.243-1.769,5.182c-0.127,0.939-2.483-0.718-3.151-0.242c-0.666,0.473-1.724,2.495-2.397,1.964
		c-0.671-0.533-4.105-2.518-5.186-3.448c-1.081-0.931,3.591-3.518,6.854-6.026c3.263-2.507,9.011-12.616,6.394-21.654
		c-2.618-9.034-11.223-12.591-14.85-13.837c-3.63-1.247-12.428-3.792-15.729-6.049c-3.301-2.254-2.645-4.341-3.781-3.593
		c-1.132,0.747-0.313,2.62-0.623,6.112c-0.307,3.489-2.872,9.347-3.43,15.122c-0.559,5.775,0.338,8.651,2.966,10.776
		c2.629,2.129,6.312,1.494,8.783,0.402c2.47-1.095,3.941-1.106,4.688-0.238c0.744,0.865,4.109,3.188,5.458,4.183
		c1.351,0.997,0.114,5.569,0.346,9.659c0.236,4.09,0.521,6.638,1.868,7.231c1.345,0.593,4.026,1.04,5.46,4.252
		c1.434,3.209,3.257,5.004,4.531,5.396c1.278,0.393,1.883,0.591,1.883,0.591s-0.051,2.079-2.194,2.164
		c-2.145,0.083-4.72-3.787-6.539-4.713c-1.814-0.926-1.87,0.418-1.263,1.085c0.607,0.666,5.205,5.793,6.55,6.453
		c1.347,0.66,2.287,0.99,2.287,0.99s-1.125,2.022-3.134,1.969c-2.012-0.051-3.78-3.591-6.139-5.317
		c-2.359-1.727-3.763-1.11-3.763-1.11s2.89,0.783,4.253,4.058c1.365,3.278,2.392,5.819,3.068,6.349
		c0.672,0.532,0.941,0.732,0.941,0.732s-0.658,1.482-2.673,0.761c-2.017-0.724-2.646-4.006-5.14-5.799
		c-2.493-1.791-2.749-0.381-2.749-0.381s2.96,1.588,3.725,5.07c0.765,3.481-0.951,6.852-0.951,6.852s-1.366-3.277-4.459-4.797
		c-3.096-1.519-1.722-5.553-3.199-5.945c-1.477-0.391-1.87,0.554-2.188,2.836c-0.318,2.283,0.36,3.084-2.04,4.848
		c-2.396,1.763-9.38,0.073-10.247,0.55c-0.867,0.478-0.592,1.414,2.094,2.13c2.688,0.718,3.759,0.712,3.033,2.257
		c-0.725,1.552,0.703,3.954-0.234,4.027c-0.938,0.077-5.125-3.648-7.336-4.032c-2.215-0.387-6.43,0.587-7.84,0.061
		c-1.411-0.526,1.859-2.16,4.377-5.737c2.517-3.576,3.823-7.947,7.361-9.587c3.538-1.636,6.135-3.602,6.391-5.282
		c0.254-1.681-0.865-7.71-0.618-10.461c0.245-2.754-0.488-2.347-2.174-3.54c-1.684-1.193-2.899-2.19-3.79-4.668
		c-0.889-2.474-0.297-4.021-1.297-3.341c-1,0.679-0.977,3.697,0.789,6.769c1.769,3.072,2.786,4.809,2.798,6.353
		c0.013,1.541-1.403,0.479-3.421-0.511s-3.467-6.144-4.533-5.331c-1.064,0.813,0.504,4.156,1.59,6.093
		c1.088,1.938,0.025,3.288-0.916,2.825s-4.459-4.796-5.207-6.13c-0.748-1.339-1.736,0.614-0.856,1.883
		c0.882,1.27,2.763,1.924,2.509,3.67c-0.254,1.747-0.318,2.084-1.468,0.885c-1.149-1.198-5.309-1.972-6.462-3.838
		c-1.154-1.871-0.773-4.492-1.842-3.947c-1.067,0.547,0.299,3.757-0.43,4.768c-0.729,1.014-1.935,1.023-1.935,1.023
		s-3.227-1.182-3.245-3.331c-0.016-2.147,1.307-4.64-0.37-4.425c-1.673,0.215-0.318,1.882-2.46,2.168
		c-2.142,0.286-3.82,0.164-3.82,0.164s3.852-4.189,2.625-6.999c-1.229-2.81-4.077-7.282-4.229-9.493
		c-0.152-2.214,0.905-4.034,0.905-4.034s2.477,8.031,8.256,10.065c5.776,2.035,11.528,0.244,12.784-1.71
		c1.258-1.956-0.141-0.873-2.811,0.224c-2.674,1.094-12.518,1.845-14.865-6.658c-2.345-8.504-1.318-14.349-0.427-20.192
		c0.894-5.844,0.497-13.356-0.524-15.294c-1.02-1.938-1.95-0.989-1.659,1.825c0.291,2.814,1.849,4.952,1.008,9.05
		c-0.837,4.098-1.107,3.766-1.521,2.36c-0.413-1.405-0.815-9.587-3.114-12.12c-2.296-2.531-4.92-4.053-6.425-7.732
		c-1.503-3.676-2.073-7.766-2.955-9.167c-0.882-1.402-1.556-2.068,0.046-2.818c1.602-0.751-4.736-5.53-4.736-5.53
		s1.125-1.151-0.088-2.417c-1.219-1.265-12.134-9.026-12.125-7.819c0.012,1.207,8.094,6.778,7.633,7.921
		c-0.457,1.146-3.272,0.968-1.523,2.095c1.752,1.124,7.928,2.819,7.474,4.637c-0.453,1.816-3.283,0.024-1.727,1.825
		c1.556,1.797,3.037,2.658,4.071,6.608c1.039,3.951,1.514,4.752,1.514,4.752s-3.61,0.97-5.027-0.161
		c-1.417-1.13-1.567-3.275-2.299-2.533c-0.732,0.746-0.121,2.016-0.983,3.029c-0.861,1.013-0.799,0.676-1.886-1.395
		s-4.785-3.585-5.791-3.577c-1.004,0.007-0.792,1.484-1.455,2.291c-0.665,0.813-1.668,1.021-1.668,1.021s-1.459-6.428-2.664-6.422
		c-1.207,0.013-0.995,1.418-1.724,2.097c-0.734,0.676-0.076-0.939-3.73-5.336c-3.651-4.402-9.311-8.448-12.018-12.051
		c-2.708-3.601-3.125-5.343-3.125-5.343s4.531-3.255,7.213-3.009c2.682,0.247,8.053,1.681,13.526-1.315
		c5.47-2.993,7.478-3.279,9.597-6.649c2.117-3.372-0.043-5.5-0.964-3.213c-0.919,2.288-0.102,3.892-5.046,5.676
		s-7.603,4.624-12.175,2.778c-4.572-1.841-5.503-1.162-7.503,0.061c-2.001,1.224-7.802,5.095-8.739,5.235
		c-0.937,0.143-1.738,0.685-2.798,2.236c-1.061,1.551-1.352,7.056-1.075,7.926c0.272,0.87,3.365,2.253,5.595,4.45
		c2.229,2.197,2.313,4.477,2.313,4.477s-5.05-3.315-6.32-2.635c-1.265,0.682,2.498,2.061,4.183,3.12
		c1.682,1.062,1.504,4.147,1.504,4.147s-4.189-4.395-5.59-3.58c-1.398,0.818-0.189,1.614,1.561,2.54
		c1.752,0.925,3.508,3.058,3.718,3.995c0.21,0.939,0.215,1.542,0.215,1.542s-4.709-1.908-6.646-1.291
		c-1.936,0.622-2.726,2.842-2.38,4.113c0.347,1.272,2.712,3.399,1.651,4.75c-1.064,1.354-3.072,1.367-4.697-0.498
		c-1.623-1.864-7.79-2.354-9.666-2.338c-1.877,0.013-1.939-7.767,0.307-11.945c2.246-4.178,1.914-12.362,2.006-17.594
		c0.092-5.233-1.27-7.908,1.135-9c2.403-1.092,2.237-5.117,4.642-6.074c2.405-0.961,4.955-0.308,8.561-2.083
		c3.605-1.772,10.012-4.639,12.801-8.018c2.788-3.377,8.258-6.638,11.624-4.652c3.365,1.985,3.233,2.255,5.916,2.368
		c2.68,0.113,5.5,0.896,6.428-0.722c0.924-1.619-1.107-4.287,1.035-4.57c2.142-0.284,2.236-5.251,3.96-7.412
		c1.726-2.16,4.256-4.191,3.18-4.588c-1.075-0.393-4.011,0.971-4.665,3.259c-0.651,2.285-1.032,4.837-2.241,4.713
		c-1.207-0.125-2.015-0.79-3.201,1.77c-1.184,2.56,0.57,4.558-0.626,5.641c-1.197,1.082-5.629-0.09-8.461-2.35
		c-2.832-2.257-8.711-0.062-11.511,1.837c-2.8,1.9-3.977,5.667-7.845,7.846c-3.868,2.176-5.209,2.188-5.209,2.188
		s-0.593-7.109,4.877-10.374c5.47-3.263,8.143-3.955,5.592-4.473c-2.55-0.515-6.285,1.528-7.894,1.673
		c-1.609,0.148-5.505-1.296-5.505-1.296s4.796-3.396,7.861-5.7c3.064-2.303,6.167,0.22,6.562-0.722
		c0.395-0.944-1.897-2.668-1.897-2.668s5.458-4.47,8.545-4.094c3.086,0.378,6.996,3.432,6.31,1.427s-3.779-3.19-0.437-4.157
		c3.343-0.965,8.18,0.609,10.062,1.265c1.881,0.656,9.645-0.616,19.882-11.028c10.236-10.414,10.208-14.036,10.208-14.036
		s4.131-2.851,7.127-5.021c3.001-2.17,6.546-2.669,5.331-3.866c-1.214-1.198-7.076,3.411-10.279,5.112
		c-3.202,1.701-4.672,1.915-7.497,1c-2.821-0.916-5.655-3.58-10.064-1.801c-4.408,1.782-4.105,6.207-3.624,8.014
		c0.485,1.808,0.896,2.878,0.896,2.878s-2.026-2.197-2.686-0.785c-0.661,1.416,0.021,2.551-1.042,4.035
		c-1.06,1.484-4.457,4.196-4.711,5.81c-0.256,1.612-0.253,2.014-0.253,2.014s-0.951-2.004-2.036-3.606
		c-1.087-1.601-2.428-1.859-2.428-1.859s2.649-3.779,3.548-8.885c0.898-5.108,6.121-5.417,6.366-8.505
		c0.242-3.088-2.841-3.598-3.633-1.715c-0.79,1.886-1.586,3.1-4.136,2.315c-2.55-0.785-0.295-3.488,2.241-4.582
		c2.539-1.092,6.174,1.16,7.218-2.606c1.041-3.767-2.475-7.896-5.704-9.348c-3.227-1.45-9.392-1.535-7.4-3.832
		c1.99-2.299,6.537-3.808,12.835-3.726c6.299,0.083,9.112-0.074,9.77-1.687c0.656-1.616,4.921-4.736,8.55-3.556
		c3.628,1.177,8.219,5.705,12.232,5.001c4.017-0.704,3.052-4.588,1.938-9.679c-1.111-5.091-1.809-8.17,2.332-10.083
		c0,0-0.643,3.63,2.215,8.974c2.858,5.343,4.091,8.824,3.436,10.841c-0.654,2.018,0.443,4.829,2.172,3.337
		c1.729-1.488,1.151-6.716-1.15-9.786c-2.301-3.067-1.938-7.767,0.322-10.336c2.256-2.567,8.11-7.845,8.638-8.923
		c0.529-1.078,1.05-2.691,1.05-2.691s2.701,2.259,3.646,3.19c0.946,0.933,0.819,1.741,0.819,1.741s2.009-0.019,3.096,1.716
		c1.085,1.736,2.431,2.399,3.77,1.986c1.336-0.416,1.876,0.12,1.89,1.996c0.016,1.879-0.113,2.819,1.228,2.809
		c1.341-0.011,1.62,1.935,2.639,3.467c1.019,1.537,1.95,0.859,2.292,1.66c0.342,0.801-0.448,2.552-1.102,4.974
		c-0.65,2.421,0.771,4.423,3.453,4.202c2.678-0.224,4.889-0.51,4.843,2.24c-0.047,2.751-1.842,4.777-1.021,6.516
		c0.817,1.74,3.079-0.224,3.961,1.312c0.883,1.537-0.044,2.684,0.531,3.552c0.576,0.868,1.246,0.728,0.955,2.14
		c-0.291,1.41-0.451,2.183,0.124,2.949c0.578,0.767,0.776,0.767,0.587,2.078c-0.189,1.309-0.794,1.548-0.717,2.521
		c0.074,0.972-0.057,1.274-0.89,1.886s-4.063,3.017-1.83,5.819c2.232,2.8,4.65,3.452,5.075,6.199
		c0.423,2.747,0.24,5.164-0.494,5.639c-0.731,0.475-3.684-0.037-4.805,2.116c-1.121,2.157-0.975,3.834,0.456,7.042
		c1.433,3.21,1.589,5.826,1.526,6.565c-0.06,0.736-2.144-0.051-2.809,0.826c-0.661,0.879,0.72,5.966,0.07,8.856
		c-0.647,2.889-1.057,1.818-1.313,3.364c-0.257,1.547-0.711,3.361-1.644,3.77c-0.937,0.411-1.131,1.083-1.131,1.083
		s-0.133,1.208-0.868,1.417c-0.734,0.208-1.068,0.344-1.324,1.688c-0.259,1.344-3.726,3.652-4.25,5.132
		c-0.523,1.479,0.352,1.942-0.237,3.76c-0.588,1.816-0.979,3.43-2.045,4.242c-1.067,0.813-0.612-1.269-1.498-3.142
		c-0.884-1.871-3.177-3.331-4.042-2.651c-0.866,0.679,0.148,1.676,0.771,4.018c0.622,2.344,0.851,6.099-1.211,7.929
		c-2.063,1.828-3.074,1.029-3.673,1.841c-0.595,0.809-1.85,3.168-3.189,3.247c-1.339,0.075-1.542-0.326-2.008,0.214
		c-0.467,0.543,0.08,1.813-1.523,2.228c-1.605,0.415-2.345,0.019-2.945,0.494c-0.598,0.474-1.727,1.957-2.871,1.364
		c-1.143-0.597-0.606-0.802-0.487-2.479c0.121-1.678-5.91-10.419-6.479-14.308c-0.568-3.888-0.064-7.847,0.921-10.606
		c0.983-2.758-1.147-9.585-2.153-9.309c-1.002,0.275-0.455,1.612-0.098,4.36c0.355,2.749-1.813,7.799-1.58,11.956
		c0.232,4.156,2.522,5.752,2.746,8.432c0.225,2.683-1.371,4.438-1.371,4.438s-1.313-4.818-4.139-6.541
		c-2.83-1.725-7.528-2.962-7.746-5.039c-0.219-2.077,0.965-5.039-0.248-6.102c-1.215-1.064-3.02-0.044-5.226,0.108
		c-2.211,0.152-3.292-0.914-1.962-2.267c1.33-1.351,2.948-0.157,4.192-3.589c1.246-3.43,2.756-7.533,4.754-8.826
		c2.001-1.291,4.416-0.974,3.269-1.971c-1.147-0.997-4.897-1.034-3.97-1.98c0.932-0.949,1.471-0.616,3.665-2.647
		c2.195-2.028,3.196-2.64,5.276-2.322c2.077,0.318,2.886,0.111,5.217-1.987c2.326-2.1,7.197-13.611,7.968-17.777
		c0.769-4.164,0.869-8.392,0.595-9.263c-0.273-0.87-3.01,0.561-3.155-0.579c-0.144-1.14,2.135-1.426,2.519-3.845
		c0.381-2.417-1.814-0.321-2.691-1.12c-0.877-0.796,2.053-3.236,1.627-6.183c-0.426-2.95-1.475-0.125-3.352-0.108
		c-1.877,0.014-1.891-1.531-0.974-4.42c0.917-2.893,1.401-9.07,0.397-9.062c-1.004,0.01-1.729,1.626-1.706,4.51
		c0.022,2.883-1.552,7.259-2.214,8.069c-0.664,0.808,1.57,3.744,2.51,3.737c0.937-0.007,2.945-0.226,2.081,0.72
		c-0.863,0.946-3.198,2.509-2.653,3.173c0.539,0.67,2.889,1.187,2.832,2.461c-0.059,1.276-2.063,1.828-1.718,3.032
		c0.344,1.206,4.644,2.379,4.721,3.788c0.077,1.408-1.995,10.551-5.226,16.748c-3.236,6.196-5.582,6.285-7.455,6.299
		c-1.88,0.013-4.35,1.038-6.08,2.529c-1.731,1.491-3.13,3.114-4.607,2.521c-1.479-0.591-1.81,0.15-1.131,1.016
		c0.676,0.868,2.021,1.795,2.036,3.272c0.009,1.475,0.138,0.468-1.126,1.886c-1.261,1.419-1.985,2.834-2.706,5.322
		c-0.715,2.488-0.85,2.892-2.784,3.778c-1.934,0.889-3.591,3.116-3.448,4.588c0.148,1.475,2.239,3.137,2.774,3.468
		c0.54,0.332,1.611,0.392,1.217,1.199c-0.395,0.808-1.572,4.371,2.375,12.058c3.947,7.684,13.378,13.511,18.64,17.763
		c5.258,4.255,9.08,13.08,18.917,19.845c9.837,6.767,19.905,8.566,19.905,8.566s5.203-2.593,9.371-1.147
		c4.167,1.44,5.657,3.712,5.657,3.712s-0.924,1.886-3.873,1.775c-2.947-0.112-3.746,0.966-2.398,1.763
		c1.348,0.795,4.543-1.782,6.163-0.185c1.622,1.598,2.857,5.077,2.857,5.077s-4.295-0.772-4.819,0.843
		c-0.524,1.616,2.82,0.649,3.642,3.056C196.068,237.717,196.229,240.937,194.718,244.705z M170.559,248.387
		c-1.485-1.736-6.474-5.585-9.822-5.424c-3.352,0.159-6.281,2.732-8.838,1.275c-2.555-1.454-4.317-3.588-3.409-7.62
		c0.904-4.033,3.255-12.103,3.743-18.145c0,0,7.806,4.231,16.001,6.717c8.193,2.483,14.536,8.068,14.598,15.852
		c0.063,7.783-0.203,8.187-3.123,11.832c-2.918,3.646-8.117,7.044-8.117,7.044S172.048,250.117,170.559,248.387z"/>
	<path fill-rule="evenodd" clip-rule="evenodd" fill="#666666" d="M126.314,77.111c-1.143-0.259-1.955-1.327-2.836-2.794
		c-0.881-1.471-4.455-3.992-6.777-1.289c-2.324,2.704-0.897,5.039-3.776,5.598c-2.876,0.561-5.902-0.69-13.862,1.117
		c0,0-0.887-1.87-1.959-2.132c-1.073-0.259-3.947,0.904-3.266,2.107c0.679,1.202,3.167,2.254,7.181,1.419
		c4.014-0.838,6.825-1.396,10.446-0.889c3.621,0.508,7.176,0.949,9.318,0.597c2.142-0.353,3.331-2.508,4.604-2.451
		C126.66,78.45,127.457,77.37,126.314,77.111z M119.406,76.227c-0.327,1.076-0.45,2.417-1.389,2.292
		c-0.939-0.127-2.07,0.821-1.948-0.859c0.119-1.678,1.509-3.633,1.509-3.633c1.667-1.154,2.687,0.648,2.687,0.648
		S119.735,75.15,119.406,76.227z"/>
</g>
</svg>
