<?xml version="1.0" encoding="utf-8"?>
<!-- Generator: Adobe Illustrator 17.0.0, SVG Export Plug-In . SVG Version: 6.00 Build 0)  -->
<!DOCTYPE svg PUBLIC "-//W3C//DTD SVG 1.1//EN" "http://www.w3.org/Graphics/SVG/1.1/DTD/svg11.dtd">
<svg version="1.1" id="Layer_1" xmlns="http://www.w3.org/2000/svg" xmlns:xlink="http://www.w3.org/1999/xlink" x="0px" y="0px"
	 width="357.667px" height="317px" viewBox="0 0 357.667 317" enable-background="new 0 0 357.667 317" xml:space="preserve">
<g>
	<g>
		<path fill="#666666" d="M166.285,304.345C166.284,304.345,166.284,304.345,166.285,304.345c-19.581,0-37.985-6.999-48.68-13.549
			l-1.971-1.208l2.294,0.285c6.77,0.84,12.481,3.124,18.005,5.333c5.728,2.29,11.139,4.454,16.782,4.453
			c4.191,0,8.256-1.215,12.384-3.708c-1.806-0.022-3.472-0.002-4.996,0.017c-0.932,0.012-1.812,0.022-2.64,0.022
			c-4.523,0-7.299-0.357-9.013-2.243c-1.684-1.854-2.169-5.066-1.623-10.74l0.022-0.234l0.195-0.132
			c4.641-3.146,9.912-4.777,15.01-6.356c5.587-1.73,10.865-3.365,15.417-6.821l0.522-0.396l0.244,0.609
			c2.837,7.091,0.408,12.516-7.224,16.122c-0.082,0.039-0.087,0.067-0.092,0.1c-0.205,1.247,4.499,5.786,7.611,8.79
			c4.584,4.425,6.291,6.191,6.013,7.195c-0.079,0.286-0.309,0.493-0.629,0.567C178.205,303.708,172.274,304.345,166.285,304.345z
			 M120.378,291.262c10.798,6.065,27.845,12.083,45.906,12.083c0,0,0.001,0,0.001,0c5.862,0,11.667-0.617,17.256-1.836
			c-0.362-0.947-3.429-3.907-5.702-6.102c-4.95-4.776-8.174-8.03-7.904-9.672c0.062-0.373,0.293-0.672,0.651-0.842
			c6.945-3.282,9.225-7.943,6.954-14.238c-4.58,3.298-9.97,4.968-15.19,6.584c-4.956,1.535-10.078,3.121-14.55,6.099
			c-0.475,5.149-0.044,8.157,1.39,9.736c1.463,1.61,4.036,1.916,8.272,1.916c0.824,0,1.7-0.011,2.628-0.022
			c1.989-0.024,4.214-0.052,6.685,0.017l1.565,0.043l-1.301,0.872c-4.776,3.203-9.462,4.76-14.326,4.76
			c-5.836,0.001-11.333-2.197-17.153-4.524C130.816,294.237,125.93,292.284,120.378,291.262z"/>
	</g>
	<g>
		<path fill="#666666" d="M176.561,227.345C176.561,227.345,176.561,227.345,176.561,227.345c-4.502-0.001-9.644-3.187-11.112-4.163
			c-2.954-1.966-4.273-3.986-5.67-6.125c-0.793-1.214-1.613-2.469-2.792-3.832c-2.22-0.933-4.601-1.522-6.905-2.094
			c-2.038-0.505-4.145-1.026-6.161-1.787l-0.162-0.1c-4.875-4.481-7.948-10.349-10.919-16.021
			c-4.898-9.353-9.525-18.187-21.576-21.089c-2.013-0.485-4.271-1.096-6.661-1.742c-7.396-2-15.778-4.268-22.007-4.268l-0.478,0.005
			c-3.448,0.301-6.577,1.083-9.602,1.839c-3.805,0.951-7.399,1.849-11.567,1.849c-1.267,0-2.549-0.087-3.81-0.259l-0.079-0.011
			l0.038-0.27c-0.028-0.006-0.056-0.012-0.082-0.017l-0.104,0.241l-0.044-0.021c-0.01-0.006-0.021-0.011-0.032-0.016
			c-0.025-0.013-0.051-0.025-0.077-0.039c-3.13-1.576-5.789-4.92-7.128-8.973c-1.258-3.81-1.12-7.656,0.381-10.552
			c0.37-0.806,2.075-2.792,4.048-5.09c1.613-1.879,3.798-4.423,4.098-5.119l-0.601-1.179l1.328,0.632
			c3.047,1.451,5.944,2.157,8.854,2.157c5.082,0,9.772-2.143,15.204-4.624c1.019-0.465,2.064-0.943,3.144-1.421l0.788-0.349
			l-0.087,0.856c-0.241,2.351-0.656,4.704-1.058,6.979c-0.227,1.284-0.458,2.595-0.659,3.911
			c4.994-8.081,11.061-15.093,20.552-15.093c1.861,0,3.831,0.277,5.854,0.824c4.321,1.17,7.279,3.932,10.14,6.604
			c3.758,3.509,7.307,6.824,13.791,6.961c2.935,0.149,6.112-0.061,9.563-0.282c2.81-0.18,5.716-0.366,8.581-0.366
			c6.24,0,14.024,0.777,18.879,6.837c7.165,8.936,8.918,17.532,6.05,29.671l-0.135,0.57l-0.542-0.224
			c-1.066-0.438-2.133-0.891-3.196-1.35c4.598,2.842,7.707,6.429,6.372,12.032c-1.545,6.485,2.138,27.805,2.175,28.02l0.015,0.079
			l-0.012,0.08C182.386,226.248,179.145,227.345,176.561,227.345z M144.365,208.443c1.935,0.722,3.98,1.228,5.958,1.718
			c2.378,0.59,4.838,1.199,7.162,2.189l0.18,0.131c1.266,1.449,2.123,2.761,2.951,4.03c1.397,2.139,2.604,3.986,5.387,5.839
			c1.409,0.937,6.335,3.994,10.557,3.995c3.207,0,5.037-1.765,5.593-5.393c-0.286-1.659-3.708-21.797-2.148-28.344
			c1.87-7.851-5.922-11.358-14.171-15.072c-2.943-1.324-5.987-2.694-8.55-4.277l0.448-0.89c3.71,1.481,7.412,3.14,10.991,4.743
			c2.912,1.304,5.917,2.65,8.916,3.896c2.6-11.501,0.846-19.719-5.989-28.243c-4.589-5.729-12.083-6.463-18.099-6.463
			c-2.833,0-5.723,0.185-8.517,0.364c-3.481,0.223-6.742,0.432-9.663,0.284c-6.851-0.145-10.708-3.746-14.438-7.23
			c-2.899-2.707-5.637-5.264-9.718-6.369c-1.939-0.523-3.821-0.789-5.594-0.789c-9.794,0-15.853,8.016-20.94,16.678l-1.197,2.038
			l0.269-2.348c0.245-2.139,0.624-4.285,0.99-6.36c0.349-1.978,0.708-4.014,0.952-6.044c-0.796,0.357-1.574,0.713-2.337,1.062
			c-5.538,2.529-10.32,4.714-15.619,4.714c-2.899,0-5.774-0.66-8.774-2.017c-0.436,0.794-1.604,2.216-4.146,5.178
			c-1.682,1.958-3.587,4.177-3.909,4.877c-1.388,2.679-1.504,6.244-0.33,9.799c1.179,3.568,3.426,6.541,6.09,8.101
			c0.038-0.006,0.079-0.009,0.123-0.009c0.014,0,1.136,0.065,1.614,0.466c0.847,0.079,1.698,0.119,2.542,0.119
			c4.044,0,7.581-0.883,11.324-1.818c3.063-0.766,6.231-1.558,9.792-1.867l0.531-0.007c6.362,0,14.813,2.285,22.269,4.302
			c2.383,0.645,4.634,1.254,6.634,1.735c12.492,3.009,17.441,12.459,22.228,21.598C136.644,198.329,139.659,204.086,144.365,208.443
			z"/>
	</g>
	<g>
		<path fill="#666666" d="M130.532,286.287c-0.001,0-0.002,0-0.003,0c-23.083-0.001-40.21-9.12-49.532-26.371l-0.517-0.956
			l1.063,0.23c1.308,0.283,2.765,0.546,4.309,0.824c4.998,0.901,10.663,1.924,14.452,4.212l0.121,0.103
			c1.187,1.383,2.216,2.884,3.212,4.336c1.144,1.667,2.326,3.391,3.74,4.923c5.232,5.661,12.797,7.979,20.113,10.22
			c1.588,0.486,3.16,0.968,4.686,1.478c0.002,0.001,0.006,0.001,0.007,0.002l-0.123,0.486l0.009,0.5c0,0,0,0,0,0h0
			C131.553,286.282,131.044,286.287,130.532,286.287z M82.402,260.389c11.025,19.438,30.313,24.38,45.562,24.857
			c-0.008-0.036-0.012-0.073-0.012-0.111c0-0.043,0.005-0.089,0.017-0.136c-0.257-0.078-0.515-0.157-0.772-0.236
			c-7.443-2.28-15.139-4.638-20.554-10.497c-1.463-1.585-2.667-3.34-3.83-5.036c-0.966-1.408-1.964-2.863-3.094-4.189
			c-3.632-2.164-9.162-3.161-14.044-4.042C84.529,260.792,83.431,260.594,82.402,260.389z"/>
	</g>
	<g>
		<path fill="#666666" d="M154.886,260.737c-9.668,0-18.061-3.849-25.639-11.761c-0.932,1.165-1.357,2.13-1.299,2.941
			c0.089,1.226,1.284,2.254,2.796,3.557c0.887,0.764,1.893,1.63,2.861,2.695l0.557,0.612l-0.801,0.208
			c-2.201,0.569-4.33,0.858-6.328,0.858c-9.539,0-16.658-6.385-21.713-19.499c-0.061,3.675-0.27,8.473-5.014,8.473
			c-0.43,0-0.895-0.041-1.383-0.122c-4.913-0.921-8.663-2.161-11.813-3.904c-10.018-4.377-13.69-10.119-13.813-21.787
			c-2.229,0.413-2.497,1.52-2.994,3.577c-0.148,0.614-0.316,1.311-0.56,2.065l-0.164,0.508l-0.496-0.196
			c-2.914-1.154-5.066-3.342-7.147-5.458c-0.704-0.716-1.432-1.456-2.17-2.135c-0.117-0.105-0.217-0.195-0.301-0.272l-0.248-0.223
			l0.006-0.007c-0.005-0.005-0.009-0.01-0.014-0.014c-5.203-5.069-6.887-14.938-7.707-19.739l-0.571-3.346l1.512,3.039
			c5.396,10.849,15.829,13.423,26.873,16.148c1.485,0.366,3.009,0.742,4.514,1.141c-3.086-3.578-8.039-5.163-12.842-6.7
			c-7.326-2.345-14.902-4.77-16.129-14.193l-0.097-0.741l0.722,0.193c3.542,0.949,6.683,1.417,9.455,1.83
			c6.844,1.02,12.25,1.824,18.907,8.753c1.185,1.232,2.443,2.115,3.554,2.893c2.795,1.96,5.003,3.507,3.004,8.601
			c-1.584,4.043-1.266,4.472,0.502,6.851c0.239,0.321,0.502,0.676,0.788,1.075c1.65-4.517,4.683-12.646,9.717-12.646
			c1.686,0,3.424,0.946,5.167,2.813c2.384,2.555,4.381,5.552,6.312,8.449c1.265,1.898,2.572,3.861,3.963,5.656
			c4.689,6.048,10.739,6.984,17.744,8.069c0.866,0.135,1.74,0.27,2.621,0.417c2.756,0.811,5.026,1.949,7.221,3.05
			c0.375,0.188,0.748,0.375,1.12,0.559c-1.728-0.915-3.448-1.982-5.296-3.352l-0.601-0.445l0.642-0.385
			c2.294-1.377,4.595-2.854,6.858-4.401c-1.727,0.032-3.407,0.109-5.044,0.184c-2.042,0.093-3.972,0.181-5.863,0.181
			c-7.886,0-14.301-1.641-19.975-9.646c-3.876-5.47-6.177-9.16-4.691-15.827c0.31-1.391,0.739-2.627,1.118-3.718
			c0.654-1.881,1.17-3.367,0.621-4.396c-0.388-0.726-1.353-1.313-2.945-1.787c-0.191,1.127-0.321,2.227-0.448,3.296
			c-0.589,4.979-1.097,9.277-7.541,9.557c-4.818,0.205-6.512-0.749-9.89-2.644c-0.409-0.229-0.844-0.474-1.314-0.731
			c-8.448-5.467-11.187-15.462-13.194-25.318c-1.286,0.336-2.144,0.866-2.617,1.614c-0.919,1.454-0.38,3.674,0.245,6.243
			c0.333,1.371,0.678,2.788,0.834,4.235l0.072,0.669l-0.661-0.124c-1.339-0.25-2.987-0.443-4.73-0.647
			c-6.137-0.718-13.774-1.611-16.34-5.918c-1.663-2.793-5.269-9.751-2.837-14.028c1.262-2.221,3.885-3.301,7.85-3.188
			c3.479,0.093,7.179-0.797,10.762-1.659c3.381-0.814,6.877-1.656,10.159-1.656c0.813,0,1.6,0.053,2.338,0.155
			c8.219,1.096,15.576,4.025,23.364,7.127l1.791,0.713l-1.413,0.672c-4.1,1.949-5.631,2.678-7.561,5.929
			c4.071-2.687,7.759-3.997,11.228-3.997c9.448,0,15.301,9.985,20.96,19.643c1.454,2.48,2.958,5.046,4.495,7.393
			c2.68,4.252,6.953,6.052,11.477,7.957c4.178,1.759,8.498,3.578,11.516,7.484c5.136,6.644,11.175,8.595,19.87,9.719l0.62,0.08
			l-0.214,0.588c-1.068,2.923-1.161,6.23-1.25,9.429c-0.135,4.815-0.263,9.363-3.485,12.581c-4.149,4.147-10.051,5.304-15.276,5.888
			C157.735,260.654,156.286,260.737,154.886,260.737z M129.209,247.478l0.379,0.404c8.549,9.116,18.13,12.889,29.494,11.615
			c5.308-0.593,10.76-1.683,14.681-5.601c2.94-2.937,3.063-7.292,3.192-11.902c0.086-3.071,0.175-6.24,1.11-9.157
			c-8.63-1.172-14.7-3.259-19.926-10.019c-2.858-3.697-7.055-5.465-11.113-7.174c-4.468-1.882-9.087-3.827-11.93-8.338
			c-1.546-2.36-3.056-4.937-4.517-7.428c-5.517-9.414-11.222-19.148-20.098-19.148c-3.739,0-7.792,1.645-12.389,5.027l-1.705,1.255
			l0.963-1.885c2.535-4.96,3.997-5.829,8.377-7.919c-7.604-3.028-14.81-5.867-22.791-6.931c-0.696-0.098-1.437-0.146-2.204-0.146
			c-3.163,0-6.6,0.828-9.924,1.629c-3.646,0.877-7.413,1.782-11.024,1.687c-3.545-0.102-5.888,0.808-6.953,2.682
			c-1.507,2.651-0.45,7.52,2.828,13.022c2.313,3.883,9.679,4.744,15.597,5.437c1.482,0.174,2.895,0.339,4.124,0.54
			c-0.171-1.161-0.453-2.318-0.727-3.443c-0.65-2.675-1.265-5.201-0.119-7.015c0.683-1.08,1.909-1.79,3.748-2.172l0.492-0.103
			l0.1,0.493c1.976,9.81,4.594,19.833,12.829,25.162c0.442,0.241,0.879,0.487,1.291,0.718c3.332,1.868,4.842,2.713,9.358,2.516
			c5.593-0.242,6.012-3.778,6.59-8.674c0.148-1.255,0.302-2.553,0.553-3.9l0.099-0.528l0.52,0.137
			c2.22,0.581,3.521,1.354,4.096,2.43c0.755,1.416,0.176,3.084-0.558,5.195c-0.37,1.065-0.79,2.273-1.087,3.606
			c-1.394,6.256,0.814,9.787,4.531,15.032c5.426,7.655,11.583,9.224,19.159,9.224c1.869,0,3.787-0.087,5.818-0.18
			c2.158-0.099,4.389-0.2,6.713-0.201l1.587-0.001l-1.299,0.91c-2.5,1.752-5.057,3.424-7.61,4.977
			c4.428,3.168,8.209,4.626,13.356,6.612l3.627,1.399l-3.528-0.311c-4.42-0.389-7.582-1.974-10.928-3.652
			c-2.156-1.081-4.386-2.199-6.997-2.971c-0.818-0.133-1.688-0.268-2.55-0.401c-6.916-1.071-13.448-2.083-18.381-8.444
			c-1.413-1.823-2.731-3.802-4.005-5.715c-1.909-2.864-3.882-5.827-6.21-8.322c-1.546-1.655-3.039-2.495-4.437-2.495
			c-4.399,0-7.398,8.213-8.84,12.159l-0.604,1.64l-0.546-0.799c-0.496-0.728-0.938-1.321-1.317-1.833
			c-1.956-2.631-2.352-3.419-0.63-7.812c1.711-4.361,0.07-5.511-2.648-7.416c-1.147-0.805-2.448-1.716-3.7-3.019
			c-6.421-6.684-11.678-7.466-18.333-8.457c-2.605-0.389-5.535-0.824-8.829-1.66c1.43,8.182,8.188,10.344,15.33,12.63
			c5.451,1.744,11.087,3.548,14.242,8.239l0.754,1.122l-1.303-0.361c-1.945-0.539-3.96-1.036-5.909-1.518
			c-9.917-2.447-20.144-4.971-26.08-14.128c0.994,5.199,2.906,12.744,7.237,16.645c0.196,0.177,0.361,0.326,0.5,0.452l0.539,0.485
			l-0.013,0.015c0.033,0.036,0.061,0.067,0.084,0.096c0.443,0.435,0.879,0.877,1.306,1.312c1.883,1.914,3.828,3.891,6.303,5.017
			c0.152-0.524,0.271-1.02,0.38-1.469c0.562-2.325,0.968-4.006,4.403-4.419l0.559-0.067l0,0.563
			c0.007,11.576,3.477,17.195,13.259,21.472c3.095,1.711,6.75,2.916,11.544,3.815c0.424,0.07,0.834,0.106,1.208,0.106
			c3.61,0,3.95-3.382,4.02-7.804c0.013-0.825,0.025-1.604,0.082-2.305l0.192-2.379l0.779,2.256
			c5.792,16.771,14.516,23.449,26.9,20.634c-0.745-0.752-1.501-1.403-2.186-1.992c-1.688-1.454-3.021-2.603-3.141-4.242
			c-0.087-1.203,0.515-2.504,1.895-4.094L129.209,247.478z"/>
	</g>
	<g>
		<path fill="#666666" d="M133.861,280.124c-6.328,0-12.706-1.913-16.954-3.352c-6.403-2.168-9.3-6.599-12.367-11.289
			c-0.867-1.326-1.757-2.688-2.745-4.02c-0.091,0.034-0.202,0.057-0.335,0.057c-0.659,0-2.474-0.778-2.525-1.576
			c-11.251-2.715-18.167-4.456-28.087-11.877c-7.247-5.419-10.6-12.082-14.482-19.798l-1.108-2.2l1.369,0.706
			c1.107,0.571,2.217,1.105,3.315,1.634c4.708,2.266,9.156,4.406,12.356,8.836c3.113,4.304,7.76,7.856,12.75,9.747
			c6.917,2.62,13.832,3.241,20.322,3.653l0.262,0.017l0.135,0.226c2.891,4.819,4.786,7.427,9.57,10.382
			c1.337,0.212,2.773,0.314,4.385,0.314c2.078,0,4.192-0.172,6.237-0.339c2.003-0.162,4.075-0.331,6.071-0.331
			c1.598,0,3.006,0.107,4.303,0.327c6.713,1.63,11.61,2.375,16.938,2.576c10.56,0.407,15.9-2.965,24.194-8.196l2.492-1.565
			l0.147,0.701c2.422,11.517-14.091,16.408-26.148,19.979c-3.588,1.063-6.687,1.981-8.682,2.903
			C141.899,279.286,138.057,280.124,133.861,280.124z M101.696,259.696c1.383,1.724,2.552,3.511,3.682,5.239
			c2.97,4.542,5.774,8.832,11.851,10.89c4.181,1.416,10.453,3.299,16.633,3.299c4.099,0,7.691-0.781,10.982-2.388
			c2.07-0.957,5.201-1.885,8.827-2.958c11.417-3.383,26.958-7.986,25.579-18.099l-1.251,0.787
			c-8.143,5.137-13.896,8.764-24.766,8.351c-5.399-0.205-10.354-0.957-17.102-2.597c-1.207-0.204-2.56-0.307-4.101-0.307
			c-1.955,0-3.915,0.159-5.99,0.328c-2.064,0.168-4.199,0.342-6.318,0.342c-1.706,0-3.225-0.112-4.644-0.344l-0.181-0.067
			c-5.122-3.146-7.18-6.104-9.853-10.546c-6.49-0.417-13.398-1.066-20.351-3.699c-5.167-1.958-9.98-5.639-13.206-10.097
			c-3.052-4.225-7.389-6.312-11.979-8.521c-0.658-0.317-1.32-0.636-1.983-0.963c3.716,7.379,7.028,13.764,13.922,18.919
			c9.904,7.408,16.8,9.071,28.227,11.827l1.903,0.459l0.112,0.134C101.691,259.69,101.693,259.693,101.696,259.696z"/>
	</g>
	<g>
		<path fill="#666666" d="M66.881,136.606c-0.487,0-0.981-0.011-1.479-0.033c-0.002,0-0.004,0-0.006,0c0,0,0,0,0,0l0.015-0.332
			c-0.019-0.002-0.037-0.003-0.055-0.005l-0.112,0.307l-0.006-0.002c-0.044-0.017-0.089-0.033-0.135-0.051
			c-4.425-1.692-7.273-4.984-7.823-9.048c-0.619-4.585,1.747-9.418,6.176-12.613l0.854-0.617l-0.063,1.052
			c-0.287,4.833-0.172,7.923,1.256,12.908c0.984-0.768,1.204-2.537,1.436-4.396c0.341-2.745,0.729-5.855,3.775-6.572
			c1.774-0.621,3.766-0.929,6.038-0.929c3.848,0,7.813,0.892,11.647,1.755c0.165,0.037,0.328,0.074,0.491,0.11
			c-0.493-0.209-0.993-0.423-1.5-0.64c-6.473-2.765-13.81-5.9-19.035-5.9c-0.556,0-1.081,0.037-1.562,0.11l-0.598,0.091l0.049-1.267
			c0.395-10.35,0.976-24.576,14.521-24.2c5.24,1.177,8.244,4.348,11.424,7.705c1.57,1.658,3.176,3.352,5.095,4.838
			c-6.424-7.364-10.113-14.523-4.31-25.833c3.487-4.841,7.804-5.771,11.979-6.668c4.346-0.935,8.465-1.821,11.191-7.186
			c-2.994,0.939-5.624,1.415-7.828,1.415c-3.559,0-5.947-1.28-6.725-3.604c-1.063-3.176,1.07-7.71,5.436-11.984
			c-3.372,1.98-6.006,4.082-9.334,7.32l-1.519,1.478l0.698-2c2.562-7.346,4.6-9.839,10.28-14.597
			c1.298-1.239,3.364-1.585,5.362-1.919c2.216-0.371,4.309-0.721,5.177-2.216c7.509-9.29,11.277-13.548,22.381-17.814l1.039-0.399
			l-0.391,1.042c-2.236,5.954-0.714,10.196,1.509,15.125l0.188,0.415l-0.396,0.225c-0.85,0.484-1.744,0.929-2.607,1.359
			c-2.257,1.124-4.59,2.286-6.274,4.215c-7.643,8.86-10.665,14.722-8.363,26.036c1.169,5.739-1.146,7.42-3.825,9.367
			c-1.777,1.291-3.792,2.754-5.284,5.719c-2.263,4.5-2.934,8.696-3.625,14.119c0.62,3.402,1.958,5.655,3.139,7.644
			c1.807,3.043,3.368,5.672,1.006,10.733l-0.217,0.464l-7.279-3.618c2.333,2.667,4.73,5.229,7.008,7.634l0.145,0.153l-0.008,0.21
			c-0.109,2.819-0.416,5.663-0.713,8.413c-0.179,1.654-0.357,3.309-0.496,4.967l-0.055,0.666l-0.623-0.241
			c-3.475-1.342-6.831-1.994-10.261-1.994c-6.193,0-11.615,2.114-17.356,4.353C80.366,134.199,74.193,136.606,66.881,136.606z
			 M65.11,135.223c0.015,0,1.331,0.031,1.836,0.383c7.096-0.014,13.16-2.379,19.026-4.667c5.831-2.274,11.339-4.421,17.72-4.421
			c3.35,0,6.628,0.599,10,1.828c0.129-1.446,0.285-2.89,0.441-4.333c0.288-2.664,0.585-5.417,0.699-8.134
			c-2.774-2.93-5.718-6.09-8.511-9.394l-1.563-1.849l10.736,5.338c1.838-4.267,0.567-6.408-1.169-9.332
			c-1.233-2.077-2.631-4.432-3.277-8.054l-0.014-0.075l0.01-0.076c0.707-5.559,1.389-9.854,3.733-14.519
			c1.601-3.182,3.72-4.721,5.59-6.079c2.597-1.886,4.473-3.249,3.433-8.358c-2.386-11.725,0.721-17.772,8.588-26.891
			c1.816-2.081,4.239-3.288,6.583-4.455c0.717-0.357,1.455-0.724,2.163-1.112c-2.019-4.532-3.472-8.824-1.705-14.431
			c-10.095,4.048-13.795,8.256-20.913,17.052c-1.061,1.838-3.487,2.244-5.833,2.637c-1.85,0.31-3.762,0.63-4.861,1.678
			c-5.07,4.248-7.092,6.528-9.273,12.186c3.864-3.571,7.034-5.694,12.065-8.182l0.523,0.848c-6.223,4.693-9.757,10.396-8.595,13.869
			c0.64,1.911,2.637,2.921,5.776,2.921c2.361,0,5.258-0.58,8.608-1.722l1.066-0.364l-0.445,1.035
			c-2.913,6.763-7.727,7.798-12.383,8.8c-3.991,0.858-8.117,1.746-11.34,6.211c-6.222,12.138-1.118,19.047,6.775,27.475l2.029,2.166
			l-2.626-1.382c-3.617-1.903-6.119-4.544-8.539-7.098c-3.073-3.244-5.976-6.307-10.823-7.405c-0.07,0.007-0.233,0.005-0.396,0.005
			c-12.113,0-12.626,13.435-13.001,23.245l-0.003,0.078c0.357-0.033,0.729-0.049,1.115-0.049c5.429,0,12.866,3.177,19.427,5.98
			c2.352,1.005,4.574,1.954,6.458,2.644l-0.25,0.963c-1.864-0.294-3.782-0.726-5.813-1.183c-3.781-0.851-7.69-1.731-11.428-1.731
			c-2.158,0-4.042,0.291-5.759,0.888c-2.419,0.572-2.731,3.08-3.062,5.736c-0.29,2.331-0.59,4.742-2.558,5.478l-0.501,0.188
			l-0.153-0.513c-1.517-5.085-1.747-8.224-1.529-12.755c-3.579,2.956-5.449,7.093-4.919,11.012c0.477,3.53,2.771,6.331,6.492,7.962
			C64.857,135.24,64.97,135.223,65.11,135.223z"/>
	</g>
	<g>
		<path fill="#666666" d="M75.011,82.214l0.168-0.644c3.038-11.594,8.127-25.03,20.622-26.031l0.494-0.04l0.044,0.493
			c0.579,6.441-0.771,8.419-3.463,12.359c-0.446,0.653-0.933,1.366-1.457,2.167l0.001,0.036c0,0.14-0.449,1.525-0.977,2.044
			c-0.322,1.228-0.472,2.378-0.606,3.409c-0.418,3.213-0.749,5.751-5.963,5.932c-2.731,0.101-5.463,0.186-8.198,0.258L75.011,82.214
			z M95.385,56.583C84.098,57.829,79.248,70.217,76.318,81.18c2.508-0.068,5.015-0.146,7.521-0.239
			c4.368-0.151,4.595-1.896,5.007-5.062c0.16-1.226,0.34-2.615,0.799-4.128c0.041-0.141,0.101-0.329,0.183-0.567
			c0.002-0.008,0.005-0.015,0.008-0.023l0.049-0.103c0.799-1.269,1.525-2.332,2.166-3.269
			C94.613,64.037,95.822,62.266,95.385,56.583z"/>
	</g>
	<g>
		<path fill="#666666" d="M165.159,144.335c-2.052,0-4.159-0.329-6.197-0.647c-2.078-0.324-4.226-0.66-6.358-0.66
			c-0.905,0-1.741,0.058-2.554,0.179c-3.614,0.535-6.755,0.795-9.604,0.795c-12.147,0-19.407-4.869-22.193-14.885
			c-3.855-13.853,3.589-21.827,12.823-29.406c-2.228,1.271-4.501,2.47-6.603,2.47c-1.602,0-2.968-0.709-4.062-2.108
			c-2.881-3.688-4.071-10.898-1.351-15.03c4.559-7.38,10.816-12.352,17.441-17.615c0.85-0.675,1.714-1.362,2.582-2.06
			c-1.693,0.635-3.703,1.303-5.073,1.303c-0.779,0-1.33-0.217-1.637-0.646c-5.188-4.057-5.109-12.562-4.598-17.283l0.062-0.192
			c5.86-10.363,12.669-11.596,22.807-12.995c-2.417-2.522-3.372-4.483-2.997-6.128c0.537-2.355,3.683-3.418,7.013-4.543
			c3.331-1.125,6.774-2.289,7.776-4.707c0.489-1.181,0.367-2.59-0.375-4.297c-1.236,1.029-1.768,1.861-2.243,2.606
			c-0.995,1.558-1.759,2.474-5.899,3.174c-4.68,0.791-5.247,1.74-7.125,4.886c-0.296,0.497-0.622,1.042-0.998,1.645
			c-0.001,0.002-0.003,0.004-0.004,0.006l0,0l-0.424-0.265l-0.426,0.262v0c-2.578-4.203-3.12-7.925-1.61-11.065
			c2.898-6.029,12.321-7.82,16.237-8.31c1.937-0.264,3.647-0.393,5.222-0.393c8.51,0,12.787,3.865,18.146,11.478l0.609,0.866
			l-1.056-0.08c-1.32-0.099-2.505-0.15-3.523-0.15c-4.121,0-4.501,0.809-4.536,0.971c-0.134,0.629,1.548,2.679,8.871,5.936
			l0.396,0.177l-0.119,0.417c-1.515,5.305-1.635,7.783-0.643,13.257l0.177,0.978l-0.66-0.326c-1.524,2.56-4.348,28.899-3.835,43.384
			c0.23,6.517,1.069,7.91,1.418,8.206l0.151,0.128l0.022,0.196c0.587,5.115-0.2,8.804-2.405,11.276
			c-2.13,2.388-5.511,3.549-10.335,3.549c0,0-0.001,0-0.001,0c-1.015,0-2.111-0.053-3.259-0.157
			c-1.018-0.093-2.04-0.141-3.037-0.141c-7.482,0-13.72,2.621-20.167,6.078c5.51-1.31,12.805-2.978,19.544-2.978
			c9.632,0,15.531,3.52,17.535,10.462c2.029,7.029,1.076,16.459-5.811,20.552C170.173,143.754,167.911,144.335,165.159,144.335z
			 M152.605,142.028c2.209,0,4.396,0.341,6.512,0.672c2.092,0.327,4.068,0.635,6.042,0.635c2.565,0,4.663-0.537,6.604-1.69
			c6.145-3.652,7.348-12.532,5.361-19.416c-1.892-6.554-7.313-9.74-16.574-9.74c-6.925,0-14.508,1.806-20.045,3.125
			c-1.019,0.242-1.965,0.468-2.823,0.662l-3.344,0.756l2.989-1.68c7.752-4.357,14.897-7.964,23.847-7.964
			c1.027,0,2.08,0.049,3.127,0.145c1.118,0.102,2.184,0.153,3.168,0.153c0,0,0.001,0,0.001,0c4.524,0,7.66-1.051,9.589-3.214
			c1.98-2.221,2.693-5.599,2.177-10.325c-3.873-4.412-0.267-45.631,2.127-52.156c0.128-0.35,0.286-0.705,0.518-0.919
			c-0.91-5.184-0.782-7.871,0.619-12.891c-4.468-2.016-9.493-4.785-9.048-6.88c0.311-1.463,2.856-1.988,8.055-1.681
			c-4.881-6.764-8.966-10.196-16.717-10.196c-1.529,0-3.195,0.126-5.092,0.385c-3.759,0.47-12.781,2.166-15.466,7.752
			c-1.2,2.496-0.921,5.455,0.825,8.811c0.223-0.176,0.52-0.227,0.755-0.131c0.042-0.07,0.083-0.139,0.124-0.207
			c1.897-3.178,2.682-4.493,7.817-5.36c3.904-0.66,4.401-1.438,5.223-2.726c0.55-0.861,1.234-1.933,2.969-3.251l0.482-0.367
			l0.269,0.543c1.106,2.236,1.324,4.097,0.665,5.687c-1.175,2.837-4.838,4.074-8.38,5.271c-3.058,1.033-5.946,2.009-6.358,3.818
			c-0.315,1.385,0.839,3.373,3.432,5.907l0.73,0.714l-1.012,0.139c-10.363,1.421-17.22,2.361-23.014,12.543
			c-0.481,4.553-0.541,12.622,4.29,16.332l0.123,0.138c0.132,0.218,0.582,0.25,0.838,0.25c1.559,0,4.349-1.087,6.015-1.736
			c0.75-0.292,1.292-0.503,1.603-0.581l2.125-0.528l-1.685,1.398c-1.65,1.37-3.325,2.701-4.945,3.987
			c-6.555,5.208-12.746,10.126-17.221,17.37c-2.462,3.74-1.322,10.526,1.296,13.876c0.907,1.16,1.978,1.724,3.274,1.724
			c2.045,0,4.448-1.383,6.771-2.72c1.338-0.77,2.723-1.567,4.043-2.101l3.217-1.302l-2.87,2.278
			c-10.611,8.418-20.633,16.371-16.417,31.514c2.649,9.524,9.593,14.153,21.229,14.153c2.799,0,5.893-0.256,9.457-0.785
			C150.766,142.09,151.65,142.028,152.605,142.028z M170.922,91.954l-2.922-3.111c-5.849-6.234-11.427-9.138-17.552-9.138
			c-4.239,0-8.807,1.421-13.967,4.344l-2.797,1.584l2.184-2.359c3.085-3.333,5.999-6.481,10.945-7.936l0.072-0.021l0.075,0.001
			c3.647,0.042,7.308,0.421,10.886,1.127c3.046-2.096,6.158-4.126,9.25-6.037l2.417-1.494l-1.762,2.229
			c-5.384,6.811-4.689,7.907-1.351,13.175c0.708,1.118,1.512,2.386,2.396,3.926L170.922,91.954l-0.001-0.002L170.922,91.954z
			 M150.447,78.705c5.404,0,10.376,2.128,15.422,6.648c-0.107-0.17-0.212-0.336-0.316-0.5c-3.029-4.78-4.168-6.577-0.221-12.162
			c-2.378,1.51-4.756,3.084-7.094,4.696l-0.174,0.12l-0.208-0.042c-3.558-0.715-7.202-1.102-10.833-1.148
			c-3.566,1.066-6.051,3.106-8.36,5.452C142.909,79.71,146.786,78.705,150.447,78.705z M154.229,65.148l0.218-2.159
			c0.353-3.481,0.795-6.999,1.317-10.466c-3.321-0.335-6.669-0.784-9.913-1.219c-2-0.268-4-0.536-6.003-0.78l0.047-0.996
			l2.065-0.051c7.612-0.179,14.802-0.347,18.245-4.47c2.054-2.459,2.657-6.175,1.843-11.36l-0.298-1.903l1.187,1.517
			c3.113,3.98,3.1,7.81,2.123,12.336c0,0.001-0.001,0.002-0.001,0.003c-0.045,0.121-0.09,0.24-0.136,0.358
			c-0.468,1.232-0.694,1.812-0.862,2.083c-0.006,0.014-0.013,0.028-0.019,0.042l-0.093,0.209c-2.01,4.482-4.648,8.707-7.201,12.794
			c-0.461,0.739-0.922,1.477-1.379,2.216L154.229,65.148z M146.252,50.349c3.322,0.445,6.75,0.901,10.134,1.23l0.526,0.051
			l-0.08,0.522c-0.444,2.901-0.832,5.842-1.159,8.77c0.076-0.122,0.152-0.244,0.228-0.365c2.585-4.141,5.258-8.421,7.254-12.938
			c0.113-0.495,0.54-2.181,1.062-2.845c0.674-3.389,0.707-6.263-0.917-9.179c0.393,4.415-0.374,7.716-2.325,10.053
			C157.927,49.296,152.433,50.083,146.252,50.349z"/>
	</g>
</g>
<g>
	<g>
		<path fill="#FFFFFF" d="M288.542,86.476c-3.644,0-8.23-7.008-11.819-13.114l-0.491-0.873l-0.145-0.576
			c-3.476-13.902-6.957-20.952-10.349-20.952c-0.759,0-1.542,0.386-2.333,1.147c6.462,5.273,8.48,9.676,8.263,17.828l-0.017,0.601
			l-0.587-0.125c-9.07-1.922-16.525-6.541-20.455-12.673c-3.019-4.712-3.921-10.272-2.607-16.079l0.487,0.11l0.021-0.5
			c7.173,0.309,24.71,2.527,32.615,16.41c2.06,3.613,2.899,7.173,3.788,10.941c0.403,1.709,0.82,3.477,1.362,5.256
			c0.265,0.486,0.899,1.307,1.635,2.257c2.071,2.678,4.648,6.011,3.432,8.323C290.638,85.797,289.695,86.476,288.542,86.476z
			 M277.184,72.175l0.401,0.68c1.835,3.122,7.418,12.621,10.957,12.621c0.764,0,1.39-0.485,1.916-1.483
			c0.917-1.743-1.542-4.923-3.338-7.246c-0.764-0.987-1.424-1.84-1.765-2.491c-0.587-1.896-1.008-3.68-1.415-5.404
			c-0.872-3.696-1.695-7.187-3.684-10.675c-6.99-12.277-21.867-15.143-29.737-15.779c-0.024,0.628-0.772,1.096-1.432,1.096l0,0
			c-0.146,0-0.283-0.023-0.409-0.066c-0.801,5.021,0.13,9.647,2.772,13.772c3.701,5.776,10.687,10.167,19.229,12.105
			c0.101-7.651-1.907-11.635-8.326-16.759l-0.416-0.332l0.356-0.394c1.113-1.233,2.272-1.858,3.443-1.858
			c5.281,0,8.989,12.39,11.318,21.709L277.184,72.175z M248.933,42.308c0.007,0.083,0.025,0.134,0.043,0.156
			c0.022,0.027,0.092,0.03,0.112,0.03c0.109,0,0.223-0.04,0.309-0.086C249.301,42.374,249.153,42.336,248.933,42.308z"/>
	</g>
	<g>
		<path fill="#FFFFFF" d="M249.277,39.943c-0.874,0-1.575-0.289-2.083-0.857c-0.8-0.897-1.075-2.436-0.84-4.7
			c-0.221-0.334-0.354-0.543-0.426-0.693c-0.623-0.887-1.204-1.656-1.747-2.375c-1.925-2.546-3.445-4.558-4.434-8.698l-0.119-0.499
			l0.501-0.106c1.542-0.329,3.027-0.496,4.414-0.496c10.282,0,14.479,9.132,16.741,16l0.196,0.593l-0.622,0.061
			c-2.813,0.273-5.648,0.579-8.429,0.908C251.185,39.662,250.152,39.943,249.277,39.943z M247.3,35.06
			c-0.108,1.632,0.106,2.761,0.641,3.36c0.707,0.792,2.108,0.678,4.139-0.277l0.154-0.044c2.606-0.309,5.262-0.598,7.903-0.859
			c-3.991-11.665-10.026-16.117-19.291-14.349c0.937,3.597,2.291,5.387,4.133,7.825c0.58,0.767,1.201,1.589,1.864,2.541
			c0.065,0.09,0.207,0.296,0.451,0.658l0.104,0.154l-0.003,0.018c0.197,0.34,0.253,0.494,0.122,0.722l-0.144,0.252H247.3z"/>
	</g>
	<g>
		<path fill="#FFFFFF" d="M266.278,169.776c-3.488,0-7.223-1.115-10.834-2.194c-3.666-1.096-7.458-2.229-11.041-2.229
			c-1.979,0-3.734,0.338-5.364,1.032l-0.703,0.3l0.007-0.765c0.063-6.662,1.548-10.531,4.854-16.684l0.168-0.313l0.351,0.056
			c3.04,0.482,5.783,0.881,8.567,0.881c2.382,0,4.581-0.305,6.722-0.931c2.543-1.314,5.16-3.058,7.692-4.745
			c5.354-3.567,10.89-7.255,17.371-7.932v0l0.168-0.016c0.07-0.008,0.145-0.014,0.222-0.021v0.008c0.002,0,0.004,0,0.005,0v-0.008
			c1.972-0.148,4.303-0.691,6.771-1.267c3.088-0.719,6.28-1.463,8.994-1.463c2.477,0,4.247,0.625,5.411,1.913
			c1.335,1.476,1.827,3.756,1.504,6.97c-0.816,8.118-6.837,13.903-16.104,15.477c-4.716,0.801-8.391,3.433-11.945,5.978
			c-3.754,2.688-7.636,5.467-12.651,5.95L266.278,169.776z M244.403,164.353c3.729,0,7.592,1.154,11.327,2.271
			c3.706,1.106,7.206,2.152,10.548,2.152h0.112c4.704-0.455,8.307-3.034,12.121-5.766c3.646-2.61,7.417-5.311,12.359-6.15
			c8.797-1.493,14.508-6.947,15.277-14.59c0.288-2.876-0.133-4.962-1.251-6.2c-0.964-1.065-2.491-1.583-4.67-1.583
			c-2.599,0-5.734,0.73-8.768,1.437c-1.972,0.459-3.858,0.899-5.571,1.141c-0.072,0.027-0.17,0.049-0.302,0.068v0.003
			c-0.005,0-0.02,0.001-0.046,0.003c-0.287,0.039-0.723,0.067-1.381,0.11c-6.22,0.646-11.653,4.267-16.909,7.769
			c-2.555,1.702-5.196,3.462-7.877,4.837c-2.321,0.688-4.612,1.006-7.091,1.006c-2.748,0-5.429-0.375-8.373-0.838
			c-2.984,5.591-4.395,9.268-4.554,15.163C240.909,164.626,242.568,164.353,244.403,164.353z"/>
	</g>
	<g>
		<path fill="#FFFFFF" d="M248.205,271.444c-1.286,0-2.585-0.022-3.895-0.061l-0.957-0.028l0.57-0.77
			c0.632-0.854,1.219-1.733,1.786-2.585c2.451-3.679,4.718-7.17,9.827-6.913c0.432,0.02,0.866,0.029,1.305,0.029
			c6.271,0,12.214-1.972,16.303-5.408c4.336-4.095,9.083-8.958,10.259-14.613c1.432-4.648,4.072-6.181,7.131-7.956
			c0.962-0.559,1.957-1.136,2.999-1.851c0.245-0.203,0.9-0.716,1.198-0.934c1.417-1.435,2.756-2.958,3.981-4.528l1.018-1.304
			l-0.124,1.649c-0.699,9.235-6.618,19.942-18.096,32.734C271.778,269.954,259.213,271.444,248.205,271.444z M245.284,270.408
			c0.98,0.023,1.954,0.036,2.921,0.036c10.784,0,23.086-1.45,32.559-12.201c10.631-11.849,16.425-21.838,17.661-30.467
			c-0.886,1.06-1.818,2.092-2.788,3.084c-0.074,0.143-0.239,0.284-0.496,0.501l-0.063,0.05c-0.046,0.034-0.091,0.067-0.136,0.102
			c-0.661,0.499-0.883,0.663-1.014,0.717c-1.01,0.683-1.967,1.237-2.893,1.775c-2.995,1.738-5.36,3.111-6.666,7.34
			c-1.223,5.894-6.093,10.892-10.561,15.11c-4.288,3.605-10.464,5.662-16.968,5.662c-0.453,0-0.903-0.011-1.351-0.031
			c-4.522-0.217-6.555,2.876-8.949,6.47C246.137,269.164,245.721,269.787,245.284,270.408z"/>
	</g>
	<g>
		<path fill="#FFFFFF" d="M202.848,299.376C202.847,299.376,202.848,299.376,202.848,299.376c-2.716,0-5.506-0.093-8.53-0.282
			l-0.183-0.012l-4.173-3.996c-0.629-0.586-1.522-1.225-2.469-1.9c-3.161-2.26-7.485-5.351-5.945-9.856
			c0.305-4.221,1.908-6.187,5.044-6.187c1.725,0,3.688,0.591,5.765,1.216c0.948,0.285,1.93,0.581,2.882,0.813
			c7.092,1.735,12.62,2.51,17.922,2.51c6.89,0,13.664-1.35,22.651-4.514l2.385-0.84l-1.886,1.685
			c-10.337,9.229-19.075,12.718-30.007,15.606c9.73-0.918,19.687-3.159,28.747-9.749c7.914-5.756,10.161-6.32,19.056-7.785
			c0.646-0.29,2.116-0.432,2.133-0.432h0.072c6.351-1.606,11.813-3.776,18.736-6.629l2.152-0.888l-1.599,1.693
			c-6.819,7.221-16.247,11.511-25.364,15.66c-4.016,1.828-8.169,3.718-11.961,5.81C228.286,296.81,217.028,299.376,202.848,299.376z
			 M194.563,298.108c2.934,0.181,5.646,0.269,8.284,0.269c14.006,0,25.11-2.526,34.947-7.951c3.825-2.111,7.996-4.009,12.029-5.845
			c8.254-3.757,16.766-7.63,23.272-13.675c-6.185,2.521-11.343,4.463-17.41,5.932c-0.003,0.002-0.005,0.003-0.006,0.002
			l-0.136,0.023c-10.013,1.639-11.817,1.935-19.905,7.816c-11.058,8.043-23.358,9.728-35.004,10.351l-0.144-0.985
			c14.867-3.58,23.162-6.601,33.231-15.106c-7.926,2.613-14.188,3.744-20.563,3.744c-5.313,0-11.083-0.807-18.16-2.539
			c-0.977-0.238-1.971-0.537-2.932-0.827c-2.005-0.603-3.898-1.173-5.477-1.173c-1.823,0-3.729,0.633-4.051,5.322l-0.027,0.133
			c-1.354,3.831,2.319,6.457,5.562,8.774c0.973,0.695,1.892,1.353,2.573,1.986L194.563,298.108z"/>
	</g>
	<g>
		<g>
			<path fill="#FFFFFF" d="M211.907,280.229c-7.637,0-16.108-2.291-22.108-5.979c-4.591-3.298-7.064-7.666-6.647-11.704
				c0.229-2.227,1.454-5.279,5.871-7.527c-4.567-2.785-7.356-6.45-8.085-10.643c-0.862-4.959,1.13-10.399,5.76-15.734
				c1.65-2.879,3.533-4.086,6.444-4.086c0.976,0,2.014,0.128,3.112,0.264c1.318,0.162,2.682,0.33,4.219,0.33
				c0.719,0,1.402-0.036,2.088-0.112c5.688-1.52,8.916-2.826,13.989-6.944c0.746-0.604,1.618-1.334,2.591-2.149
				c6.942-5.814,18.562-15.547,26.82-15.547c0.762,0,1.488,0.084,2.161,0.25c1.389,0.298,2.786,0.617,4.183,0.937
				c4.169,0.954,8.48,1.94,12.816,2.373c8.5,0.852,8.741,1.965,8.743,8.522c0,0.185,0,0.374,0,0.567
				c2.027-7.08,2.523-7.385,10.87-10.146c1.653-1.042,2.788-2.066,3.702-2.891c1.181-1.064,2.033-1.834,3.158-1.834
				c1.055,0,2.205,0.684,4.049,2.457c-0.068-0.813-0.154-1.599-0.237-2.367c-0.378-3.474-0.734-6.755,0.746-10.587
				c1.231-3.183,3.607-4.883,5.905-6.526c1.599-1.144,3.251-2.325,4.57-4.021l0.462-0.594l0.706,1.256
				c2.302,4.085,3.965,7.036,4.508,11.767c0.012,0.095,0.026,0.237,0.046,0.439l0.001,0.001c0,0,0,0,0,0.001l-0.055,0.005
				c0.001,0.01,0.001,0.02,0.002,0.029l0.055-0.002c0.013,0.408,0.015,0.628,0.012,0.718c0.049,18.459-21.008,40.263-38.48,46.012
				c-3.339,1.07-8.977,2.22-13.47,2.22l0,0c-4.209,0-6.962-0.951-8.184-2.826c-1.007-1.545-0.929-3.662,0.233-6.291
				c2.143-4.849,2.455-9.279,0.903-12.813c-1.206-2.744-3.479-4.813-6.764-6.16c3.313,7.389,3.993,13.024,2.151,17.666
				c-1.877,4.727-6.517,8.487-14.186,11.497c-3.528,1.385-7.078,2.876-10.511,4.317c-8.227,3.455-16.697,7.013-25.483,9.358
				c11.834-0.445,23.504-5.195,34.807-9.797c3.808-1.551,7.746-3.153,11.551-4.524c0.816-0.294,1.7-0.437,2.704-0.437
				c2.766,0,5.913,1.127,8.956,2.217c2.882,1.032,5.862,2.099,8.313,2.099c4.2-0.342,7.817-1.654,11.647-3.045
				c1.407-0.512,2.862-1.04,4.365-1.523l0.887-0.286l-0.252,0.897c-2.644,9.394-10.768,13.578-19.151,16.7
				c-1,0.218-1.874,0.438-2.695,0.646c-1.737,0.439-3.237,0.818-4.584,0.818c-2.505,0-4.129-1.394-5.267-4.519
				c-1.621-4.45-2.186-4.661-5.858-6.038c-0.184-0.068-0.374-0.14-0.572-0.215c3.205,4.956,3.687,10.178,1.378,15.188
				c-4.651,10.094-19.647,17.587-30.735,18.252C213.36,280.208,212.638,280.229,211.907,280.229z M193.142,225.556
				c-2.113,0-3.88,0.623-5.633,3.664c-4.482,5.178-6.396,10.332-5.586,14.984c0.719,4.133,3.628,7.737,8.413,10.425l0.869,0.488
				l-0.911,0.404c-3.711,1.646-5.837,4.111-6.148,7.127c-0.373,3.623,2.005,7.749,6.207,10.77
				c6.375,3.917,15.729,6.225,23.654,5.749c10.577-0.635,25.452-8.048,29.888-17.672c2.392-5.189,1.644-10.414-2.221-15.527
				l-1.079-1.428l1.662,0.661c0.79,0.314,1.48,0.573,2.091,0.802c3.772,1.414,4.669,1.75,6.447,6.633
				c1.235,3.393,2.81,3.86,4.327,3.86c1.223,0,2.666-0.365,4.339-0.788c0.833-0.21,1.72-0.435,2.662-0.635
				c7.787-2.905,15.398-6.771,18.186-15.1c-1.165,0.393-2.305,0.807-3.415,1.209c-3.895,1.414-7.573,2.75-11.916,3.104
				c-0.003,0-0.005,0-0.007,0c-2.694,0-5.755-1.096-8.715-2.155c-2.963-1.061-6.026-2.158-8.619-2.158
				c-0.887,0-1.66,0.124-2.364,0.378c-3.786,1.363-7.54,2.892-11.514,4.51c-12.689,5.164-25.867,10.522-39.276,9.847l-3.729-0.186
				l3.646-0.802c10.121-2.227,19.856-6.315,29.272-10.27c3.438-1.444,6.992-2.938,10.532-4.327
				c7.397-2.902,11.853-6.479,13.621-10.935c1.824-4.595,0.986-10.307-2.635-17.976l-0.503-1.065l1.115,0.378
				c4.17,1.413,7.023,3.81,8.479,7.124c1.669,3.798,1.355,8.508-0.904,13.62c-1.016,2.3-1.12,4.098-0.31,5.341
				c1.011,1.552,3.551,2.372,7.346,2.372c4.386,0,9.896-1.125,13.161-2.171c17.123-5.634,37.756-26.916,37.789-44.95
				c-0.066-0.264-0.088-0.681-0.088-1.325v-0.14c-0.552-4.358-2.145-7.195-4.332-11.078c-1.31,1.504-2.829,2.591-4.305,3.646
				c-2.278,1.63-4.431,3.169-5.554,6.074c-1.394,3.604-1.065,6.622-0.686,10.117c0.129,1.19,0.263,2.421,0.336,3.745l0.074,1.331
				l-0.932-0.955c-2.148-2.203-3.391-3.103-4.284-3.103c-0.74,0-1.436,0.628-2.488,1.577c-0.952,0.858-2.137,1.927-3.892,3.027
				l-0.108,0.051c-8.376,2.771-8.376,2.771-10.514,10.308c-0.209,0.739-0.438,1.548-0.697,2.437l-0.875,3.002l-0.105-3.125
				c-0.051-1.52-0.051-2.834-0.051-3.973c-0.001-6.104-0.002-6.741-7.843-7.528c-4.398-0.438-8.74-1.432-12.939-2.392
				c-1.393-0.318-2.786-0.638-4.185-0.938c-0.609-0.15-1.256-0.225-1.937-0.225c-7.896,0-19.34,9.586-26.178,15.313
				c-0.979,0.819-1.854,1.553-2.604,2.16c-5.216,4.233-8.528,5.574-14.436,7.147c-0.796,0.094-1.516,0.132-2.271,0.132
				c-1.599,0-3.056-0.18-4.341-0.338C195.065,225.681,194.056,225.556,193.142,225.556z M217.126,267.35
				c-5.23,0-10.539-1.264-16.16-2.602c-1.779-0.424-3.576-0.852-5.393-1.242l-0.623-0.135l2.338-4.798l0.405,0.117
				c6.175,1.782,12.675,2.648,19.872,2.648c4.508,0,9.344-0.316,15.681-1.027l1.582-0.177l-1.196,1.05
				C228.839,265.39,223.594,267.35,217.126,267.35z M196.407,262.664c1.611,0.355,3.208,0.735,4.79,1.112
				c5.561,1.323,10.813,2.574,15.927,2.574c0.001,0,0.001,0,0.002,0c5.643,0,10.315-1.553,14.573-4.863
				c-5.576,0.588-9.989,0.853-14.134,0.853c-6.781,0-12.956-0.761-18.827-2.321c-0.211,0.318-0.771,0.468-1.196,0.319
				L196.407,262.664z"/>
		</g>
	</g>
	<g>
		<g>
			<path fill="#FFFFFF" d="M203.799,76.05L203.799,76.05h-0.281l-0.295-0.482l0.313-0.535c0.059-0.087,0.118-0.174,0.182-0.258
				l0.224-0.191l2.679-2.032l-1.757,2.557C204.668,75.392,204.175,76.05,203.799,76.05z"/>
		</g>
		<g>
			<path fill="#FFFFFF" d="M199.314,221.402c-4.291,0-8.029-1.588-11.111-4.718l-0.133-0.135l-0.01-0.189
				c-0.013-0.241-0.985-24.047,21.708-57.294c-0.795,0.501-1.62,1.052-2.472,1.621c-3.723,2.486-7.942,5.306-11.898,5.306
				c-1.935,0-3.683-0.683-5.193-2.028c-5.304-4.725-6.215-12.357-6.41-19.901c-0.401-15.519,7.741-23.505,21.218-30.68
				c-4.205,0.553-8.18,1.137-11.848,3.751l-0.846,0.608c-1.7,1.228-2.637,1.904-3.716,1.904c-1.041,0-2.034-0.658-3.616-1.955
				l-0.114-0.093l-0.045-0.14c-2.227-6.856-3.601-16.693,2.495-24.621c2.165-2.816,0.611-5.457-1.357-8.801
				c-1.512-2.567-3.225-5.478-3.378-8.958l-0.006-0.143l0.07-0.125l20.133-35.592c-1.307,0.382-2.649,0.874-3.958,1.353
				c-2.648,0.969-5.15,1.885-7.212,1.885c-1.343,0-2.37-0.386-3.14-1.18c-1.142-1.179-1.65-3.237-1.554-6.292
				c0.208-6.573,3.999-11.959,7.666-17.168l0.012-0.016c-7.094-1.814-7.468-5.779-7.287-7.439C187.795,5.943,193.513,1,200.443,1
				c2.392,0,4.659,0.602,6.742,1.789c1.902,1.084,3.177,2.349,4.301,3.464c1.752,1.738,3.265,3.24,6.639,3.593
				c2.661,0.142,5.305,0.681,7.83,1.602c6.48,2.635,10.028,6.837,11.183,13.231l0.104,0.581l-0.59,0.008
				c-2.767,0.036-5.549,0.096-8.303,0.179c10.146,4.111,16.72,7.395,16.145,20.43l-0.035,0.798l-0.702-0.381
				c-1.673-0.907-3.378-1.805-5.076-2.673c-0.227,2.064,1.867,4.773,3.898,7.4c2.506,3.239,5.096,6.589,4.161,9.521
				c-0.459,1.441-1.715,2.616-3.816,3.561c7.048,0.497,18.455,1.913,20.847,9.504c2.532,6.189,3.698,11.489,3.885,17.681
				l0.015,0.494l-0.493,0.021c-2.862,0.121-5.769,0.38-8.579,0.631c-0.556,0.049-1.11,0.099-1.666,0.147
				c7.868,2.025,16.911,4.088,26.688,5.291c-0.775-0.328-1.552-0.634-2.315-0.936c-5.011-1.981-9.744-3.852-9.053-10.283
				c0.488-4.524-2.977-10.44-4.839-13.618l-1.046-1.787l1.746,1.112c4.039,2.572,6.932,5.84,9.729,9
				c2.653,2.998,5.396,6.097,9.076,8.498c5.231,3.416,10.035,9.597,8.976,15.707c-1.809,6.786-7.425,7.715-13.226,7.715
				c-1.244,0-2.523-0.042-3.814-0.083c-1.304-0.042-2.619-0.085-3.922-0.085c-3.139,0-6.746,0.213-9.71,1.794
				c-5.16,2.751-8.543,5.078-11.637,9.49c-1.788,2.552-2.326,4.75-1.925,5.523c0.082,0.156,0.191,0.22,0.38,0.219
				c0.28,0,1.366-0.188,3.541-2.611c4.466-4.979,8.322-9.278,15.265-11.114c2.441-0.645,4.431-0.945,6.261-0.945
				c3.385,0,6.432,1.049,10.187,3.508c2.544,1.666,3.712,1.914,4.182,1.914c0.319,0,0.387-0.108,0.412-0.148
				c0.1-0.16,0.326-0.883-0.942-3.46l-0.17-0.344l0.289-0.252c2.25-1.97,4.385-4.103,6.345-6.339l0.405-0.462l0.37,0.49
				c6.122,8.108,3.618,13.551-0.589,20.354l-0.149,0.242l-0.284-0.005c-8.456-0.159-16.409,1.997-23.184,4.01
				c-2.345,0.698-5.578,2.716-9.002,4.853c-5.905,3.685-12.598,7.862-18.334,7.862c-2.979,0-5.451-1.159-7.346-3.446
				c-4.112-4.965-2.063-11.064,0.105-17.522c2.026-6.033,4.122-12.272,1.304-18.029c-0.854-1.745-2.206-3.636-3.637-5.637
				c-3.058-4.276-6.22-8.697-5.474-12.869c0.865-4.851,5.479-5.496,9.551-6.065c2.687-0.375,5.224-0.73,6.178-2.234
				c0.517-0.815,0.572-1.962,0.169-3.495c-1.501,0.601-2.879,1.249-4.108,1.827c-2.605,1.225-4.664,2.193-6.585,2.193
				c-2.731,0-4.721-1.969-6.648-6.583c-2.325-8.413-2.475-16.152-0.521-25.938c0.967-4.842-1.144-6.374-4.065-8.494
				c-1.795-1.302-3.829-2.779-5.58-5.286l-0.061-0.118c-1.574-4.397-2.397-8.997-2.606-14.663
				c-2.361,6.933-1.693,15.703,5.046,21.482c4.566,3.915,3.489,11.664,2.539,18.501c-0.429,3.082-0.833,5.992-0.735,8.398
				c0.161,4.011,1.321,6.762,2.664,9.947c0.586,1.389,1.191,2.825,1.76,4.472l0.024,0.109c0.143,1.318,0.08,2.903,0.013,4.581
				c-0.122,3.063-0.261,6.536,0.947,8.673c0.381,0.527,0.79,1.092,1.194,1.651c4.984,6.883,9.288,12.828,7.536,22.078
				c-0.491,2.59-1.656,5.219-2.784,7.762c-1.889,4.261-3.842,8.667-2.614,12.923c0.697,2.421,2.528,4.237,4.3,5.993
				c0.304,0.301,0.606,0.601,0.902,0.903l0.183,0.186l-0.048,0.255c-0.26,1.41-0.615,2.817-0.959,4.178
				c-0.583,2.305-1.185,4.688-1.318,7.095c-0.126,1.772-0.023,2.997,0.052,3.891c0.223,2.652,0.074,3.091-4.527,5.693
				c-3.799,2.143-7.721,4.54-10.27,8.179c-5.262,7.517-8.458,14.086-10.588,21.795c1.896-0.987,3.577-4.925,4.631-7.393
				c0.395-0.923,0.735-1.721,1.021-2.237c2.662-4.828,6.288-7.857,10.486-11.366c8.692-6.139,16.544-8.619,27.168-8.619
				c1.568,0,3.206,0.051,5.004,0.154c1.021,0.058,2.063,0.146,3.115,0.236c1.827,0.155,3.716,0.315,5.543,0.315
				c4.513,0,7.607-1.017,10.032-3.295c3.269-3.076,5.96-4.552,10.666-5.85c1.103-0.304,2.199-0.583,3.28-0.858
				c6.838-1.74,12.742-3.242,16.002-9.85l0.896,0.442c-0.001,0.002-0.002,0.005-0.004,0.008c-1.27,2.585-0.685,5.562-0.065,8.713
				c0.802,4.082,1.711,8.708-1.36,13.307c-1.896,2.844-4.7,4.5-7.412,6.102c-1.438,0.85-2.925,1.729-4.25,2.771
				c-1.023,0.808-1.284,2.416-1.537,3.972c-0.159,0.975-0.309,1.896-0.638,2.665c-3.625,8.472-10.899,12.59-22.236,12.59
				c-0.001,0-0.001,0-0.003,0c-7.208-0.001-15.027-1.684-21.31-3.035c-1.336-0.287-2.62-0.563-3.837-0.812l-1.319-0.269l1.175-0.658
				c1.52-0.851,3.048-1.686,4.577-2.521c2.479-1.354,5.02-2.742,7.513-4.197c-10.58,3.143-17.951,8.547-26.36,14.713
				c-2.952,2.165-6.005,4.403-9.344,6.645C216.689,215.358,207.688,221.402,199.314,221.402z M189.053,216.121
				c2.86,2.841,6.312,4.281,10.261,4.281c8.069,0,16.912-5.938,22.196-9.484c3.321-2.23,6.365-4.462,9.31-6.621
				c9.368-6.868,17.458-12.801,30.115-15.78l2.968-0.699l-2.59,1.61c-3.454,2.147-7.074,4.125-10.575,6.037
				c-1.133,0.619-2.266,1.238-3.396,1.863c0.819,0.173,1.664,0.354,2.53,0.541c6.562,1.412,13.998,3.012,21.1,3.013
				c0.001,0,0.002,0,0.003,0c10.895,0,17.867-3.92,21.316-11.982c0.281-0.658,0.422-1.521,0.57-2.434
				c0.271-1.663,0.576-3.548,1.905-4.596c1.378-1.085,2.895-1.98,4.361-2.847c2.734-1.616,5.318-3.143,7.088-5.796
				c2.843-4.256,2.013-8.478,1.211-12.56c-0.416-2.118-0.817-4.163-0.686-6.114c-3.646,4.709-9.145,6.108-14.915,7.577
				c-1.075,0.273-2.165,0.551-3.262,0.854c-4.584,1.263-7.073,2.627-10.246,5.613c-2.625,2.467-5.931,3.566-10.718,3.566
				c-1.87,0-3.78-0.162-5.627-0.319c-1.043-0.089-2.076-0.177-3.088-0.234c-1.779-0.103-3.397-0.152-4.947-0.152
				c-10.536,0-17.972,2.35-26.521,8.38c-4.126,3.45-7.686,6.425-10.258,11.089c-0.261,0.473-0.592,1.248-0.976,2.147
				c-1.444,3.382-3.422,8.015-6.227,8.223l-0.699,0.052l0.179-0.678c2.159-8.203,5.438-15.071,10.966-22.967
				c2.668-3.81,6.697-6.276,10.596-8.476c4.221-2.387,4.206-2.564,4.023-4.738c-0.078-0.927-0.185-2.196-0.054-4.037
				c0.139-2.497,0.753-4.927,1.347-7.277c0.319-1.262,0.648-2.564,0.897-3.859c-0.234-0.236-0.472-0.471-0.71-0.708
				c-1.861-1.846-3.787-3.755-4.557-6.426c-1.328-4.605,0.7-9.18,2.661-13.605c1.104-2.491,2.246-5.066,2.716-7.543
				c1.672-8.826-2.516-14.608-7.363-21.305c-0.406-0.561-0.816-1.127-1.227-1.701c-1.377-2.43-1.232-6.053-1.104-9.25
				c0.064-1.616,0.125-3.143-0.002-4.378c-0.552-1.593-1.145-2.998-1.717-4.356c-1.323-3.139-2.574-6.104-2.743-10.295
				c-0.101-2.496,0.31-5.449,0.745-8.576c0.959-6.905,1.952-14.045-2.199-17.604c-6.833-5.858-8.602-15.869-4.4-24.912l0.939-2.022
				l0.014,2.23c0.042,6.677,0.837,11.839,2.577,16.726c1.646,2.337,3.591,3.749,5.309,4.995c2.979,2.162,5.552,4.029,4.459,9.499
				c-1.92,9.623-1.775,17.224,0.484,25.417c2.177,5.199,4.107,5.908,5.705,5.908c1.697,0,3.667-0.926,6.159-2.098
				c1.383-0.65,2.949-1.387,4.683-2.055l0.498-0.192l0.159,0.51c0.652,2.093,0.609,3.678-0.13,4.845
				c-1.201,1.896-3.962,2.281-6.885,2.689c-3.916,0.548-7.967,1.114-8.704,5.25c-0.672,3.757,2.365,8.004,5.303,12.112
				c1.455,2.036,2.83,3.959,3.722,5.779c2.998,6.125,0.837,12.562-1.254,18.787c-2.078,6.186-4.041,12.029-0.284,16.566
				c1.72,2.075,3.871,3.084,6.576,3.084c5.45,0,12.014-4.096,17.805-7.71c3.634-2.268,6.771-4.226,9.246-4.962
				c6.77-2.012,14.696-4.156,23.201-4.055c3.938-6.402,6.079-11.241,0.855-18.492c-1.791,2.005-3.719,3.925-5.741,5.715
				c0.961,2.036,1.191,3.339,0.728,4.085c-0.176,0.283-0.537,0.62-1.26,0.62c-1.033,0-2.625-0.699-4.729-2.077
				c-3.629-2.376-6.422-3.345-9.64-3.345c-1.742,0-3.649,0.29-6.005,0.912c-6.653,1.759-10.238,5.755-14.776,10.815
				c-1.205,1.343-2.927,2.943-4.285,2.943c-0.563,0-1.012-0.269-1.267-0.758c-0.663-1.275,0.138-3.911,1.993-6.559
				c3.209-4.576,6.687-6.974,11.984-9.798c3.158-1.685,6.919-1.912,10.181-1.912c1.313,0,2.64,0.043,3.954,0.085
				c1.28,0.042,2.549,0.083,3.782,0.083c6.243,0,10.715-1.178,12.25-6.929c0.973-5.618-3.59-11.418-8.547-14.655
				c-3.792-2.475-6.581-5.625-9.278-8.672c-2.309-2.608-4.683-5.291-7.702-7.561c1.918,3.418,4.287,8.285,3.854,12.298
				c-0.61,5.673,3.378,7.25,8.427,9.245c1.692,0.669,3.442,1.361,5.146,2.262l2.269,1.201l-2.554-0.262
				c-12.217-1.254-23.383-3.939-32.693-6.4l-2.866-0.758l2.956-0.224c1.527-0.116,3.053-0.252,4.579-0.388
				c2.66-0.238,5.406-0.483,8.13-0.612c-0.229-5.855-1.378-10.934-3.808-16.879c-2.457-7.794-15.712-8.596-22.082-8.981
				l-3.019-0.183l2.658-0.809c3.136-0.954,4.901-2.176,5.398-3.735c0.775-2.432-1.651-5.571-3.999-8.606
				c-2.497-3.23-4.856-6.281-3.921-8.914l0.189-0.536l0.508,0.257c1.654,0.84,3.318,1.709,4.958,2.591
				c0.266-12.298-6.331-14.952-17.112-19.288l-2.82-1.136l2.356-0.083c3.329-0.117,6.722-0.201,10.095-0.249
				c-1.202-5.772-4.445-9.456-10.445-11.896c-2.416-0.88-4.961-1.4-7.549-1.538c-3.75-0.392-5.457-2.086-7.265-3.879
				c-1.133-1.125-2.305-2.287-4.092-3.305C204.76,2.558,202.658,2,200.443,2c-6.314,0-11.709,4.554-12.137,8.471
				c-0.339,3.103,2.23,5.421,7.233,6.527l0.733,0.162l-0.867,1.233c-3.582,5.088-7.286,10.35-7.484,16.624
				c-0.087,2.732,0.342,4.604,1.272,5.564c0.57,0.589,1.362,0.876,2.421,0.876c1.885,0,4.306-0.886,6.868-1.824
				c1.72-0.629,3.497-1.28,5.207-1.692l1.119-0.269l-21.215,37.505c0.183,3.172,1.802,5.922,3.233,8.353
				c1.987,3.377,3.865,6.566,1.288,9.917c-5.789,7.53-4.507,16.943-2.382,23.563c1.304,1.062,2.155,1.635,2.869,1.635
				c0.756,0,1.599-0.609,3.13-1.715l0.852-0.612c3.982-2.838,8.209-3.392,12.683-3.979c0.813-0.106,1.638-0.214,2.475-0.338
				l3.072-0.453l-2.774,1.395c-14.657,7.365-23.658,15.136-23.245,31.092c0.188,7.319,1.056,14.708,6.075,19.181
				c1.341,1.194,2.822,1.774,4.528,1.774c3.652,0,7.738-2.729,11.343-5.138c1.588-1.061,3.087-2.062,4.493-2.809l1.843-0.979
				l-1.199,1.707C189.152,190.148,189.007,213.797,189.053,216.121z M206.572,147.131c-1.879,0-3.111-1.555-4.254-5.368
				l-0.173-0.576l0.598-0.065c2.905-0.317,5.854-0.712,8.705-1.094c4.115-0.552,8.371-1.122,12.587-1.469l0.039,0.393
				c0.342-0.124,0.705-0.263,1.089-0.418c0.001,0,0.001,0,0.002-0.001l0.178-0.073l0.38,0.925l-0.181,0.074
				c-3.416,1.396-6.899,2.762-10.352,4.06c-1.647,0.625-3.049,1.355-4.285,2C209.177,146.419,207.812,147.131,206.572,147.131z
				 M203.454,142.049c1.161,3.581,2.224,4.082,3.118,4.082c0.994,0,2.264-0.662,3.87-1.5c1.262-0.657,2.69-1.402,4.395-2.049
				c1.662-0.625,3.33-1.265,4.994-1.917c-0.204-0.132-0.257-0.321-0.265-0.456c-0.004-0.072,0.007-0.142,0.031-0.209
				c-2.696,0.304-5.385,0.665-8.017,1.018C208.921,141.375,206.176,141.744,203.454,142.049z M190.469,97.538l1.87-2.874
				c1.801-2.768,3.347-5.795,4.841-8.723c1.862-3.648,3.787-7.42,6.224-10.72l0,0c-0.007,0,0.076-0.134,0.314-0.446
				c0.313-0.311,0.463-0.459,0.637-0.503l5.177-3.901l-0.611,1.616c-1.957,5.173-2.778,8.128-1.834,9.92
				c0.924,1.752,3.629,2.669,9.343,4.061l3.474,0.846l-3.572,0.139c-9.519,0.372-15.426,1.718-23.248,8.365L190.469,97.538z
				 M204.457,75.447c-0.115,0.159-0.181,0.251-0.207,0.3c-2.43,3.302-4.336,7.037-6.18,10.648c-1.075,2.107-2.177,4.265-3.385,6.351
				c6.087-4.604,11.273-6.081,18.347-6.612c-3.584-0.981-5.882-1.961-6.831-3.761c-1.016-1.927-0.467-4.57,1.188-9.136
				L204.457,75.447z"/>
		</g>
	</g>
</g>
</svg>
